<svg xmlns="http://www.w3.org/2000/svg" xmlns:xlink="http://www.w3.org/1999/xlink" width="113" height="113" viewBox="0 0 113 113">
  <defs>
    <filter id="Trazado_982547" x="0" y="0" width="113" height="113" filterUnits="userSpaceOnUse">
      <feOffset dy="3" input="SourceAlpha"/>
      <feGaussianBlur stdDeviation="3" result="blur"/>
      <feFlood flood-opacity="0.161"/>
      <feComposite operator="in" in2="blur"/>
      <feComposite in="SourceGraphic"/>
    </filter>
  </defs>
  <g id="Grupo_1208910" data-name="Grupo 1208910" transform="translate(-793.49 -2553)">
    <g id="Grupo_1208028" data-name="Grupo 1208028" transform="translate(0 -3074.425)">
      <g id="Grupo_1177675" data-name="Grupo 1177675" transform="translate(-4493 3707.152)">
        <g id="Grupo_1176928" data-name="Grupo 1176928" transform="translate(5295.49 1926.273)">
          <g id="Grupo_1172322" data-name="Grupo 1172322" transform="translate(0 0)">
            <g id="Grupo_1164700" data-name="Grupo 1164700">
              <g id="Grupo_1160931" data-name="Grupo 1160931">
                <g id="Grupo_1160749" data-name="Grupo 1160749">
                  <g id="Grupo_1158891" data-name="Grupo 1158891">
                    <g id="Grupo_1157406" data-name="Grupo 1157406">
                      <g id="Grupo_1155793" data-name="Grupo 1155793">
                        <g id="Grupo_1154704" data-name="Grupo 1154704">
                          <g id="Grupo_1150790" data-name="Grupo 1150790">
                            <g id="Grupo_1154214" data-name="Grupo 1154214">
                              <g id="Grupo_1152583" data-name="Grupo 1152583">
                                <g id="Grupo_1146973" data-name="Grupo 1146973">
                                  <g id="Grupo_1146954" data-name="Grupo 1146954">
                                    <g transform="matrix(1, 0, 0, 1, -9, -6)" filter="url(#Trazado_982547)">
                                      <g id="Trazado_982547-2" data-name="Trazado 982547" transform="translate(9 6)" fill="#fcebe9">
                                        <path d="M 47.5000114440918 93.49987030029297 C 41.28938293457031 93.49987030029297 35.26534652709961 92.28384399414062 29.5951976776123 89.88558959960938 C 24.11773109436035 87.56881713867188 19.19814491271973 84.25183868408203 14.97310447692871 80.02680206298828 C 10.74805164337158 75.80176544189453 7.43107795715332 70.88218688964844 5.114304542541504 65.40472412109375 C 2.716038227081299 59.73458862304688 1.500011444091797 53.71054840087891 1.500011444091797 47.49993515014648 C 1.500011444091797 41.28932189941406 2.716038227081299 35.26528167724609 5.114304542541504 29.59514808654785 C 7.43107795715332 24.1176815032959 10.74805164337158 19.1981086730957 14.97310447692871 14.97306823730469 C 19.19814491271973 10.74802875518799 24.11773109436035 7.431055068969727 29.5951976776123 5.11428165435791 C 35.26534652709961 2.716028451919556 41.28938293457031 1.500001788139343 47.5000114440918 1.500001788139343 C 53.71063995361328 1.500001788139343 59.73467636108398 2.716028451919556 65.40482330322266 5.11428165435791 C 70.88229370117188 7.431055068969727 75.8018798828125 10.74802875518799 80.02691650390625 14.97306823730469 C 84.25196838378906 19.1981086730957 87.56894683837891 24.1176815032959 89.88571929931641 29.59514808654785 C 92.28398132324219 35.26528167724609 93.50001525878906 41.28932189941406 93.50001525878906 47.49993515014648 C 93.50001525878906 53.71054840087891 92.28398132324219 59.73458862304688 89.88571929931641 65.40472412109375 C 87.56894683837891 70.88218688964844 84.25196838378906 75.80176544189453 80.02691650390625 80.02680206298828 C 75.8018798828125 84.25183868408203 70.88229370117188 87.56881713867188 65.40482330322266 89.88558959960938 C 59.73467636108398 92.28384399414062 53.71063995361328 93.49987030029297 47.5000114440918 93.49987030029297 Z" stroke="none"/>
                                        <path d="M 47.5000114440918 3 C 41.49122619628906 3 35.66378021240234 4.1761474609375 30.17951965332031 6.495796203613281 C 24.880859375 8.7369384765625 20.12153625488281 11.94596862792969 16.03376770019531 16.03373718261719 C 11.94598388671875 20.12149047851562 8.736968994140625 24.88081359863281 6.495811462402344 30.17947387695312 C 4.176162719726562 35.66371917724609 3.000007629394531 41.49116516113281 3.000007629394531 47.49993515014648 C 3.000007629394531 53.50870513916016 4.176162719726562 59.33615112304688 6.495811462402344 64.82039642333984 C 8.736968994140625 70.11905670166016 11.94598388671875 74.87837982177734 16.03376770019531 78.96613311767578 C 20.12153625488281 83.05390167236328 24.880859375 86.26293182373047 30.17951965332031 88.50407409667969 C 35.66378021240234 90.82372283935547 41.49122619628906 91.99987030029297 47.5000114440918 91.99987030029297 C 53.50879669189453 91.99987030029297 59.33624267578125 90.82372283935547 64.82050323486328 88.50407409667969 C 70.11916351318359 86.26293182373047 74.87848663330078 83.05390167236328 78.96625518798828 78.96613311767578 C 83.05403900146484 74.87837982177734 86.2630615234375 70.11905670166016 88.50421142578125 64.82039642333984 C 90.82386016845703 59.33615112304688 92.00001525878906 53.50870513916016 92.00001525878906 47.49993515014648 C 92.00001525878906 41.49116516113281 90.82386016845703 35.66371917724609 88.50421142578125 30.17947387695312 C 86.2630615234375 24.88081359863281 83.05403900146484 20.12149047851562 78.96625518798828 16.03373718261719 C 74.87848663330078 11.94596862792969 70.11916351318359 8.7369384765625 64.82050323486328 6.495796203613281 C 59.33624267578125 4.1761474609375 53.50879669189453 3 47.5000114440918 3 M 47.5000114440918 0 C 73.73353576660156 0 95.00001525878906 21.26644134521484 95.00001525878906 47.49993515014648 C 95.00001525878906 73.73342895507812 73.73353576660156 94.99987030029297 47.5000114440918 94.99987030029297 C 21.26648712158203 94.99987030029297 7.62939453125e-06 73.73342895507812 7.62939453125e-06 47.49993515014648 C 7.62939453125e-06 21.26644134521484 21.26648712158203 0 47.5000114440918 0 Z" stroke="none" fill="#e44b36"/>
                                      </g>
                                    </g>
                                  </g>
                                </g>
                              </g>
                            </g>
                          </g>
                        </g>
                      </g>
                    </g>
                  </g>
                </g>
              </g>
            </g>
          </g>
        </g>
      </g>
    </g>
    <g id="incident_13728323" transform="translate(806.451 2560.44)">
      <g id="Grupo_1208909" data-name="Grupo 1208909" transform="translate(8.091 14.475)">
        <g id="Grupo_1208905" data-name="Grupo 1208905" transform="translate(0 0)">
          <path id="Trazado_1048254" data-name="Trazado 1048254" d="M45.912,25.193,62.6,54.091A7.618,7.618,0,0,1,56,65.517H22.631a7.618,7.618,0,0,1-6.6-11.427l16.684-28.9a7.615,7.615,0,0,1,13.2,0Z" transform="translate(-15.004 -21.381)" fill="#ffe177" fill-rule="evenodd"/>
          <path id="Trazado_1048255" data-name="Trazado 1048255" d="M187.807,21.411q.338-.03.684-.03a7.565,7.565,0,0,1,6.6,3.812l16.687,28.9a7.618,7.618,0,0,1-6.6,11.427h-1.367a7.618,7.618,0,0,0,6.6-11.427l-16.687-28.9A7.559,7.559,0,0,0,187.807,21.411Z" transform="translate(-164.181 -21.381)" fill="#ffd064" fill-rule="evenodd"/>
        </g>
        <g id="Grupo_1208906" data-name="Grupo 1208906" transform="translate(15.093 20.674)">
          <path id="Trazado_1048256" data-name="Trazado 1048256" d="M156.911,175.971v12.195H143.4V175.971a3.379,3.379,0,0,1,3.379-3.379h6.757a3.379,3.379,0,0,1,3.379,3.379Z" transform="translate(-140.935 -172.592)" fill="#fe646f" fill-rule="evenodd"/>
          <path id="Trazado_1048257" data-name="Trazado 1048257" d="M207.531,172.592H208.9a3.379,3.379,0,0,1,3.379,3.379v12.195H210.91V175.971a3.379,3.379,0,0,0-3.379-3.379Z" transform="translate(-196.301 -172.592)" fill="#fd4755" fill-rule="evenodd"/>
          <path id="Trazado_1048258" data-name="Trazado 1048258" d="M144.055,267.211v2.548a1.008,1.008,0,0,1-1.008,1.008H126.4a1.008,1.008,0,0,1-1.008-1.008v-2.548A1.008,1.008,0,0,1,126.4,266.2h16.645a1.008,1.008,0,0,1,1.008,1.009Z" transform="translate(-125.394 -253.403)" fill="#685e68" fill-rule="evenodd"/>
          <path id="Trazado_1048259" data-name="Trazado 1048259" d="M143.115,266.219a1.008,1.008,0,0,1,.94,1.006v2.548a1.008,1.008,0,0,1-1.008,1.008H126.4a1.008,1.008,0,0,1-1.008-1.008v-.036l.068,0h16.645a1.008,1.008,0,0,0,1.008-1.009Z" transform="translate(-125.394 -253.418)" fill="#544854" fill-rule="evenodd"/>
        </g>
        <g id="Grupo_1208907" data-name="Grupo 1208907" transform="translate(32.814 31.069)">
          <path id="Trazado_1048260" data-name="Trazado 1048260" d="M274.677,251.338a13.989,13.989,0,0,1,4.1,1.7l2.665-1.182,3.139,3.139-1.182,2.665a13.991,13.991,0,0,1,1.7,4.1l2.719,1.047v4.441l-2.719,1.047a14,14,0,0,1-1.7,4.1l1.182,2.665-3.139,3.141-2.665-1.184a13.993,13.993,0,0,1-4.1,1.7l-1.047,2.717h-4.442l-1.047-2.719a14,14,0,0,1-4.1-1.7L261.38,278.2l-3.141-3.141,1.184-2.663a14.036,14.036,0,0,1-1.7-4.1L255,267.248v-4.442l2.717-1.047a13.992,13.992,0,0,1,1.7-4.1l-1.184-2.665,3.141-3.139,2.663,1.182a14.032,14.032,0,0,1,4.1-1.7l1.047-2.719h4.442Z" transform="translate(-255.004 -248.619)" fill="#837683" fill-rule="evenodd"/>
          <path id="Trazado_1048261" data-name="Trazado 1048261" d="M318.294,252.252l.9-.4,3.139,3.139-1.182,2.665a13.991,13.991,0,0,1,1.7,4.1l2.719,1.047v4.441l-2.719,1.047a14,14,0,0,1-1.7,4.1l1.182,2.665-3.139,3.141-.9-.4,2.744-2.744-1.184-2.665a14,14,0,0,0,1.7-4.1l2.719-1.047v-4.441l-2.719-1.047a13.988,13.988,0,0,0-1.7-4.1l1.184-2.665Zm-19.565,0,.4-.4,2.663,1.182c-.188.1-.374.213-.556.327Zm13.7-.915a13.987,13.987,0,0,1,4.1,1.7l-.735.327a18.3,18.3,0,0,0-4.659-2.027l-1.046-2.719h1.293Zm-10.633,25.677-2.665,1.184-.4-.4,2.5-1.112Q301.506,276.858,301.791,277.015Zm14.734,0a14,14,0,0,1-4.1,1.7l-1.046,2.717h-1.293l1.046-2.717a18.343,18.343,0,0,0,4.661-2.027Z" transform="translate(-292.751 -248.619)" fill="#685e68" fill-rule="evenodd"/>
          <path id="Trazado_1048262" data-name="Trazado 1048262" d="M308.272,291.319a10.569,10.569,0,1,1-10.568,10.57A10.57,10.57,0,0,1,308.272,291.319Z" transform="translate(-291.866 -285.481)" fill="#eceff1" fill-rule="evenodd"/>
          <path id="Trazado_1048263" data-name="Trazado 1048263" d="M308.272,291.319c.24,0,.479.008.717.026a10.568,10.568,0,0,0,0,21.088c-.238.015-.477.024-.717.024a10.569,10.569,0,0,1,0-21.138Z" transform="translate(-291.866 -285.481)" fill="#d1d1d6" fill-rule="evenodd"/>
        </g>
        <g id="Grupo_1208908" data-name="Grupo 1208908" transform="translate(43.25 42.702)">
          <circle id="Elipse_12533" data-name="Elipse 12533" cx="2.648" cy="2.648" r="2.648" fill="#8ac9fe"/>
          <path id="Trazado_1048264" data-name="Trazado 1048264" d="M348.291,333.719a2.648,2.648,0,1,1,0,5.255,2.648,2.648,0,0,0,0-5.255Z" transform="translate(-345.972 -333.699)" fill="#60b7ff" fill-rule="evenodd"/>
          <circle id="Elipse_12534" data-name="Elipse 12534" cx="2.387" cy="2.387" r="2.387" transform="translate(6.907 4.514)" fill="#6cf5c2"/>
          <path id="Trazado_1048265" data-name="Trazado 1048265" d="M396.9,366.735a2.413,2.413,0,0,1,.329-.022,2.387,2.387,0,1,1-.329,4.752,2.387,2.387,0,0,0,0-4.729Z" transform="translate(-387.939 -362.198)" fill="#00e499" fill-rule="evenodd"/>
        </g>
      </g>
      <path id="Trazado_1048266" data-name="Trazado 1048266" d="M40.254,46.854h.583a2.1,2.1,0,0,1,2.1,2.1V51.5a2.1,2.1,0,0,1-2.1,2.1H24.192a2.1,2.1,0,0,1-2.1-2.1V48.957a2.1,2.1,0,0,1,2.1-2.1h.359V38.528a4.473,4.473,0,0,1,4.473-4.473h6.757a4.473,4.473,0,0,1,4.473,4.473Zm-13.515,0h4.57V42.936a1.094,1.094,0,0,1,2.188,0v3.918h4.57V38.528a2.285,2.285,0,0,0-2.285-2.285H29.024a2.285,2.285,0,0,0-2.285,2.285Zm14.012,2.188H24.278v2.377H40.752Zm-3.075,8.475a1.094,1.094,0,0,1,0,2.188H15.717A8.711,8.711,0,0,1,8.173,46.637l16.684-28.9a8.709,8.709,0,0,1,15.09,0L54.073,42.2A1.094,1.094,0,0,1,52.178,43.3L38.051,18.834a6.521,6.521,0,0,0-11.3,0l-16.684,28.9a6.479,6.479,0,0,0,0,6.524h0a6.476,6.476,0,0,0,5.65,3.262ZM31.309,28.867a1.094,1.094,0,1,1,2.188,0V30.89a1.094,1.094,0,1,1-2.188,0ZM24.421,31.3A1.094,1.094,0,1,1,26.315,30.2l1.012,1.753a1.094,1.094,0,1,1-1.894,1.094Zm-4.749,5.55a1.094,1.094,0,1,1,1.094-1.895l1.753,1.012a1.094,1.094,0,1,1-1.094,1.894ZM38.49,30.2A1.094,1.094,0,0,1,40.385,31.3l-1.012,1.753a1.094,1.094,0,0,1-1.895-1.094Zm5.55,4.749a1.094,1.094,0,0,1,1.094,1.895L43.382,37.86a1.094,1.094,0,1,1-1.094-1.894ZM61.4,47.349a15.05,15.05,0,0,1,3.351,1.389l2.15-.956a1.094,1.094,0,0,1,1.218.226l3.138,3.138a1.094,1.094,0,0,1,.227,1.216l-.953,2.15a15.017,15.017,0,0,1,1.39,3.357l2.193.844a1.094,1.094,0,0,1,.7,1.021v4.439a1.094,1.094,0,0,1-.7,1.021l-2.193.844a15.177,15.177,0,0,1-1.389,3.351l.953,2.152a1.094,1.094,0,0,1-.227,1.216l-3.138,3.138a1.094,1.094,0,0,1-1.216.227l-2.15-.952A15.018,15.018,0,0,1,61.4,76.558l-.844,2.193a1.094,1.094,0,0,1-1.021.7H55.095a1.094,1.094,0,0,1-1.021-.7l-.844-2.193a15.143,15.143,0,0,1-3.355-1.39l-2.152.953a1.094,1.094,0,0,1-1.216-.227l-3.138-3.138a1.094,1.094,0,0,1-.226-1.218l.956-2.149a15.13,15.13,0,0,1-1.391-3.351l-2.194-.845a1.094,1.094,0,0,1-.7-1.021V59.734a1.094,1.094,0,0,1,.7-1.021l2.194-.844A15.139,15.139,0,0,1,44.1,54.513l-.956-2.15a1.094,1.094,0,0,1,.226-1.218l3.138-3.138a1.094,1.094,0,0,1,1.218-.226l2.15.956a15.052,15.052,0,0,1,3.352-1.389l.848-2.2a1.094,1.094,0,0,1,1.02-.7h4.439a1.094,1.094,0,0,1,1.021.7Zm-1.84,1.31-.777-2.021H55.845l-.78,2.022a1.094,1.094,0,0,1-.768.67A12.867,12.867,0,0,0,50.518,50.9a1.094,1.094,0,0,1-1.018.068l-1.978-.879-2.076,2.076.879,1.978a1.094,1.094,0,0,1-.068,1.018,12.978,12.978,0,0,0-1.571,3.785,1.093,1.093,0,0,1-.671.766L42,60.485v2.937l2.017.776a1.094,1.094,0,0,1,.67.765,12.95,12.95,0,0,0,1.57,3.78,1.093,1.093,0,0,1,.069,1.02l-.879,1.978,2.077,2.077,1.979-.876a1.093,1.093,0,0,1,1.014.067A12.964,12.964,0,0,0,54.3,74.576a1.094,1.094,0,0,1,.769.671l.776,2.017h2.937l.776-2.017a1.094,1.094,0,0,1,.768-.671A12.813,12.813,0,0,0,64.1,73.011a1.094,1.094,0,0,1,1.018-.07l1.978.876,2.077-2.077L68.3,69.761a1.094,1.094,0,0,1,.067-1.014,12.986,12.986,0,0,0,1.567-3.781,1.094,1.094,0,0,1,.671-.768l2.017-.776V60.485l-2.017-.776a1.094,1.094,0,0,1-.672-.769,12.841,12.841,0,0,0-1.566-3.782A1.094,1.094,0,0,1,68.3,54.14l.876-1.979L67.1,50.085l-1.978.879a1.094,1.094,0,0,1-1.018-.068,12.865,12.865,0,0,0-3.779-1.566,1.094,1.094,0,0,1-.768-.672Zm-2.248,1.632a11.663,11.663,0,1,1-11.66,11.66A11.661,11.661,0,0,1,57.311,50.291Zm0,2.188a9.475,9.475,0,1,0,9.478,9.472,9.469,9.469,0,0,0-9.478-9.472Zm2.23,14.629a3.221,3.221,0,0,1,0-6.059V55.874a1.094,1.094,0,1,1,2.188,0v5.174a3.221,3.221,0,0,1,0,6.059v.921a1.094,1.094,0,1,1-2.188,0Zm1.094-4.062a1.033,1.033,0,1,0,1.033,1.033A1.033,1.033,0,0,0,60.636,63.045Zm-7.74-.191a3.221,3.221,0,0,1,0-6.059v-.921a1.094,1.094,0,1,1,2.188,0V56.8a3.221,3.221,0,0,1,0,6.059v5.174a1.094,1.094,0,1,1-2.188,0Zm1.094-4.062a1.033,1.033,0,1,0,1.033,1.033A1.033,1.033,0,0,0,53.989,58.792Z" transform="translate(0 0)" fill-rule="evenodd"/>
    </g>
  </g>
</svg>
