<svg xmlns="http://www.w3.org/2000/svg" xmlns:xlink="http://www.w3.org/1999/xlink" width="113" height="113" viewBox="0 0 113 113">
  <defs>
    <filter id="Trazado_982547" x="0" y="0" width="113" height="113" filterUnits="userSpaceOnUse">
      <feOffset dy="3" input="SourceAlpha"/>
      <feGaussianBlur stdDeviation="3" result="blur"/>
      <feFlood flood-opacity="0.161"/>
      <feComposite operator="in" in2="blur"/>
      <feComposite in="SourceGraphic"/>
    </filter>
  </defs>
  <g id="Grupo_1208918" data-name="Grupo 1208918" transform="translate(-1112 -2553)">
    <g id="Grupo_1208038" data-name="Grupo 1208038" transform="translate(0 -3074.425)">
      <g id="Grupo_1202104" data-name="Grupo 1202104" transform="translate(0 -1149.226)">
        <g id="Grupo_1201923" data-name="Grupo 1201923" transform="translate(-4174.49 4856.378)">
          <g id="Grupo_1176928" data-name="Grupo 1176928" transform="translate(5295.49 1926.273)">
            <g id="Grupo_1172322" data-name="Grupo 1172322" transform="translate(0 0)">
              <g id="Grupo_1164700" data-name="Grupo 1164700">
                <g id="Grupo_1160931" data-name="Grupo 1160931">
                  <g id="Grupo_1160749" data-name="Grupo 1160749">
                    <g id="Grupo_1158891" data-name="Grupo 1158891">
                      <g id="Grupo_1157406" data-name="Grupo 1157406">
                        <g id="Grupo_1155793" data-name="Grupo 1155793">
                          <g id="Grupo_1154704" data-name="Grupo 1154704">
                            <g id="Grupo_1150790" data-name="Grupo 1150790">
                              <g id="Grupo_1154214" data-name="Grupo 1154214">
                                <g id="Grupo_1152583" data-name="Grupo 1152583">
                                  <g id="Grupo_1146973" data-name="Grupo 1146973">
                                    <g id="Grupo_1146954" data-name="Grupo 1146954">
                                      <g transform="matrix(1, 0, 0, 1, -9, -6)" filter="url(#Trazado_982547)">
                                        <g id="Trazado_982547-2" data-name="Trazado 982547" transform="translate(9 6)" fill="#fcebe9">
                                          <path d="M 47.5000114440918 93.49987030029297 C 41.28938293457031 93.49987030029297 35.26534652709961 92.28384399414062 29.5951976776123 89.88558959960938 C 24.11773109436035 87.56881713867188 19.19814491271973 84.25183868408203 14.97310447692871 80.02680206298828 C 10.74805164337158 75.80176544189453 7.43107795715332 70.88218688964844 5.114304542541504 65.40472412109375 C 2.716038227081299 59.73458862304688 1.500011444091797 53.71054840087891 1.500011444091797 47.49993515014648 C 1.500011444091797 41.28932189941406 2.716038227081299 35.26528167724609 5.114304542541504 29.59514808654785 C 7.43107795715332 24.1176815032959 10.74805164337158 19.1981086730957 14.97310447692871 14.97306823730469 C 19.19814491271973 10.74802875518799 24.11773109436035 7.431055068969727 29.5951976776123 5.11428165435791 C 35.26534652709961 2.716028451919556 41.28938293457031 1.500001788139343 47.5000114440918 1.500001788139343 C 53.71063995361328 1.500001788139343 59.73467636108398 2.716028451919556 65.40482330322266 5.11428165435791 C 70.88229370117188 7.431055068969727 75.8018798828125 10.74802875518799 80.02691650390625 14.97306823730469 C 84.25196838378906 19.1981086730957 87.56894683837891 24.1176815032959 89.88571929931641 29.59514808654785 C 92.28398132324219 35.26528167724609 93.50001525878906 41.28932189941406 93.50001525878906 47.49993515014648 C 93.50001525878906 53.71054840087891 92.28398132324219 59.73458862304688 89.88571929931641 65.40472412109375 C 87.56894683837891 70.88218688964844 84.25196838378906 75.80176544189453 80.02691650390625 80.02680206298828 C 75.8018798828125 84.25183868408203 70.88229370117188 87.56881713867188 65.40482330322266 89.88558959960938 C 59.73467636108398 92.28384399414062 53.71063995361328 93.49987030029297 47.5000114440918 93.49987030029297 Z" stroke="none"/>
                                          <path d="M 47.5000114440918 3 C 41.49122619628906 3 35.66378021240234 4.1761474609375 30.17951965332031 6.495796203613281 C 24.880859375 8.7369384765625 20.12153625488281 11.94596862792969 16.03376770019531 16.03373718261719 C 11.94598388671875 20.12149047851562 8.736968994140625 24.88081359863281 6.495811462402344 30.17947387695312 C 4.176162719726562 35.66371917724609 3.000007629394531 41.49116516113281 3.000007629394531 47.49993515014648 C 3.000007629394531 53.50870513916016 4.176162719726562 59.33615112304688 6.495811462402344 64.82039642333984 C 8.736968994140625 70.11905670166016 11.94598388671875 74.87837982177734 16.03376770019531 78.96613311767578 C 20.12153625488281 83.05390167236328 24.880859375 86.26293182373047 30.17951965332031 88.50407409667969 C 35.66378021240234 90.82372283935547 41.49122619628906 91.99987030029297 47.5000114440918 91.99987030029297 C 53.50879669189453 91.99987030029297 59.33624267578125 90.82372283935547 64.82050323486328 88.50407409667969 C 70.11916351318359 86.26293182373047 74.87848663330078 83.05390167236328 78.96625518798828 78.96613311767578 C 83.05403900146484 74.87837982177734 86.2630615234375 70.11905670166016 88.50421142578125 64.82039642333984 C 90.82386016845703 59.33615112304688 92.00001525878906 53.50870513916016 92.00001525878906 47.49993515014648 C 92.00001525878906 41.49116516113281 90.82386016845703 35.66371917724609 88.50421142578125 30.17947387695312 C 86.2630615234375 24.88081359863281 83.05403900146484 20.12149047851562 78.96625518798828 16.03373718261719 C 74.87848663330078 11.94596862792969 70.11916351318359 8.7369384765625 64.82050323486328 6.495796203613281 C 59.33624267578125 4.1761474609375 53.50879669189453 3 47.5000114440918 3 M 47.5000114440918 0 C 73.73353576660156 0 95.00001525878906 21.26644134521484 95.00001525878906 47.49993515014648 C 95.00001525878906 73.73342895507812 73.73353576660156 94.99987030029297 47.5000114440918 94.99987030029297 C 21.26648712158203 94.99987030029297 7.62939453125e-06 73.73342895507812 7.62939453125e-06 47.49993515014648 C 7.62939453125e-06 21.26644134521484 21.26648712158203 0 47.5000114440918 0 Z" stroke="none" fill="#e44b36"/>
                                        </g>
                                      </g>
                                    </g>
                                  </g>
                                </g>
                              </g>
                            </g>
                          </g>
                        </g>
                      </g>
                    </g>
                  </g>
                </g>
              </g>
            </g>
          </g>
        </g>
      </g>
    </g>
    <g id="transfer_17791766" transform="translate(1128.38 2575.836)">
      <g id="Grupo_1208917" data-name="Grupo 1208917" transform="translate(11.329 5.748)">
        <g id="Grupo_1208911" data-name="Grupo 1208911" transform="translate(5.346)">
          <path id="Trazado_1048267" data-name="Trazado 1048267" d="M58.936,45H83.169a1.774,1.774,0,0,1,1.767,1.767v39.44a1.772,1.772,0,0,1-1.767,1.767H58.936a1.77,1.77,0,0,1-1.767-1.767V46.767A1.772,1.772,0,0,1,58.936,45Z" transform="translate(-57.169 -45)" fill="#8db9ff" fill-rule="evenodd"/>
        </g>
        <g id="Grupo_1208912" data-name="Grupo 1208912" transform="translate(0 20.747)">
          <path id="Trazado_1048268" data-name="Trazado 1048268" d="M15.927,221.041l6.785-.095a4.206,4.206,0,1,1,0,8.412H18.945a1.77,1.77,0,0,0-1.3.543c-.359.359-.241.722-.251,1.231l-.214,9.348c.014,2.082.563,2.8,3.119,2.692H39.655l-3.76,5.035-6.619,2.916-15.258-2.916-2.163-21.348c-.234-2.3,1.76-5.788,4.072-5.818Z" transform="translate(-11.836 -220.945)" fill="#f7c5b8" fill-rule="evenodd"/>
        </g>
        <g id="Grupo_1208913" data-name="Grupo 1208913" transform="translate(2.182 48.008)">
          <path id="Trazado_1048269" data-name="Trazado 1048269" d="M30.34,452.135H52.217V459.2H30.34Z" transform="translate(-30.34 -452.135)" fill="#365f7f" fill-rule="evenodd"/>
        </g>
        <g id="Grupo_1208914" data-name="Grupo 1208914" transform="translate(27.917 10.769)">
          <path id="Trazado_1048270" data-name="Trazado 1048270" d="M257.944,145.9a2.537,2.537,0,0,1,.037.427v3.828a2.623,2.623,0,0,1,5.245,0v1.465a2.623,2.623,0,1,1,5.245,0v1.577a2.624,2.624,0,0,1,5.249,0v3.5l.251,9.233a24.158,24.158,0,0,1-2.669,7.2l-2,1.5-15.105-1.5-4.937-6.276a3.047,3.047,0,0,1-.678-1.987l.037-3.957v-4.4a1.932,1.932,0,0,1,.722-1.533l3.387-2.8v-5.846a2.8,2.8,0,0,1,.017-.3,12.29,12.29,0,0,0-.709-5.479v0a2.776,2.776,0,0,1-.376-1.4,2.815,2.815,0,0,1,5.571-.573A24.991,24.991,0,0,1,257.944,145.9Z" transform="translate(-248.586 -136.324)" fill="#f7c5b8" fill-rule="evenodd"/>
        </g>
        <g id="Grupo_1208915" data-name="Grupo 1208915" transform="translate(33.532 47.568)">
          <path id="Trazado_1048271" data-name="Trazado 1048271" d="M296.205,448.4h17.1v7.51h-17.1Z" transform="translate(-296.205 -448.397)" fill="#365f7f" fill-rule="evenodd"/>
        </g>
        <g id="Grupo_1208916" data-name="Grupo 1208916" transform="translate(12.335 3.733)">
          <path id="Trazado_1048272" data-name="Trazado 1048272" d="M124.572,77.362l5.279,9.138a2.12,2.12,0,0,1-1.834,3.184h-9.446a2.121,2.121,0,0,1-1.828-3.2l5.384-9.134a1.417,1.417,0,0,1,2.445.01Z" transform="translate(-116.442 -76.657)" fill="#ffd06c" fill-rule="evenodd"/>
        </g>
      </g>
      <path id="Trazado_1048273" data-name="Trazado 1048273" d="M68.738,16.419,63.9,21.26A.822.822,0,1,1,62.737,20.1l3.435-3.437H51.69a.822.822,0,0,1,0-1.645H66.171l-3.434-3.434A.822.822,0,0,1,63.9,10.419l4.837,4.837a.822.822,0,0,1,0,1.163Zm-30.615,2.27a2.908,2.908,0,0,1-2.517,4.366H26.312a2.909,2.909,0,0,1-2.506-4.387l5.3-8.987A2.216,2.216,0,0,1,32.93,9.7Zm-1.424.823-5.194-8.991h0a.535.535,0,0,0-.49-.282h0a.54.54,0,0,0-.491.282l-5.3,8.984a1.264,1.264,0,0,0,1.09,1.906h9.294a1.263,1.263,0,0,0,1.093-1.9Zm19.25-7.93a.822.822,0,0,0,1.163-1.163L53.676,6.986H68.157a.822.822,0,0,0,0-1.645H53.675L57.112,1.9A.822.822,0,0,0,55.949.742L51.108,5.582a.822.822,0,0,0,0,1.163ZM65.1,36.367l.247,9.073a.813.813,0,0,1-.017.192,24.574,24.574,0,0,1-2.608,7.129v7.173a.822.822,0,0,1-.822.822H45.074a.822.822,0,0,1-.822-.822v-7.1l-3.135-3.983H39.864l0,0-3.286,4.4v6.683a.822.822,0,0,1-.822.822H14.229a.822.822,0,0,1-.822-.822V53.02L11.282,32.058a7.234,7.234,0,0,1,1.839-5.082A4.106,4.106,0,0,1,16.1,25.428l.42-.006V7.481a2.563,2.563,0,0,1,2.56-2.56H42.923a2.563,2.563,0,0,1,2.561,2.56v8.038a3.605,3.605,0,0,1,3.38,2.851,38.645,38.645,0,0,1,.76,8.657,3.4,3.4,0,0,1,4.9,1.616,3.4,3.4,0,0,1,5.2,1.526A3.4,3.4,0,0,1,65.1,32.935v3.432ZM34.931,53.8H15.051v5.311h19.88Zm2.881-4.954H19.478C16.9,48.7,16.532,47.1,16.519,45.382V35.734a.828.828,0,0,1,.03-.221,2.643,2.643,0,0,1,2.527-1.9h3.706A3.32,3.32,0,0,0,25.1,27.916a3.2,3.2,0,0,0-2.306-.937l-5.442.073a.84.84,0,0,1-.112-.008.822.822,0,0,1-.138.014l-.984.013a2.573,2.573,0,0,0-1.771,1,5.562,5.562,0,0,0-1.429,3.82l2.054,20.265H35.341Zm5-17.307c0-.494.017-1.048.03-1.628.067-2.973.159-7.035-.633-9.062a3.592,3.592,0,0,1,1.632-5V7.481a.928.928,0,0,0-.916-.916H19.08a.917.917,0,0,0-.916.916V25.4l4.608-.062a4.842,4.842,0,0,1,3.484,1.41,4.965,4.965,0,0,1-3.472,8.511H19.076a.921.921,0,0,0-.693.29.992.992,0,0,0-.219.321v6.248H36.391a.822.822,0,0,1,0,1.645H18.164v1.616c.012,1.568.291,1.764,1.382,1.826H39.822l-.255-.324a3.813,3.813,0,0,1-.84-2.471l.037-3.894V36.191a2.735,2.735,0,0,1,1.009-2.141Zm18.27,21.828H45.9v5.745H61.079Zm2.623-7.98L63.458,36.4c0-.007,0-.015,0-.022V32.935a1.76,1.76,0,0,0-3.52,0V36.8a.822.822,0,1,1-1.645,0V31.384a1.758,1.758,0,1,0-3.516,0v4.7a.822.822,0,0,1-1.645,0V29.943a1.758,1.758,0,0,0-3.516,0V35.4a.822.822,0,0,1-1.645,0V29.943q0-.663,0-1.327a43.293,43.293,0,0,0-.716-9.883l0-.019a1.947,1.947,0,0,0-3.854.394,1.9,1.9,0,0,0,.259.971.837.837,0,0,1,.052.105c.94,2.324.843,6.625.772,9.765-.016.728-.032,1.415-.032,1.98V42.937a.822.822,0,1,1-1.645,0V33.675l-1.986,1.642a1.075,1.075,0,0,0-.412.874v4.33l-.037,3.9a2.2,2.2,0,0,0,.489,1.441l4.612,5.859H61.42A23.079,23.079,0,0,0,63.7,45.387ZM30.959,17.745a.822.822,0,0,0-.822.822V18.6a.822.822,0,1,0,1.645,0v-.033A.822.822,0,0,0,30.959,17.745Zm0-4.871a.822.822,0,0,0-.822.822v2.786a.822.822,0,1,0,1.645,0V13.7A.822.822,0,0,0,30.959,12.874Z" transform="translate(0)"/>
    </g>
  </g>
</svg>
