<svg xmlns="http://www.w3.org/2000/svg" xmlns:xlink="http://www.w3.org/1999/xlink" width="113" height="113" viewBox="0 0 113 113">
  <defs>
    <filter id="Trazado_982547" x="0" y="0" width="113" height="113" filterUnits="userSpaceOnUse">
      <feOffset dy="3" input="SourceAlpha"/>
      <feGaussianBlur stdDeviation="3" result="blur"/>
      <feFlood flood-opacity="0.161"/>
      <feComposite operator="in" in2="blur"/>
      <feComposite in="SourceGraphic"/>
    </filter>
  </defs>
  <g id="Grupo_1208933" data-name="Grupo 1208933" transform="translate(-1925.99 -2983.998)">
    <g id="Grupo_1208047" data-name="Grupo 1208047" transform="translate(1132.5 -2643.427)">
      <g id="Grupo_1177675" data-name="Grupo 1177675" transform="translate(-4493 3707.152)">
        <g id="Grupo_1176928" data-name="Grupo 1176928" transform="translate(5295.49 1926.273)">
          <g id="Grupo_1172322" data-name="Grupo 1172322" transform="translate(0 0)">
            <g id="Grupo_1164700" data-name="Grupo 1164700">
              <g id="Grupo_1160931" data-name="Grupo 1160931">
                <g id="Grupo_1160749" data-name="Grupo 1160749">
                  <g id="Grupo_1158891" data-name="Grupo 1158891">
                    <g id="Grupo_1157406" data-name="Grupo 1157406">
                      <g id="Grupo_1155793" data-name="Grupo 1155793">
                        <g id="Grupo_1154704" data-name="Grupo 1154704">
                          <g id="Grupo_1150790" data-name="Grupo 1150790">
                            <g id="Grupo_1154214" data-name="Grupo 1154214">
                              <g id="Grupo_1152583" data-name="Grupo 1152583">
                                <g id="Grupo_1146973" data-name="Grupo 1146973">
                                  <g id="Grupo_1146954" data-name="Grupo 1146954">
                                    <g transform="matrix(1, 0, 0, 1, -9, -6)" filter="url(#Trazado_982547)">
                                      <g id="Trazado_982547-2" data-name="Trazado 982547" transform="translate(9 6)" fill="#fcebe9">
                                        <path d="M 47.5000114440918 93.49987030029297 C 41.28938293457031 93.49987030029297 35.26534652709961 92.28384399414062 29.5951976776123 89.88558959960938 C 24.11773109436035 87.56881713867188 19.19814491271973 84.25183868408203 14.97310447692871 80.02680206298828 C 10.74805164337158 75.80176544189453 7.43107795715332 70.88218688964844 5.114304542541504 65.40472412109375 C 2.716038227081299 59.73458862304688 1.500011444091797 53.71054840087891 1.500011444091797 47.49993515014648 C 1.500011444091797 41.28932189941406 2.716038227081299 35.26528167724609 5.114304542541504 29.59514808654785 C 7.43107795715332 24.1176815032959 10.74805164337158 19.1981086730957 14.97310447692871 14.97306823730469 C 19.19814491271973 10.74802875518799 24.11773109436035 7.431055068969727 29.5951976776123 5.11428165435791 C 35.26534652709961 2.716028451919556 41.28938293457031 1.500001788139343 47.5000114440918 1.500001788139343 C 53.71063995361328 1.500001788139343 59.73467636108398 2.716028451919556 65.40482330322266 5.11428165435791 C 70.88229370117188 7.431055068969727 75.8018798828125 10.74802875518799 80.02691650390625 14.97306823730469 C 84.25196838378906 19.1981086730957 87.56894683837891 24.1176815032959 89.88571929931641 29.59514808654785 C 92.28398132324219 35.26528167724609 93.50001525878906 41.28932189941406 93.50001525878906 47.49993515014648 C 93.50001525878906 53.71054840087891 92.28398132324219 59.73458862304688 89.88571929931641 65.40472412109375 C 87.56894683837891 70.88218688964844 84.25196838378906 75.80176544189453 80.02691650390625 80.02680206298828 C 75.8018798828125 84.25183868408203 70.88229370117188 87.56881713867188 65.40482330322266 89.88558959960938 C 59.73467636108398 92.28384399414062 53.71063995361328 93.49987030029297 47.5000114440918 93.49987030029297 Z" stroke="none"/>
                                        <path d="M 47.5000114440918 3 C 41.49122619628906 3 35.66378021240234 4.1761474609375 30.17951965332031 6.495796203613281 C 24.880859375 8.7369384765625 20.12153625488281 11.94596862792969 16.03376770019531 16.03373718261719 C 11.94598388671875 20.12149047851562 8.736968994140625 24.88081359863281 6.495811462402344 30.17947387695312 C 4.176162719726562 35.66371917724609 3.000007629394531 41.49116516113281 3.000007629394531 47.49993515014648 C 3.000007629394531 53.50870513916016 4.176162719726562 59.33615112304688 6.495811462402344 64.82039642333984 C 8.736968994140625 70.11905670166016 11.94598388671875 74.87837982177734 16.03376770019531 78.96613311767578 C 20.12153625488281 83.05390167236328 24.880859375 86.26293182373047 30.17951965332031 88.50407409667969 C 35.66378021240234 90.82372283935547 41.49122619628906 91.99987030029297 47.5000114440918 91.99987030029297 C 53.50879669189453 91.99987030029297 59.33624267578125 90.82372283935547 64.82050323486328 88.50407409667969 C 70.11916351318359 86.26293182373047 74.87848663330078 83.05390167236328 78.96625518798828 78.96613311767578 C 83.05403900146484 74.87837982177734 86.2630615234375 70.11905670166016 88.50421142578125 64.82039642333984 C 90.82386016845703 59.33615112304688 92.00001525878906 53.50870513916016 92.00001525878906 47.49993515014648 C 92.00001525878906 41.49116516113281 90.82386016845703 35.66371917724609 88.50421142578125 30.17947387695312 C 86.2630615234375 24.88081359863281 83.05403900146484 20.12149047851562 78.96625518798828 16.03373718261719 C 74.87848663330078 11.94596862792969 70.11916351318359 8.7369384765625 64.82050323486328 6.495796203613281 C 59.33624267578125 4.1761474609375 53.50879669189453 3 47.5000114440918 3 M 47.5000114440918 0 C 73.73353576660156 0 95.00001525878906 21.26644134521484 95.00001525878906 47.49993515014648 C 95.00001525878906 73.73342895507812 73.73353576660156 94.99987030029297 47.5000114440918 94.99987030029297 C 21.26648712158203 94.99987030029297 7.62939453125e-06 73.73342895507812 7.62939453125e-06 47.49993515014648 C 7.62939453125e-06 21.26644134521484 21.26648712158203 0 47.5000114440918 0 Z" stroke="none" fill="#e44b36"/>
                                      </g>
                                    </g>
                                  </g>
                                </g>
                              </g>
                            </g>
                          </g>
                        </g>
                      </g>
                    </g>
                  </g>
                </g>
              </g>
            </g>
          </g>
        </g>
      </g>
    </g>
    <g id="bus_315248" transform="translate(1951.544 3007.552)">
      <circle id="Elipse_12535" data-name="Elipse 12535" cx="14.004" cy="14.004" r="14.004" transform="translate(15.942 0.938)" fill="#ffdc64"/>
      <path id="Trazado_1048313" data-name="Trazado 1048313" d="M161.643,223a3,3,0,0,0-2.4-1.2H132.234a3,3,0,0,0-2.4,1.2l-2.1,2.8h36.01Z" transform="translate(-112.791 -195.851)" fill="#8ce16e"/>
      <path id="Trazado_1048314" data-name="Trazado 1048314" d="M63.372,257.581A2,2,0,0,0,61.415,256H9.017a1,1,0,0,0-1,1v20.312a2,2,0,0,0,1.672,1.973l10.332,1.722H65.033a1,1,0,0,0,1-1V270Z" transform="translate(-7.079 -226.054)" fill="#9bf57d"/>
      <path id="Trazado_1048315" data-name="Trazado 1048315" d="M65.032,308.21h-.264a7.991,7.991,0,0,0-15.478,0H44.026V290.2h-10V308.21H32.759a7.986,7.986,0,0,0-15.346-.434l-7.726-1.288a2,2,0,0,1-1.672-1.973v3a2,2,0,0,0,1.672,1.973l10.332,1.722H65.032a1,1,0,0,0,1-1v-3A1,1,0,0,1,65.032,308.21Z" transform="translate(-7.078 -256.258)" fill="#8ce16e"/>
      <path id="Trazado_1048316" data-name="Trazado 1048316" d="M43.221,290.2a1,1,0,0,0-1,1v8a1,1,0,0,0,1,1H96.236l-2.143-10H43.221Z" transform="translate(-37.282 -256.257)" fill="#5b5d6e"/>
      <path id="Trazado_1048317" data-name="Trazado 1048317" d="M223.5,75.055a.487.487,0,0,1,.423.423c.18,1.345.556,6.094-2.519,9.169a5,5,0,1,1-7.073-7.073C217.408,74.5,222.158,74.875,223.5,75.055Z" transform="translate(-187.92 -66.172)" fill="#9bf57d"/>
      <path id="Trazado_1048318" data-name="Trazado 1048318" d="M223.5,75.056c-1.344-.18-6.094-.556-9.169,2.519a5.055,5.055,0,0,0-.075,7.148l9.528-9.528A.491.491,0,0,0,223.5,75.056Z" transform="translate(-187.92 -66.172)" fill="#8ce16e"/>
      <rect id="Rectángulo_418186" data-name="Rectángulo 418186" width="10.003" height="10.003" transform="translate(26.945 33.947)" fill="#464655"/>
      <g id="Grupo_1208932" data-name="Grupo 1208932" transform="translate(12.941 48.951)">
        <circle id="Elipse_12536" data-name="Elipse 12536" cx="5.001" cy="5.001" r="5.001" transform="translate(32.009)" fill="#5b5d6e"/>
        <circle id="Elipse_12537" data-name="Elipse 12537" cx="5.001" cy="5.001" r="5.001" fill="#5b5d6e"/>
      </g>
      <path id="Trazado_1048319" data-name="Trazado 1048319" d="M59.871,43.754,57.209,31.331a2.954,2.954,0,0,0-2.873-2.323H51.421L49.6,26.582a3.957,3.957,0,0,0-3.151-1.575H40.976a14.942,14.942,0,1,0-22.029.033,3.96,3.96,0,0,0-2.654,1.543l-1.819,2.426H1.938A1.94,1.94,0,0,0,0,30.946V51.258a2.929,2.929,0,0,0,2.455,2.9L12.3,55.8a5.937,5.937,0,0,0,11.257.094H44.339a5.937,5.937,0,0,0,11.226,0h2.39a1.94,1.94,0,0,0,1.938-1.938v-10A.947.947,0,0,0,59.871,43.754Zm-2.077-.741H48.889V34.885h7.064a.939.939,0,0,0,.1-.005Zm-19.909,0V34.885h9.128v8.127Zm-31.947,0a.062.062,0,0,1-.062-.062v-8a.062.062,0,0,1,.062-.062H15v8.127H5.939ZM16.88,34.885h9.128v8.127H16.88Zm11,0h3.126v8.127H27.883V34.885Zm8.127,10v9.128H27.883V44.888Zm-3.126-1.876V34.885H36.01v8.127ZM29.946,1.875a13.055,13.055,0,0,1,8.312,23.132H21.634A13.055,13.055,0,0,1,29.946,1.875ZM17.793,27.708a2.073,2.073,0,0,1,1.65-.825H46.451a2.072,2.072,0,0,1,1.65.825l.975,1.3H16.817Zm.15,30.309a4.064,4.064,0,1,1,4.064-4.064A4.068,4.068,0,0,1,17.943,58.017Zm0-10a5.945,5.945,0,0,0-5.937,5.833l-9.243-1.54a1.059,1.059,0,0,1-.888-1.048V30.946a.062.062,0,0,1,.062-.062h52.4a1.068,1.068,0,0,1,1.039.84l.276,1.285H5.939A1.94,1.94,0,0,0,4,34.948v8a1.94,1.94,0,0,0,1.938,1.938H26.007v9.128H23.88c0-.021,0-.042,0-.062A5.946,5.946,0,0,0,17.943,48.014Zm32.009,10a4.064,4.064,0,1,1,4.064-4.064A4.068,4.068,0,0,1,49.952,58.017Zm8-4H55.889c0-.021,0-.042,0-.062a5.939,5.939,0,0,0-11.878,0c0,.021,0,.042,0,.062H37.886V44.888H58.017v9.065A.063.063,0,0,1,57.954,54.015Z"/>
      <path id="Trazado_1048320" data-name="Trazado 1048320" d="M412.393,444.66a1.938,1.938,0,1,0,1.938,1.938A1.94,1.94,0,0,0,412.393,444.66Z" transform="translate(-362.441 -392.645)"/>
      <path id="Trazado_1048321" data-name="Trazado 1048321" d="M138.757,444.66A1.938,1.938,0,1,0,140.7,446.6,1.94,1.94,0,0,0,138.757,444.66Z" transform="translate(-120.814 -392.645)"/>
      <path id="Trazado_1048322" data-name="Trazado 1048322" d="M197.612,80.943a.934.934,0,0,0,.663-.275l1.784-1.784a5.891,5.891,0,0,0,3.451,1.106,6.081,6.081,0,0,0,4.307-1.79c3.919-3.919,2.77-10.115,2.719-10.377a.938.938,0,0,0-.742-.742c-.262-.051-6.458-1.2-10.377,2.719a6.023,6.023,0,0,0-.685,7.758l-1.784,1.784a.938.938,0,0,0,.663,1.6Zm3.132-9.816a8.58,8.58,0,0,1,5.488-2.31c.416-.037.811-.051,1.173-.051a13.708,13.708,0,0,1,1.378.069c.158,1.546.263,5.483-2.292,8.039a4.156,4.156,0,0,1-5.079.658l3.866-3.866a.938.938,0,0,0-1.326-1.326l-3.866,3.866A4.155,4.155,0,0,1,200.743,71.127Z" transform="translate(-173.667 -59.062)"/>
    </g>
  </g>
</svg>
