<svg xmlns="http://www.w3.org/2000/svg" xmlns:xlink="http://www.w3.org/1999/xlink" width="108" height="108" viewBox="0 0 108 108">
  <defs>
    <filter id="Trazado_904820" x="0" y="0" width="108" height="108" filterUnits="userSpaceOnUse">
      <feOffset dy="3" input="SourceAlpha"/>
      <feGaussianBlur stdDeviation="3" result="blur"/>
      <feFlood flood-opacity="0.161"/>
      <feComposite operator="in" in2="blur"/>
      <feComposite in="SourceGraphic"/>
    </filter>
  </defs>
  <g id="Grupo_1208935" data-name="Grupo 1208935" transform="translate(9 6)">
    <g id="Grupo_1208051" data-name="Grupo 1208051" transform="translate(0 0)">
      <g id="Grupo_1173585" data-name="Grupo 1173585">
        <g id="Grupo_1173428" data-name="Grupo 1173428">
          <g id="Grupo_1171958" data-name="Grupo 1171958">
            <g id="Grupo_1167341" data-name="Grupo 1167341">
              <g id="Grupo_1166792" data-name="Grupo 1166792">
                <g transform="matrix(1, 0, 0, 1, -9, -6)" filter="url(#Trazado_904820)">
                  <g id="Trazado_904820-2" data-name="Trazado 904820" transform="translate(9 6)" fill="#fcebe9">
                    <path d="M 44.99999618530273 88.5 C 39.12687301635742 88.5 33.43022155761719 87.35008239746094 28.06829643249512 85.08216857910156 C 22.88852119445801 82.89131927490234 18.23629570007324 79.75459289550781 14.24084663391113 75.75914001464844 C 10.24540901184082 71.76369476318359 7.108683586120605 67.11146545410156 4.917821407318115 61.93170547485352 C 2.649921178817749 56.56976699829102 1.499996185302734 50.87312698364258 1.499996185302734 45.00000381469727 C 1.499996185302734 39.12688064575195 2.649921178817749 33.43022918701172 4.917821407318115 28.06830406188965 C 7.108683586120605 22.88852882385254 10.24540901184082 18.23630332946777 14.24084663391113 14.24085426330566 C 18.23629570007324 10.24541664123535 22.88852119445801 7.108691215515137 28.06829643249512 4.917829036712646 C 33.43022155761719 2.64992880821228 39.12687301635742 1.500003814697266 44.99999618530273 1.500003814697266 C 50.87311935424805 1.500003814697266 56.56977081298828 2.64992880821228 61.93169784545898 4.917829036712646 C 67.11147308349609 7.108691215515137 71.76369476318359 10.24541664123535 75.75914764404297 14.24085426330566 C 79.75458526611328 18.23630332946777 82.89131164550781 22.88852882385254 85.08216857910156 28.06830406188965 C 87.35007476806641 33.43022918701172 88.5 39.12688064575195 88.5 45.00000381469727 C 88.5 50.87312698364258 87.35007476806641 56.56976699829102 85.08216857910156 61.93170547485352 C 82.89131164550781 67.11146545410156 79.75458526611328 71.76369476318359 75.75914764404297 75.75914001464844 C 71.76369476318359 79.75459289550781 67.11147308349609 82.89131927490234 61.93169784545898 85.08216857910156 C 56.56977081298828 87.35008239746094 50.87311935424805 88.5 44.99999618530273 88.5 Z" stroke="none"/>
                    <path d="M 44.99999618530273 3.000007629394531 C 39.32870864868164 3.000007629394531 33.82865142822266 4.110061645507812 28.65262603759766 6.299346923828125 C 23.65165710449219 8.414573669433594 19.15968322753906 11.44334411621094 15.301513671875 15.30152130126953 C 11.44333648681641 19.15969085693359 8.414566040039062 23.65166473388672 6.299339294433594 28.65263366699219 C 4.110054016113281 33.82865905761719 2.999992370605469 39.32871627807617 2.999992370605469 45.00000381469727 C 2.999992370605469 50.67129135131836 4.110054016113281 56.17133331298828 6.299339294433594 61.34737396240234 C 8.414566040039062 66.34834289550781 11.44333648681641 70.84030151367188 15.301513671875 74.698486328125 C 19.15968322753906 78.55666351318359 23.65165710449219 81.58543395996094 28.65262603759766 83.70066070556641 C 33.82865142822266 85.88994598388672 39.32870864868164 87 44.99999618530273 87 C 50.67128372192383 87 56.17134094238281 85.88994598388672 61.34736633300781 83.70066070556641 C 66.34834289550781 81.58543395996094 70.84030914306641 78.55666351318359 74.69847869873047 74.698486328125 C 78.55665588378906 70.84030151367188 81.58542633056641 66.34834289550781 83.70065307617188 61.34737396240234 C 85.88993835449219 56.17133331298828 87 50.67129135131836 87 45.00000381469727 C 87 39.32871627807617 85.88993835449219 33.82865905761719 83.70065307617188 28.65263366699219 C 81.58542633056641 23.65166473388672 78.55665588378906 19.15969085693359 74.69847869873047 15.30152130126953 C 70.84030914306641 11.44334411621094 66.34834289550781 8.414573669433594 61.34736633300781 6.299346923828125 C 56.17134094238281 4.110061645507812 50.67128372192383 3.000007629394531 44.99999618530273 3.000007629394531 M 44.99999618530273 7.62939453125e-06 C 69.85281372070312 7.62939453125e-06 90 20.14718627929688 90 45.00000381469727 C 90 69.85280609130859 69.85281372070312 90 44.99999618530273 90 C 20.14717864990234 90 -7.62939453125e-06 69.85280609130859 -7.62939453125e-06 45.00000381469727 C -7.62939453125e-06 20.14718627929688 20.14717864990234 7.62939453125e-06 44.99999618530273 7.62939453125e-06 Z" stroke="none" fill="#e44b36"/>
                  </g>
                </g>
              </g>
            </g>
          </g>
        </g>
      </g>
    </g>
    <g id="chart_3063599" transform="translate(16.001 15.001)">
      <path id="Trazado_1048347" data-name="Trazado 1048347" d="M280,24h7.187V75.2H280Z" transform="translate(-250.356 -23.102)" fill="#548aff"/>
      <path id="Trazado_1048348" data-name="Trazado 1048348" d="M344,120h7.187v40.424H344Z" transform="translate(-307.169 -108.322)" fill="#639aff"/>
      <path id="Trazado_1048349" data-name="Trazado 1048349" d="M408,208h7.187v30.543H408Z" transform="translate(-363.983 -186.44)" fill="#7dafff"/>
      <path id="Trazado_1048350" data-name="Trazado 1048350" d="M216,184h7.187v33.238H216Z" transform="translate(-193.542 -165.135)" fill="#ffc431"/>
      <path id="Trazado_1048351" data-name="Trazado 1048351" d="M152,224h7.187v28.746H152Z" transform="translate(-136.729 -200.644)" fill="#ffa100"/>
      <path id="Trazado_1048352" data-name="Trazado 1048352" d="M88,264h7.187v24.254H88Z" transform="translate(-79.915 -236.152)" fill="#f5714f"/>
      <path id="Trazado_1048353" data-name="Trazado 1048353" d="M274.153,262.373h11.865a2.152,2.152,0,0,0,1.9-3.173l-5.179-9.618a3.008,3.008,0,0,0-5.3,0l-5.179,9.618a2.152,2.152,0,0,0,1.9,3.173Z" transform="translate(-243.254 -221.949)" fill="#f5714f"/>
      <path id="Trazado_1048354" data-name="Trazado 1048354" d="M16,368h4.492v13.475H16Z" transform="translate(-16 -328.474)" fill="#548aff"/>
      <path id="Trazado_1048355" data-name="Trazado 1048355" d="M56,331.763V318.288l8.4-5.877A2.272,2.272,0,0,1,65.7,312a1.979,1.979,0,0,1,1.52,3.245l-4.033,4.84,1,1.33A16.67,16.67,0,0,0,75.861,328h0a1.886,1.886,0,0,1-.188,3.763Z" transform="translate(-51.508 -278.762)" fill="#ffceb6"/>
      <path id="Trazado_1048356" data-name="Trazado 1048356" d="M276.423,242.054a3.906,3.906,0,0,0-6.879,0l-5.179,9.618a3.051,3.051,0,0,0,2.686,4.5h11.865a3.051,3.051,0,0,0,2.686-4.5Zm2.493,12.319H267.051a1.254,1.254,0,0,1-1.1-1.848l5.179-9.618a2.11,2.11,0,0,1,3.715,0l5.179,9.618a1.254,1.254,0,0,1-1.1,1.848Z" transform="translate(-236.152 -214.847)"/>
      <path id="Trazado_1048357" data-name="Trazado 1048357" d="M336,280h1.8v5.39H336Z" transform="translate(-300.067 -250.356)"/>
      <ellipse id="Elipse_12538" data-name="Elipse 12538" cx="0.5" cy="0.5" rx="0.5" ry="0.5" transform="translate(36 35.999)"/>
      <path id="Trazado_1048358" data-name="Trazado 1048358" d="M68.1,37.56a.9.9,0,0,0-.9-.9H60.916V27.678a.9.9,0,0,0-.9-.9H53.729V16.9a.9.9,0,0,0-.9-.9H45.644a.9.9,0,0,0-.9.9V33.966H38.458a.9.9,0,0,0-.9.9v3.593H31.271a.9.9,0,0,0-.9.9v3.593H24.085a.9.9,0,0,0-.9.9v8.7l-2.978,2.085H16v1.8h3.593V68.1H16v1.8H40.165a2.777,2.777,0,0,0,2.046-.9H69.9V67.2H68.1ZM37.56,40.255V63.778a15.847,15.847,0,0,1-5.39-2.808V53.336l.231-.278a2.873,2.873,0,0,0-.231-3.927V40.255ZM30.373,59.292q-.516-.563-.979-1.178l-.571-.761,1.55-1.86Zm-5.39-14.546h5.39v3.6c-.06,0-.121-.006-.182-.006a3.156,3.156,0,0,0-1.818.573l-3.39,2.373ZM40.165,68.1H21.39V55.994L29.4,50.384a1.368,1.368,0,0,1,.788-.248,1.08,1.08,0,0,1,.83,1.772l-4.033,4.84a.9.9,0,0,0-.029,1.114l1,1.33a17.489,17.489,0,0,0,2.416,2.615v.008h.008a17.617,17.617,0,0,0,9.882,4.317.988.988,0,0,1-.1,1.971Zm20.751-.9V59.119h-1.8V67.2h-5.39V59.119h-1.8V67.2h-5.39V59.119h-1.8V67.2h-1.8c0-.03,0-.06,0-.09a2.776,2.776,0,0,0-2.508-2.771c-.365-.036-.727-.087-1.086-.148V35.763h5.39v9.881h1.8V17.8h5.39V38.458h1.8V28.576h5.39V46.543h1.8V38.458h5.39V67.2Z" transform="translate(-16 -16)"/>
    </g>
  </g>
</svg>
