<svg xmlns="http://www.w3.org/2000/svg" width="295" height="132.83" viewBox="0 0 295 132.83">
  <g id="Grupo_1208904" data-name="Grupo 1208904" transform="translate(-1125 -281.17)">
    <g id="Grupo_1174984" data-name="Grupo 1174984">
      <rect id="Rectángulo_414503" data-name="Rectángulo 414503" width="295" height="87" transform="translate(1125 310)" fill="#292584"/>
      <rect id="Rectángulo_414504" data-name="Rectángulo 414504" width="243" height="121" transform="translate(1151 293)" fill="#fcba3d"/>
    </g>
    <g id="road_15132570" transform="translate(1206 281.17)">
      <path id="Trazado_1048240" data-name="Trazado 1048240" d="M43,38H56.283V82.277a2.214,2.214,0,0,1-2.214,2.214H45.214A2.214,2.214,0,0,1,43,82.277Z" transform="translate(52.195 46.126)" fill="#c4ddf0"/>
      <path id="Trazado_1048241" data-name="Trazado 1048241" d="M20.925,38A19.925,19.925,0,0,0,1,57.925V77.849a6.642,6.642,0,0,0,6.642,6.642H69.629a6.641,6.641,0,0,0,6.642-6.641V57.925A19.925,19.925,0,0,0,56.346,38Z" transform="translate(1.214 46.126)" fill="#54a5c1"/>
      <g id="Grupo_1208903" data-name="Grupo 1208903" transform="translate(4.406 35.421)">
        <path id="Trazado_1048242" data-name="Trazado 1048242" d="M31.711,34v8.855a8.855,8.855,0,1,1-17.711,0V34Z" transform="translate(12.588 5.85)" fill="#916d59"/>
        <path id="Trazado_1048243" data-name="Trazado 1048243" d="M10.867,33.711A8.76,8.76,0,0,1,2.5,27.866,8.9,8.9,0,0,1,10.867,16h2.214V33.711Z" transform="translate(-1.99 -15.999)" fill="#916d59"/>
        <path id="Trazado_1048244" data-name="Trazado 1048244" d="M31.214,16a8.76,8.76,0,0,1,8.368,5.845,8.9,8.9,0,0,1-8.368,11.866H29V16Z" transform="translate(30.796 -16)" fill="#916d59"/>
      </g>
      <path id="Trazado_1048245" data-name="Trazado 1048245" d="M65.987,25.352V29.78H4V25.352C4,15.545,12.7,5.715,23.925,3.634a22.581,22.581,0,0,1,4.428-.421A2.214,2.214,0,0,1,30.566,1h8.855a2.214,2.214,0,0,1,2.214,2.214,22.581,22.581,0,0,1,4.428.421,25.568,25.568,0,0,1,12.73,6.487A21.452,21.452,0,0,1,65.987,25.352Z" transform="translate(4.855 1.214)" fill="#fcd066"/>
      <path id="Trazado_1048246" data-name="Trazado 1048246" d="M6,14V33.925a26.566,26.566,0,1,0,53.132,0V14Z" transform="translate(7.283 16.994)" fill="#9e7c65"/>
      <rect id="Rectángulo_418185" data-name="Rectángulo 418185" width="75" height="9" rx="1" transform="translate(2 26.83)" fill="#e0b75b"/>
      <path id="Trazado_1048247" data-name="Trazado 1048247" d="M90.56,32.563V53a4.12,4.12,0,0,1-1.2,2.909l-14.45,14.45A4.12,4.12,0,0,1,72,71.56H51.563a4.12,4.12,0,0,1-2.909-1.2L34.2,55.906A4.12,4.12,0,0,1,33,53V32.563a4.12,4.12,0,0,1,1.2-2.909L48.654,15.2A4.12,4.12,0,0,1,51.563,14H72a4.12,4.12,0,0,1,2.909,1.2l14.45,14.45A4.12,4.12,0,0,1,90.56,32.563Z" transform="translate(40.057 16.994)" fill="#f8647a"/>
      <path id="Trazado_1048248" data-name="Trazado 1048248" d="M48.025,57.2,37.649,46.824A2.214,2.214,0,0,1,37,45.259V30.59a2.214,2.214,0,0,1,.648-1.565L48.025,18.649A2.214,2.214,0,0,1,49.59,18H64.259a2.214,2.214,0,0,1,1.565.648L76.2,29.025a2.214,2.214,0,0,1,.649,1.565V45.259a2.214,2.214,0,0,1-.648,1.565L65.824,57.2a2.214,2.214,0,0,1-1.565.649H49.59a2.214,2.214,0,0,1-1.565-.648Z" transform="translate(44.912 21.849)" fill="#e4f1ff"/>
      <path id="Trazado_1048249" data-name="Trazado 1048249" d="M37.5,39.151V84.491H22V38h8.855A19.481,19.481,0,0,1,37.5,39.151Z" transform="translate(26.704 46.126)" fill="#fcd066"/>
      <path id="Trazado_1048250" data-name="Trazado 1048250" d="M22.5,38V84.491H7V39.151A19.481,19.481,0,0,1,13.642,38Z" transform="translate(8.497 46.126)" fill="#fcd066"/>
      <path id="Trazado_1048251" data-name="Trazado 1048251" d="M116.527,30.633a6.283,6.283,0,0,0-4.474-1.853H91.62a6.283,6.283,0,0,0-4.474,1.853L76.9,40.883a10.956,10.956,0,0,0-2.015-3.653,4.428,4.428,0,0,0,2.6-4.023V28.78a4.428,4.428,0,0,0-4.428-4.428h-.131C71.631,13.008,60.577,3.084,48.131,2.267A4.428,4.428,0,0,0,44.277,0H35.421a4.428,4.428,0,0,0-3.866,2.268A27.843,27.843,0,0,0,9.2,16.679a2.214,2.214,0,0,0,3.918,2.063A23.259,23.259,0,0,1,30.994,6.8v6.48a2.214,2.214,0,1,0,4.428,0V4.428h8.855v8.855a2.214,2.214,0,0,0,4.428,0V6.757a22.251,22.251,0,0,1,19.736,17.6H6.642A4.428,4.428,0,0,0,2.214,28.78v4.428a4.428,4.428,0,0,0,2.6,4.023,10.974,10.974,0,0,0,6.6,17.932A28.84,28.84,0,0,0,28.78,77.484v4.428H22.138a21.961,21.961,0,0,0-7.423,1.308c-.042.015-.084.027-.124.044A22.158,22.158,0,0,0,0,104.05v19.925a8.855,8.855,0,0,0,8.855,8.855H70.843a8.855,8.855,0,0,0,8.855-8.855V104.05A22.158,22.158,0,0,0,65.107,83.265c-.04-.018-.082-.029-.124-.044a21.961,21.961,0,0,0-7.423-1.308H50.918V77.484A28.842,28.842,0,0,0,68.279,55.178a11.032,11.032,0,0,0,2.564-.768V69.99A6.283,6.283,0,0,0,72.7,74.465l14.45,14.45a6.283,6.283,0,0,0,4.474,1.853h1.362V128.4a4.428,4.428,0,0,0,4.428,4.428h8.855a4.428,4.428,0,0,0,4.428-4.428V90.767h1.362a6.283,6.283,0,0,0,4.474-1.853l14.45-14.45a6.283,6.283,0,0,0,1.853-4.474V49.557a6.283,6.283,0,0,0-1.853-4.474ZM72.694,45.083a6.25,6.25,0,0,0-1.811,4.045,6.6,6.6,0,0,1-2.254,1.37V38.043a6.642,6.642,0,0,1,4.428,6.234c0,.168-.031.325-.042.489ZM6.642,28.78H73.057v4.428H6.642Zm0,15.5a6.642,6.642,0,0,1,4.428-6.234V50.511a6.642,6.642,0,0,1-4.428-6.234Zm55.346,67.345-11.069,6.325V105.328L61.987,99ZM46.491,128.4H33.208V92.924a10.848,10.848,0,0,0,13.283,0Zm-28.78-23.068L28.78,99.009v12.619l-11.069,6.318ZM28.78,86.34v7.571l-11.069,6.325V86.922a17.607,17.607,0,0,1,4.428-.582ZM4.428,123.975V104.05a17.711,17.711,0,0,1,8.855-15.315V128.4H8.855A4.428,4.428,0,0,1,4.428,123.975Zm13.283-.93L28.78,116.72V128.4H17.711ZM50.918,128.4v-5.357l11.069-6.325V128.4ZM75.27,104.05v19.925a4.428,4.428,0,0,1-4.428,4.428H66.415V88.735A17.711,17.711,0,0,1,75.27,104.05ZM61.987,86.922v6.989l-11.069,6.325V86.34H57.56A17.606,17.606,0,0,1,61.987,86.922Zm-15.5-2.8a6.642,6.642,0,1,1-13.283,0V78.894a27.846,27.846,0,0,0,13.283,0ZM39.849,75.27A24.381,24.381,0,0,1,15.5,50.918V37.635H64.2V50.918A24.381,24.381,0,0,1,39.849,75.27ZM106.264,128.4H97.409V90.767h8.855ZM128.4,69.99a1.886,1.886,0,0,1-.556,1.344L113.4,85.784a1.886,1.886,0,0,1-1.344.556H91.62a1.886,1.886,0,0,1-1.344-.556l-14.45-14.45a1.886,1.886,0,0,1-.556-1.344V49.557a1.886,1.886,0,0,1,.556-1.344l14.45-14.45a1.886,1.886,0,0,1,1.344-.556h20.434a1.886,1.886,0,0,1,1.344.556l14.45,14.45a1.886,1.886,0,0,1,.556,1.344Z" transform="translate(0 0)" fill="#0b0a0a"/>
      <path id="Trazado_1048252" data-name="Trazado 1048252" d="M68.605,18.3A4.465,4.465,0,0,0,65.473,17H50.8a4.465,4.465,0,0,0-3.133,1.3L37.3,28.671A4.465,4.465,0,0,0,36,31.8V46.473a4.465,4.465,0,0,0,1.3,3.133L47.671,59.979a4.465,4.465,0,0,0,3.133,1.3H65.473a4.465,4.465,0,0,0,3.133-1.3L78.979,49.605a4.465,4.465,0,0,0,1.3-3.133V31.8a4.465,4.465,0,0,0-1.3-3.133Zm7.244,28.175L65.473,56.849H50.8L40.428,46.473V31.8L50.8,21.428H65.473L75.849,31.8Z" transform="translate(43.698 20.635)" fill="#0b0a0a"/>
      <path id="Trazado_1048253" data-name="Trazado 1048253" d="M33.917,27.254a2.227,2.227,0,0,0-2.978.93,7.509,7.509,0,0,1-6.889,3.232,7.527,7.527,0,0,1-6.887-3.228,2.214,2.214,0,0,0-3.949,1.992A11.769,11.769,0,0,0,24.05,35.844,11.769,11.769,0,0,0,34.9,30.192a2.2,2.2,0,0,0-.981-2.938Z" transform="translate(15.799 32.785)" fill="#0b0a0a"/>
    </g>
  </g>
</svg>
