<svg xmlns="http://www.w3.org/2000/svg" xmlns:xlink="http://www.w3.org/1999/xlink" width="113" height="113" viewBox="0 0 113 113">
  <defs>
    <filter id="Trazado_982547" x="0" y="0" width="113" height="113" filterUnits="userSpaceOnUse">
      <feOffset dy="3" input="SourceAlpha"/>
      <feGaussianBlur stdDeviation="3" result="blur"/>
      <feFlood flood-opacity="0.161"/>
      <feComposite operator="in" in2="blur"/>
      <feComposite in="SourceGraphic"/>
    </filter>
  </defs>
  <g id="Grupo_1208971" data-name="Grupo 1208971" transform="translate(-793.49 -3343)">
    <g id="Grupo_1208891" data-name="Grupo 1208891" transform="translate(0 -2284.425)">
      <g id="Grupo_1177675" data-name="Grupo 1177675" transform="translate(-4493 3707.152)">
        <g id="Grupo_1176928" data-name="Grupo 1176928" transform="translate(5295.49 1926.273)">
          <g id="Grupo_1172322" data-name="Grupo 1172322" transform="translate(0 0)">
            <g id="Grupo_1164700" data-name="Grupo 1164700">
              <g id="Grupo_1160931" data-name="Grupo 1160931">
                <g id="Grupo_1160749" data-name="Grupo 1160749">
                  <g id="Grupo_1158891" data-name="Grupo 1158891">
                    <g id="Grupo_1157406" data-name="Grupo 1157406">
                      <g id="Grupo_1155793" data-name="Grupo 1155793">
                        <g id="Grupo_1154704" data-name="Grupo 1154704">
                          <g id="Grupo_1150790" data-name="Grupo 1150790">
                            <g id="Grupo_1154214" data-name="Grupo 1154214">
                              <g id="Grupo_1152583" data-name="Grupo 1152583">
                                <g id="Grupo_1146973" data-name="Grupo 1146973">
                                  <g id="Grupo_1146954" data-name="Grupo 1146954">
                                    <g transform="matrix(1, 0, 0, 1, -9, -6)" filter="url(#Trazado_982547)">
                                      <g id="Trazado_982547-2" data-name="Trazado 982547" transform="translate(9 6)" fill="#fcebe9">
                                        <path d="M 47.5000114440918 93.49987030029297 C 41.28938293457031 93.49987030029297 35.26534652709961 92.28384399414062 29.5951976776123 89.88558959960938 C 24.11773109436035 87.56881713867188 19.19814491271973 84.25183868408203 14.97310447692871 80.02680206298828 C 10.74805164337158 75.80176544189453 7.43107795715332 70.88218688964844 5.114304542541504 65.40472412109375 C 2.716038227081299 59.73458862304688 1.500011444091797 53.71054840087891 1.500011444091797 47.49993515014648 C 1.500011444091797 41.28932189941406 2.716038227081299 35.26528167724609 5.114304542541504 29.59514808654785 C 7.43107795715332 24.1176815032959 10.74805164337158 19.1981086730957 14.97310447692871 14.97306823730469 C 19.19814491271973 10.74802875518799 24.11773109436035 7.431055068969727 29.5951976776123 5.11428165435791 C 35.26534652709961 2.716028451919556 41.28938293457031 1.500001788139343 47.5000114440918 1.500001788139343 C 53.71063995361328 1.500001788139343 59.73467636108398 2.716028451919556 65.40482330322266 5.11428165435791 C 70.88229370117188 7.431055068969727 75.8018798828125 10.74802875518799 80.02691650390625 14.97306823730469 C 84.25196838378906 19.1981086730957 87.56894683837891 24.1176815032959 89.88571929931641 29.59514808654785 C 92.28398132324219 35.26528167724609 93.50001525878906 41.28932189941406 93.50001525878906 47.49993515014648 C 93.50001525878906 53.71054840087891 92.28398132324219 59.73458862304688 89.88571929931641 65.40472412109375 C 87.56894683837891 70.88218688964844 84.25196838378906 75.80176544189453 80.02691650390625 80.02680206298828 C 75.8018798828125 84.25183868408203 70.88229370117188 87.56881713867188 65.40482330322266 89.88558959960938 C 59.73467636108398 92.28384399414062 53.71063995361328 93.49987030029297 47.5000114440918 93.49987030029297 Z" stroke="none"/>
                                        <path d="M 47.5000114440918 3 C 41.49122619628906 3 35.66378021240234 4.1761474609375 30.17951965332031 6.495796203613281 C 24.880859375 8.7369384765625 20.12153625488281 11.94596862792969 16.03376770019531 16.03373718261719 C 11.94598388671875 20.12149047851562 8.736968994140625 24.88081359863281 6.495811462402344 30.17947387695312 C 4.176162719726562 35.66371917724609 3.000007629394531 41.49116516113281 3.000007629394531 47.49993515014648 C 3.000007629394531 53.50870513916016 4.176162719726562 59.33615112304688 6.495811462402344 64.82039642333984 C 8.736968994140625 70.11905670166016 11.94598388671875 74.87837982177734 16.03376770019531 78.96613311767578 C 20.12153625488281 83.05390167236328 24.880859375 86.26293182373047 30.17951965332031 88.50407409667969 C 35.66378021240234 90.82372283935547 41.49122619628906 91.99987030029297 47.5000114440918 91.99987030029297 C 53.50879669189453 91.99987030029297 59.33624267578125 90.82372283935547 64.82050323486328 88.50407409667969 C 70.11916351318359 86.26293182373047 74.87848663330078 83.05390167236328 78.96625518798828 78.96613311767578 C 83.05403900146484 74.87837982177734 86.2630615234375 70.11905670166016 88.50421142578125 64.82039642333984 C 90.82386016845703 59.33615112304688 92.00001525878906 53.50870513916016 92.00001525878906 47.49993515014648 C 92.00001525878906 41.49116516113281 90.82386016845703 35.66371917724609 88.50421142578125 30.17947387695312 C 86.2630615234375 24.88081359863281 83.05403900146484 20.12149047851562 78.96625518798828 16.03373718261719 C 74.87848663330078 11.94596862792969 70.11916351318359 8.7369384765625 64.82050323486328 6.495796203613281 C 59.33624267578125 4.1761474609375 53.50879669189453 3 47.5000114440918 3 M 47.5000114440918 0 C 73.73353576660156 0 95.00001525878906 21.26644134521484 95.00001525878906 47.49993515014648 C 95.00001525878906 73.73342895507812 73.73353576660156 94.99987030029297 47.5000114440918 94.99987030029297 C 21.26648712158203 94.99987030029297 7.62939453125e-06 73.73342895507812 7.62939453125e-06 47.49993515014648 C 7.62939453125e-06 21.26644134521484 21.26648712158203 0 47.5000114440918 0 Z" stroke="none" fill="#e44b36"/>
                                      </g>
                                    </g>
                                  </g>
                                </g>
                              </g>
                            </g>
                          </g>
                        </g>
                      </g>
                    </g>
                  </g>
                </g>
              </g>
            </g>
          </g>
        </g>
      </g>
    </g>
    <g id="disability_2395111" transform="translate(817.442 3364.442)">
      <g id="Grupo_1208937" data-name="Grupo 1208937" transform="translate(32.465 1.953)">
        <path id="Trazado_1048359" data-name="Trazado 1048359" d="M35.907,38.232H58.79A1.906,1.906,0,0,0,60.7,36.325V3.907A1.906,1.906,0,0,0,58.79,2H35.907A1.906,1.906,0,0,0,34,3.907V36.325A1.906,1.906,0,0,0,35.907,38.232Z" transform="translate(-34 -2)" fill="#4d5d7a"/>
      </g>
      <g id="Grupo_1208938" data-name="Grupo 1208938" transform="translate(32.465 1.953)">
        <path id="Trazado_1048360" data-name="Trazado 1048360" d="M34,3.907V32.485c.317.016.634.027.953.027,11.585,0,20.977-10.245,20.977-22.884A24.719,24.719,0,0,0,54.732,2H35.907A1.906,1.906,0,0,0,34,3.907Z" transform="translate(-34 -2)" fill="#8892a0"/>
      </g>
      <g id="Grupo_1208939" data-name="Grupo 1208939" transform="translate(43.907 42)">
        <path id="Trazado_1048361" data-name="Trazado 1048361" d="M46,44h3.814V61.163H46Z" transform="translate(-46 -44)" fill="#c18e59"/>
      </g>
      <g id="Grupo_1208940" data-name="Grupo 1208940" transform="translate(42 38.186)">
        <path id="Trazado_1048362" data-name="Trazado 1048362" d="M44,40v3.814h7.628V40" transform="translate(-44 -40)" fill="#976947"/>
      </g>
      <g id="Grupo_1208941" data-name="Grupo 1208941" transform="translate(39.139 15.302)">
        <path id="Trazado_1048363" data-name="Trazado 1048363" d="M50.535,27.442H41V16h3.814v7.628h7.628L59.116,30.3l-2.86,2.86Z" transform="translate(-41 -16)" fill="#78b75b"/>
      </g>
      <g id="Grupo_1208942" data-name="Grupo 1208942" transform="translate(38.186 7.674)">
        <ellipse id="Elipse_12539" data-name="Elipse 12539" cx="2.5" cy="3" rx="2.5" ry="3" transform="translate(0.372 -0.116)" fill="#efbe9a"/>
      </g>
      <g id="Grupo_1208943" data-name="Grupo 1208943" transform="translate(1.953 47.72)">
        <path id="Trazado_1048364" data-name="Trazado 1048364" d="M2,50H32.511v7.628H2Z" transform="translate(-2 -50)" fill="#4472b2"/>
      </g>
      <g id="Grupo_1208944" data-name="Grupo 1208944" transform="translate(5.767 49.627)">
        <circle id="Elipse_12540" data-name="Elipse 12540" cx="2" cy="2" r="2" transform="translate(-0.21 -0.07)" fill="#f9d18b"/>
      </g>
      <g id="Grupo_1208945" data-name="Grupo 1208945" transform="translate(24.837 49.627)">
        <circle id="Elipse_12541" data-name="Elipse 12541" cx="2" cy="2" r="2" transform="translate(-0.279 -0.07)" fill="#f9d18b"/>
      </g>
      <g id="Grupo_1208946" data-name="Grupo 1208946" transform="translate(3.86 36.279)">
        <path id="Trazado_1048365" data-name="Trazado 1048365" d="M4,49.442,5.907,38H28.79L30.7,49.442" transform="translate(-4 -38)" fill="#c7e2fc"/>
      </g>
      <g id="Grupo_1208947" data-name="Grupo 1208947" transform="translate(4.457 36.279)">
        <path id="Trazado_1048366" data-name="Trazado 1048366" d="M5.936,38l-1.31,7.858a22.046,22.046,0,0,0,5.6.724c7.372,0,13.681-3.548,16.317-8.581Z" transform="translate(-4.626 -38)" fill="#ebf7fe"/>
      </g>
      <g id="Grupo_1208948" data-name="Grupo 1208948" transform="translate(3.86 55.348)">
        <path id="Trazado_1048367" data-name="Trazado 1048367" d="M4,58v3.814H9.721V58" transform="translate(-4 -58)" fill="#8892a0"/>
      </g>
      <g id="Grupo_1208949" data-name="Grupo 1208949" transform="translate(24.837 55.348)">
        <path id="Trazado_1048368" data-name="Trazado 1048368" d="M26,58v3.814h5.721V58" transform="translate(-26 -58)" fill="#8892a0"/>
      </g>
      <g id="Grupo_1208950" data-name="Grupo 1208950" transform="translate(7.674 43.907)">
        <path id="Trazado_1048369" data-name="Trazado 1048369" d="M13.721,49.814V46H8v3.814" transform="translate(-8 -46)" fill="#8892a0"/>
      </g>
      <g id="Grupo_1208951" data-name="Grupo 1208951" transform="translate(21.023 43.907)">
        <path id="Trazado_1048370" data-name="Trazado 1048370" d="M27.721,49.814V46H22v3.814" transform="translate(-22 -46)" fill="#8892a0"/>
      </g>
      <g id="Grupo_1208952" data-name="Grupo 1208952" transform="translate(1 46.767)">
        <path id="Trazado_1048371" data-name="Trazado 1048371" d="M32.465,58.535H1.953A.953.953,0,0,1,1,57.581V49.953A.953.953,0,0,1,1.953,49H32.465a.953.953,0,0,1,.953.953v7.628A.953.953,0,0,1,32.465,58.535ZM2.907,56.628h28.6V50.907H2.907Z" transform="translate(-1 -49)"/>
      </g>
      <g id="Grupo_1208953" data-name="Grupo 1208953" transform="translate(4.814 48.674)">
        <path id="Trazado_1048372" data-name="Trazado 1048372" d="M7.86,56.721a2.86,2.86,0,1,1,2.86-2.86A2.864,2.864,0,0,1,7.86,56.721Zm0-3.814a.953.953,0,1,0,.953.953A.954.954,0,0,0,7.86,52.907Z" transform="translate(-5 -51)"/>
      </g>
      <g id="Grupo_1208954" data-name="Grupo 1208954" transform="translate(23.884 48.674)">
        <path id="Trazado_1048373" data-name="Trazado 1048373" d="M27.86,56.721a2.86,2.86,0,1,1,2.86-2.86A2.864,2.864,0,0,1,27.86,56.721Zm0-3.814a.953.953,0,1,0,.953.953A.954.954,0,0,0,27.86,52.907Z" transform="translate(-25 -51)"/>
      </g>
      <g id="Grupo_1208955" data-name="Grupo 1208955" transform="translate(2.907 55.348)">
        <path id="Trazado_1048374" data-name="Trazado 1048374" d="M9.674,62.767H3.953A.953.953,0,0,1,3,61.814V58H4.907v2.86H8.721V58h1.907v3.814A.953.953,0,0,1,9.674,62.767Z" transform="translate(-3 -58)"/>
      </g>
      <g id="Grupo_1208956" data-name="Grupo 1208956" transform="translate(23.884 55.348)">
        <path id="Trazado_1048375" data-name="Trazado 1048375" d="M31.674,62.767H25.953A.953.953,0,0,1,25,61.814V58h1.907v2.86h3.814V58h1.907v3.814A.953.953,0,0,1,31.674,62.767Z" transform="translate(-25 -58)"/>
      </g>
      <g id="Grupo_1208957" data-name="Grupo 1208957" transform="translate(2.92 35.325)">
        <path id="Trazado_1048376" data-name="Trazado 1048376" d="M29.711,49.553,27.937,38.907H6.669L4.9,49.553l-1.881-.314L4.921,37.8a.953.953,0,0,1,.94-.8H28.745a.953.953,0,0,1,.94.8l1.907,11.442Z" transform="translate(-3.014 -37)"/>
      </g>
      <g id="Grupo_1208958" data-name="Grupo 1208958" transform="translate(6.721 42.953)">
        <path id="Trazado_1048377" data-name="Trazado 1048377" d="M14.628,49.767H12.721v-2.86H8.907v2.86H7V45.953A.953.953,0,0,1,7.953,45h5.721a.953.953,0,0,1,.953.953Z" transform="translate(-7 -45)"/>
      </g>
      <g id="Grupo_1208959" data-name="Grupo 1208959" transform="translate(8.628 39.139)">
        <path id="Trazado_1048378" data-name="Trazado 1048378" d="M9,41h3.814v1.907H9Z" transform="translate(-9 -41)"/>
      </g>
      <g id="Grupo_1208960" data-name="Grupo 1208960" transform="translate(20.07 42.953)">
        <path id="Trazado_1048379" data-name="Trazado 1048379" d="M28.628,49.767H26.721v-2.86H22.907v2.86H21V45.953A.953.953,0,0,1,21.953,45h5.721a.953.953,0,0,1,.953.953Z" transform="translate(-21 -45)"/>
      </g>
      <g id="Grupo_1208961" data-name="Grupo 1208961" transform="translate(21.977 39.139)">
        <path id="Trazado_1048380" data-name="Trazado 1048380" d="M23,41h3.814v1.907H23Z" transform="translate(-23 -41)"/>
      </g>
      <g id="Grupo_1208962" data-name="Grupo 1208962" transform="translate(31.511 1)">
        <path id="Trazado_1048381" data-name="Trazado 1048381" d="M58.744,39.139H35.86A2.864,2.864,0,0,1,33,36.279V3.86A2.864,2.864,0,0,1,35.86,1H58.744A2.864,2.864,0,0,1,61.6,3.86V36.279A2.864,2.864,0,0,1,58.744,39.139ZM35.86,2.907a.954.954,0,0,0-.953.953V36.279a.954.954,0,0,0,.953.953H58.744a.954.954,0,0,0,.953-.953V3.86a.954.954,0,0,0-.953-.953Z" transform="translate(-33 -1)"/>
      </g>
      <g id="Grupo_1208963" data-name="Grupo 1208963" transform="translate(38.186 14.349)">
        <path id="Trazado_1048382" data-name="Trazado 1048382" d="M56.209,34.07a.951.951,0,0,1-.674-.279l-5.442-5.442h-9.14A.953.953,0,0,1,40,27.4V15.953A.953.953,0,0,1,40.953,15h3.814a.953.953,0,0,1,.953.953v6.674H52.4a.949.949,0,0,1,.674.279l6.674,6.674a.952.952,0,0,1,0,1.348l-2.86,2.86A.951.951,0,0,1,56.209,34.07Zm-14.3-7.628h8.581a.949.949,0,0,1,.674.279l5.047,5.047,1.512-1.512L52,24.535H44.767a.953.953,0,0,1-.953-.953V16.907H41.907Z" transform="translate(-40 -15)"/>
      </g>
      <g id="Grupo_1208964" data-name="Grupo 1208964" transform="translate(37.232 6.721)">
        <path id="Trazado_1048383" data-name="Trazado 1048383" d="M42.814,14.628a3.814,3.814,0,1,1,3.814-3.814A3.818,3.818,0,0,1,42.814,14.628Zm0-5.721a1.907,1.907,0,1,0,1.907,1.907A1.909,1.909,0,0,0,42.814,8.907Z" transform="translate(-39 -7)"/>
      </g>
      <g id="Grupo_1208965" data-name="Grupo 1208965" transform="translate(41.046 18.163)">
        <path id="Trazado_1048384" data-name="Trazado 1048384" d="M43,19h8.581v1.907H43Z" transform="translate(-43 -19)"/>
      </g>
      <g id="Grupo_1208966" data-name="Grupo 1208966" transform="translate(33.418 17.248)">
        <path id="Trazado_1048385" data-name="Trazado 1048385" d="M44.535,36.118A9.536,9.536,0,0,1,40.3,18.041l.85,1.708a7.629,7.629,0,1,0,10.471,9.677l1.769.711A9.494,9.494,0,0,1,44.535,36.118Z" transform="translate(-35 -18.041)"/>
      </g>
      <g id="Grupo_1208967" data-name="Grupo 1208967" transform="translate(47.72 4.814)">
        <path id="Trazado_1048386" data-name="Trazado 1048386" d="M51.907,16.442H50V5.953A.953.953,0,0,1,50.953,5h4.767a3.814,3.814,0,0,1,0,7.628H51.907Zm0-5.721h3.814a1.907,1.907,0,1,0,0-3.814H51.907Z" transform="translate(-50 -5)"/>
      </g>
      <g id="Grupo_1208968" data-name="Grupo 1208968" transform="translate(42.953 42)">
        <path id="Trazado_1048387" data-name="Trazado 1048387" d="M45,44h1.907V62.116H45Z" transform="translate(-45 -44)"/>
      </g>
      <g id="Grupo_1208969" data-name="Grupo 1208969" transform="translate(46.767 42)">
        <path id="Trazado_1048388" data-name="Trazado 1048388" d="M49,44h1.907V62.116H49Z" transform="translate(-49 -44)"/>
      </g>
      <g id="Grupo_1208970" data-name="Grupo 1208970" transform="translate(41.046 38.186)">
        <path id="Trazado_1048389" data-name="Trazado 1048389" d="M51.581,44.767H43.953A.953.953,0,0,1,43,43.814V40h1.907v2.86h5.721V40h1.907v3.814A.953.953,0,0,1,51.581,44.767Z" transform="translate(-43 -40)"/>
      </g>
    </g>
  </g>
</svg>
