<svg xmlns="http://www.w3.org/2000/svg" xmlns:xlink="http://www.w3.org/1999/xlink" width="113" height="113" viewBox="0 0 113 113">
  <defs>
    <filter id="Trazado_982547" x="0" y="0" width="113" height="113" filterUnits="userSpaceOnUse">
      <feOffset dy="3" input="SourceAlpha"/>
      <feGaussianBlur stdDeviation="3" result="blur"/>
      <feFlood flood-opacity="0.161"/>
      <feComposite operator="in" in2="blur"/>
      <feComposite in="SourceGraphic"/>
    </filter>
  </defs>
  <g id="Grupo_1208975" data-name="Grupo 1208975" transform="translate(-8678 -3343)">
    <g id="Grupo_1208893" data-name="Grupo 1208893" transform="translate(7566 -2284.425)">
      <g id="Grupo_1202104" data-name="Grupo 1202104" transform="translate(0 -1149.226)">
        <g id="Grupo_1201923" data-name="Grupo 1201923" transform="translate(-4174.49 4856.378)">
          <g id="Grupo_1176928" data-name="Grupo 1176928" transform="translate(5295.49 1926.273)">
            <g id="Grupo_1172322" data-name="Grupo 1172322" transform="translate(0 0)">
              <g id="Grupo_1164700" data-name="Grupo 1164700">
                <g id="Grupo_1160931" data-name="Grupo 1160931">
                  <g id="Grupo_1160749" data-name="Grupo 1160749">
                    <g id="Grupo_1158891" data-name="Grupo 1158891">
                      <g id="Grupo_1157406" data-name="Grupo 1157406">
                        <g id="Grupo_1155793" data-name="Grupo 1155793">
                          <g id="Grupo_1154704" data-name="Grupo 1154704">
                            <g id="Grupo_1150790" data-name="Grupo 1150790">
                              <g id="Grupo_1154214" data-name="Grupo 1154214">
                                <g id="Grupo_1152583" data-name="Grupo 1152583">
                                  <g id="Grupo_1146973" data-name="Grupo 1146973">
                                    <g id="Grupo_1146954" data-name="Grupo 1146954">
                                      <g transform="matrix(1, 0, 0, 1, -9, -6)" filter="url(#Trazado_982547)">
                                        <g id="Trazado_982547-2" data-name="Trazado 982547" transform="translate(9 6)" fill="#fcebe9">
                                          <path d="M 47.5000114440918 93.49987030029297 C 41.28938293457031 93.49987030029297 35.26534652709961 92.28384399414062 29.5951976776123 89.88558959960938 C 24.11773109436035 87.56881713867188 19.19814491271973 84.25183868408203 14.97310447692871 80.02680206298828 C 10.74805164337158 75.80176544189453 7.43107795715332 70.88218688964844 5.114304542541504 65.40472412109375 C 2.716038227081299 59.73458862304688 1.500011444091797 53.71054840087891 1.500011444091797 47.49993515014648 C 1.500011444091797 41.28932189941406 2.716038227081299 35.26528167724609 5.114304542541504 29.59514808654785 C 7.43107795715332 24.1176815032959 10.74805164337158 19.1981086730957 14.97310447692871 14.97306823730469 C 19.19814491271973 10.74802875518799 24.11773109436035 7.431055068969727 29.5951976776123 5.11428165435791 C 35.26534652709961 2.716028451919556 41.28938293457031 1.500001788139343 47.5000114440918 1.500001788139343 C 53.71063995361328 1.500001788139343 59.73467636108398 2.716028451919556 65.40482330322266 5.11428165435791 C 70.88229370117188 7.431055068969727 75.8018798828125 10.74802875518799 80.02691650390625 14.97306823730469 C 84.25196838378906 19.1981086730957 87.56894683837891 24.1176815032959 89.88571929931641 29.59514808654785 C 92.28398132324219 35.26528167724609 93.50001525878906 41.28932189941406 93.50001525878906 47.49993515014648 C 93.50001525878906 53.71054840087891 92.28398132324219 59.73458862304688 89.88571929931641 65.40472412109375 C 87.56894683837891 70.88218688964844 84.25196838378906 75.80176544189453 80.02691650390625 80.02680206298828 C 75.8018798828125 84.25183868408203 70.88229370117188 87.56881713867188 65.40482330322266 89.88558959960938 C 59.73467636108398 92.28384399414062 53.71063995361328 93.49987030029297 47.5000114440918 93.49987030029297 Z" stroke="none"/>
                                          <path d="M 47.5000114440918 3 C 41.49122619628906 3 35.66378021240234 4.1761474609375 30.17951965332031 6.495796203613281 C 24.880859375 8.7369384765625 20.12153625488281 11.94596862792969 16.03376770019531 16.03373718261719 C 11.94598388671875 20.12149047851562 8.736968994140625 24.88081359863281 6.495811462402344 30.17947387695312 C 4.176162719726562 35.66371917724609 3.000007629394531 41.49116516113281 3.000007629394531 47.49993515014648 C 3.000007629394531 53.50870513916016 4.176162719726562 59.33615112304688 6.495811462402344 64.82039642333984 C 8.736968994140625 70.11905670166016 11.94598388671875 74.87837982177734 16.03376770019531 78.96613311767578 C 20.12153625488281 83.05390167236328 24.880859375 86.26293182373047 30.17951965332031 88.50407409667969 C 35.66378021240234 90.82372283935547 41.49122619628906 91.99987030029297 47.5000114440918 91.99987030029297 C 53.50879669189453 91.99987030029297 59.33624267578125 90.82372283935547 64.82050323486328 88.50407409667969 C 70.11916351318359 86.26293182373047 74.87848663330078 83.05390167236328 78.96625518798828 78.96613311767578 C 83.05403900146484 74.87837982177734 86.2630615234375 70.11905670166016 88.50421142578125 64.82039642333984 C 90.82386016845703 59.33615112304688 92.00001525878906 53.50870513916016 92.00001525878906 47.49993515014648 C 92.00001525878906 41.49116516113281 90.82386016845703 35.66371917724609 88.50421142578125 30.17947387695312 C 86.2630615234375 24.88081359863281 83.05403900146484 20.12149047851562 78.96625518798828 16.03373718261719 C 74.87848663330078 11.94596862792969 70.11916351318359 8.7369384765625 64.82050323486328 6.495796203613281 C 59.33624267578125 4.1761474609375 53.50879669189453 3 47.5000114440918 3 M 47.5000114440918 0 C 73.73353576660156 0 95.00001525878906 21.26644134521484 95.00001525878906 47.49993515014648 C 95.00001525878906 73.73342895507812 73.73353576660156 94.99987030029297 47.5000114440918 94.99987030029297 C 21.26648712158203 94.99987030029297 7.62939453125e-06 73.73342895507812 7.62939453125e-06 47.49993515014648 C 7.62939453125e-06 21.26644134521484 21.26648712158203 0 47.5000114440918 0 Z" stroke="none" fill="#e44b36"/>
                                        </g>
                                      </g>
                                    </g>
                                  </g>
                                </g>
                              </g>
                            </g>
                          </g>
                        </g>
                      </g>
                    </g>
                  </g>
                </g>
              </g>
            </g>
          </g>
        </g>
      </g>
    </g>
    <g id="guard_4413052" transform="translate(8690.752 3360.473)">
      <path id="Trazado_1048415" data-name="Trazado 1048415" d="M75.048,90.75v4.616H65.98a1.33,1.33,0,0,0,.116-.548V91.3a1.32,1.32,0,0,0-.116-.548Z" transform="translate(-36.991 -64.791)" fill="#ffb69f"/>
      <path id="Trazado_1048416" data-name="Trazado 1048416" d="M49.977,89.13v3.52a1.33,1.33,0,0,1-.116.548,1.35,1.35,0,0,1-1.234.8H45.25a1.35,1.35,0,0,1-1.35-1.35V89.13a1.35,1.35,0,0,1,1.35-1.35h3.388a1.346,1.346,0,0,1,1.223.8A1.321,1.321,0,0,1,49.977,89.13Z" transform="translate(-20.872 -62.623)" fill="#efefef"/>
      <path id="Trazado_1048417" data-name="Trazado 1048417" d="M51.03,110.82h2.813v38H51.03Z" transform="translate(-26.077 -79.443)" fill="#afafaf"/>
      <path id="Trazado_1048418" data-name="Trazado 1048418" d="M131.447,105.155H116.283v-11.6l1.314-1.968V86.818h12.82v4.771l1.03,1.968Z" transform="translate(-73.714 -61.92)" fill="#fc5d3d"/>
      <path id="Trazado_1048419" data-name="Trazado 1048419" d="M116.283,135.625h15.164v2.463H116.283Z" transform="translate(-73.714 -97.551)" fill="#efefef"/>
      <path id="Trazado_1048420" data-name="Trazado 1048420" d="M116.283,117.375h15.164v2.463H116.283Z" transform="translate(-73.714 -84.228)" fill="#efefef"/>
      <path id="Trazado_1048421" data-name="Trazado 1048421" d="M116.28,198.167h6.15v10.4h-6.15Z" transform="translate(-73.712 -143.209)" fill="#ffb69f"/>
      <path id="Trazado_1048422" data-name="Trazado 1048422" d="M116.28,198.167h6.15v1.89h-6.15Z" transform="translate(-73.712 -143.209)" fill="#ea8f7c"/>
      <path id="Trazado_1048423" data-name="Trazado 1048423" d="M155.822,198.167v10.4h-6.15l0-8.505v-1.89Z" transform="translate(-98.088 -143.209)" fill="#ffb69f"/>
      <path id="Trazado_1048424" data-name="Trazado 1048424" d="M149.67,198.167h6.152v1.89H149.67Z" transform="translate(-98.088 -143.209)" fill="#ea8f7c"/>
      <path id="Trazado_1048425" data-name="Trazado 1048425" d="M116.191,236.672v3.2a.8.8,0,0,1-.78.823h-7.676v-1.624a2.341,2.341,0,0,1,2.277-2.4Z" transform="translate(-67.474 -171.319)" fill="#fc5d3d"/>
      <path id="Trazado_1048426" data-name="Trazado 1048426" d="M158.132,239.073V240.7h-7.676a.8.8,0,0,1-.78-.823v-3.2h6.18A2.341,2.341,0,0,1,158.132,239.073Z" transform="translate(-98.092 -171.319)" fill="#fc5d3d"/>
      <g id="Grupo_1208973" data-name="Grupo 1208973" transform="translate(38.057 24.897)">
        <path id="Trazado_1048427" data-name="Trazado 1048427" d="M138.56,86.818l-3.469,6.332-3.47-6.332Z" transform="translate(-122.969 -86.817)" fill="#f0c020"/>
        <path id="Trazado_1048428" data-name="Trazado 1048428" d="M174.239,87.412v5.551a.594.594,0,0,1-.594.594H169.67l-1.03-1.968V86.818h5A.594.594,0,0,1,174.239,87.412Z" transform="translate(-149.994 -86.817)" fill="#f0c020"/>
        <path id="Trazado_1048429" data-name="Trazado 1048429" d="M105.4,86.815v4.773l-1.314,1.966h-3.918a.592.592,0,0,1-.594-.594V87.409a.594.594,0,0,1,.594-.594H105.4Z" transform="translate(-99.571 -86.815)" fill="#f0c020"/>
      </g>
      <path id="Trazado_1048430" data-name="Trazado 1048430" d="M51.03,71.05h2.813v4.516H51.03Z" transform="translate(-26.077 -50.409)" fill="#afafaf"/>
      <path id="Trazado_1048431" data-name="Trazado 1048431" d="M198.59,72.75v6.5a2.969,2.969,0,0,1-2.97,2.97h-6.242V77.609h3.637V72.75Z" transform="translate(-127.076 -51.65)" fill="#ffb69f"/>
      <path id="Trazado_1048432" data-name="Trazado 1048432" d="M200.8,44.081v6.44h-5.575v-1.69h-1.351a1.447,1.447,0,0,1-1.461-1.274,1.409,1.409,0,0,1,1.4-1.544h1.408V44.081a1.78,1.78,0,0,1,1.78-1.78h2.015a1.78,1.78,0,0,1,1.78,1.78Z" transform="translate(-129.288 -29.421)" fill="#efefef"/>
      <path id="Trazado_1048433" data-name="Trazado 1048433" d="M38.559,13.484l-5.189,8.982H23L17.81,12.525,23,4.5H33.371Z" transform="translate(-1.825 -1.825)" fill="#fc5d3d"/>
      <path id="Trazado_1048434" data-name="Trazado 1048434" d="M38.638,31.071h9.5V34.69h-9.5Z" transform="translate(-17.03 -21.223)" fill="#efefef"/>
      <path id="Trazado_1048435" data-name="Trazado 1048435" d="M131.385,34.351V39.2H127.16a5.735,5.735,0,0,0,.772-2.878v-2.4a1.083,1.083,0,0,0-.956-1.074l-8.9-1.034a1.08,1.08,0,0,0-1.207,1.072v3.572A5.468,5.468,0,0,0,117.6,39.2h-4.1V34.351a8.942,8.942,0,0,1,8.941-8.941h0A8.942,8.942,0,0,1,131.385,34.351Z" transform="translate(-71.682 -17.09)" fill="#7c7b7a"/>
      <path id="Trazado_1048436" data-name="Trazado 1048436" d="M137.043,51.218v2.4a5.735,5.735,0,0,1-.772,2.878,5.511,5.511,0,0,1-10.291-2.746V50.181a1.08,1.08,0,0,1,1.207-1.072l8.9,1.034A1.083,1.083,0,0,1,137.043,51.218Z" transform="translate(-80.793 -34.386)" fill="#ffb69f"/>
      <path id="Trazado_1048437" data-name="Trazado 1048437" d="M128.045,166.467H108.888l2-11.723h15.164Z" transform="translate(-68.316 -111.509)" fill="#72c2e9"/>
      <g id="Grupo_1208974" data-name="Grupo 1208974" transform="translate(43.096 45.26)">
        <path id="Trazado_1048438" data-name="Trazado 1048438" d="M131.671,169.917h-9.251a.675.675,0,1,1,0-1.35h8.451l-.943-5.535a.675.675,0,0,1,1.331-.227l1.077,6.323A.675.675,0,0,1,131.671,169.917Zm-11.951,0h-.81a.675.675,0,1,1,0-1.35h.81a.675.675,0,0,1,0,1.35Z" transform="translate(-118.235 -162.244)" fill="#c5e5fe"/>
      </g>
      <circle id="Elipse_12542" data-name="Elipse 12542" cx="0.675" cy="0.675" r="0.675" transform="translate(70.839 24.204)"/>
      <path id="Trazado_1048439" data-name="Trazado 1048439" d="M83.177,52.7a.694.694,0,0,0-.921.248.675.675,0,1,0,.921-.248Z" transform="translate(-48.807 -36.954)"/>
      <path id="Trazado_1048440" data-name="Trazado 1048440" d="M20.574,20.954a.671.671,0,0,0,.6.362h3.1v3.172a2.025,2.025,0,0,0-1.925,2.02v3.52a2.025,2.025,0,0,0,1.925,2.02V69.378a.675.675,0,0,0,.675.675h2.813a.675.675,0,0,0,.675-.675V31.93a2.031,2.031,0,0,0,.924-.68H37.4a1.268,1.268,0,0,0,1.248,1.061h3.244V43.177L39.908,54.844a.675.675,0,0,0,.665.788h1.321v9.121a3.054,3.054,0,0,0-2.307,3v1.625a.675.675,0,0,0,.675.675h7.676a1.479,1.479,0,0,0,1.456-1.5c0-.04,0-12.462,0-12.923h1.514c0,18.678,0,2.4,0,12.923a1.479,1.479,0,0,0,1.455,1.5H60.04a.675.675,0,0,0,.675-.675V67.754a3.054,3.054,0,0,0-2.305-3V55.633h1.32a.675.675,0,0,0,.665-.788L58.408,43.178V32.312h3.3a1.268,1.268,0,0,0,1.248-1.061h5.587a3.65,3.65,0,0,0,3.645-3.644v-.027a.675.675,0,1,0-1.35,0v.027A2.3,2.3,0,0,1,68.544,29.9H62.977V26.634h2.961a.675.675,0,0,0,.675-.675V21.775h4.225v.4a.675.675,0,1,0,1.35,0c0-.086,0-.044,0-7.52a2.458,2.458,0,0,0-2.455-2.455H67.719a2.458,2.458,0,0,0-2.455,2.455v1.256h-.733A2.085,2.085,0,0,0,62.454,18.2a2.127,2.127,0,0,0,2.134,1.889h.677v5.2H62.956a1.268,1.268,0,0,0-1.248-1.061H54.546a6.335,6.335,0,0,0,1.306-1.436H59.7a.673.673,0,0,0,.675-.675V17.261a9.538,9.538,0,0,0-1.8-5.6.7.7,0,0,0-.942-.157.68.68,0,0,0-.157.939s0,0,0,0a8.222,8.222,0,0,1,1.544,4.813v4.176H56.536a6.672,6.672,0,0,0,.389-2.2v-2.4a1.759,1.759,0,0,0-1.553-1.745l-8.9-1.034A1.76,1.76,0,0,0,44.512,15.8s0-.039,0,3.572a6.208,6.208,0,0,0,.357,2.071H42.492V17.261a8.277,8.277,0,0,1,11.071-7.78.683.683,0,0,0,.861-.4.674.674,0,0,0-.4-.864,9.582,9.582,0,0,0-3.253-.567h-.008a9.611,9.611,0,0,0-9.616,9.616v4.851a.675.675,0,0,0,.675.675h3.724a6.185,6.185,0,0,0,1.315,1.436H38.65A1.269,1.269,0,0,0,37.4,25.284H29.364a2.036,2.036,0,0,0-.923-.679v-3.29h3.1a.673.673,0,0,0,.583-.337l1.14-1.968a.676.676,0,0,0-.248-.923.69.69,0,0,0-.921.248l-.942,1.631H21.581l-4.816-9.23L21.541,3.35h9.616l4.8,8.309-1.155,2a.671.671,0,0,0,.248.921.69.69,0,0,0,.921-.246L37.317,12a.67.67,0,0,0,0-.675L32.128,2.337A.673.673,0,0,0,31.545,2H21.174a.685.685,0,0,0-.567.308l-5.188,8.026a.676.676,0,0,0-.032.678Zm44.013-2.219a.779.779,0,0,1-.789-.661.734.734,0,0,1,.733-.808h1.617A1.968,1.968,0,0,1,67.9,18.329a.675.675,0,1,0,1.2-.623,3.312,3.312,0,0,0-2.484-1.758V14.659a1.106,1.106,0,0,1,1.105-1.1h2.015a1.106,1.106,0,0,1,1.1,1.1v5.766H66.614V19.41a.675.675,0,0,0-.675-.675ZM48.043,68.555c0,.087-.056.148-.106.148h-7v-.95a1.669,1.669,0,0,1,1.6-1.726h5.505Zm0-3.877h-4.8V55.632h4.8Zm11.322,3.076v.95h-7c-.05,0-.106-.061-.106-.148V66.028h5.505A1.669,1.669,0,0,1,59.365,67.754ZM52.257,55.633h4.8v9.045h-4.8Zm5.121-30.06h4.249v5.389H58.142L57.378,29.5Zm1.551,28.71H41.372L43.139,43.91H57.164ZM50.863,39.862V38.749h6.2v1.114Zm6.2,1.35V42.56h-6.2V41.212Zm-6.2-3.813V36.285h6.2V37.4Zm0-2.463V33.822h6.2v1.114Zm-.684-5.11-2.33-4.253h4.66Zm5.85-4.253v4.1a.675.675,0,0,0,.077.313l.953,1.821v.67h-6.2V31.387l3.186-5.814h1.98ZM45.862,19.367V15.8a.407.407,0,0,1,.454-.4l8.9,1.034a.408.408,0,0,1,.36.4v2.4A4.936,4.936,0,0,1,50.9,24.218,4.863,4.863,0,0,1,45.862,19.367ZM43.244,31.841l1.2-1.8a.677.677,0,0,0,.114-.375v-4.1H46.31l3.2,5.846v1.054H43.244Zm0,1.981h6.269v1.114H43.244Zm0,2.463h6.269V37.4H43.244Zm0,2.463h6.269v1.114H43.244Zm0,2.463h6.269V42.56H43.244ZM38.731,25.573h4.478v3.892l-1,1.5H38.731ZM29.78,26.634h7.6V29.9h-7.6ZM27.091,68.7H25.628V32.052h1.463ZM25.628,21.316h1.463v3.167H25.628Zm2.133,4.516a.676.676,0,0,1,.669.675v.046h-1.79a.675.675,0,0,0,0,1.35h1.79v.729h-1.79a.675.675,0,0,0,0,1.35h1.79v.046a.676.676,0,0,1-.675.675H24.378a.676.676,0,0,1-.675-.675v-3.52a.676.676,0,0,1,.675-.675Z"/>
      <path id="Trazado_1048441" data-name="Trazado 1048441" d="M36.814,28.571a.675.675,0,0,0-.675.675v3.619a.675.675,0,0,0,.675.675h9.5a.675.675,0,0,0,.675-.675V29.246a.675.675,0,0,0-.675-.675Zm8.828,3.619H37.489V29.921h8.153Z" transform="translate(-15.206 -19.398)"/>
      <path id="Trazado_1048442" data-name="Trazado 1048442" d="M138.221,68.052a2.228,2.228,0,0,0,4.455,0,.675.675,0,1,0-1.35,0,.878.878,0,0,1-1.756,0,.675.675,0,1,0-1.35,0Z" transform="translate(-89.73 -47.728)"/>
      <path id="Trazado_1048443" data-name="Trazado 1048443" d="M136.9,57.727a.675.675,0,0,0,.675-.675v-.126a.675.675,0,1,0-1.35,0v.126A.675.675,0,0,0,136.9,57.727Z" transform="translate(-88.271 -39.605)"/>
      <path id="Trazado_1048444" data-name="Trazado 1048444" d="M152.4,57.727a.675.675,0,0,0,.675-.675v-.126a.675.675,0,0,0-1.35,0v.126A.675.675,0,0,0,152.4,57.727Z" transform="translate(-99.587 -39.605)"/>
      <path id="Trazado_1048445" data-name="Trazado 1048445" d="M164.241,29.895a.675.675,0,1,0,.948-.13A.694.694,0,0,0,164.241,29.895Z" transform="translate(-108.626 -20.174)"/>
    </g>
  </g>
</svg>
