<svg xmlns="http://www.w3.org/2000/svg" xmlns:xlink="http://www.w3.org/1999/xlink" width="113" height="113" viewBox="0 0 113 113">
  <defs>
    <filter id="Trazado_982547" x="0" y="0" width="113" height="113" filterUnits="userSpaceOnUse">
      <feOffset dy="3" input="SourceAlpha"/>
      <feGaussianBlur stdDeviation="3" result="blur"/>
      <feFlood flood-opacity="0.161"/>
      <feComposite operator="in" in2="blur"/>
      <feComposite in="SourceGraphic"/>
    </filter>
  </defs>
  <g id="Grupo_1208999" data-name="Grupo 1208999" transform="translate(-8678 -3740)">
    <g id="Grupo_1208983" data-name="Grupo 1208983">
      <g id="Grupo_1208895" data-name="Grupo 1208895" transform="translate(7566 -1887.425)">
        <g id="Grupo_1202104" data-name="Grupo 1202104" transform="translate(0 -1149.226)">
          <g id="Grupo_1201923" data-name="Grupo 1201923" transform="translate(-4174.49 4856.378)">
            <g id="Grupo_1176928" data-name="Grupo 1176928" transform="translate(5295.49 1926.273)">
              <g id="Grupo_1172322" data-name="Grupo 1172322" transform="translate(0 0)">
                <g id="Grupo_1164700" data-name="Grupo 1164700">
                  <g id="Grupo_1160931" data-name="Grupo 1160931">
                    <g id="Grupo_1160749" data-name="Grupo 1160749">
                      <g id="Grupo_1158891" data-name="Grupo 1158891">
                        <g id="Grupo_1157406" data-name="Grupo 1157406">
                          <g id="Grupo_1155793" data-name="Grupo 1155793">
                            <g id="Grupo_1154704" data-name="Grupo 1154704">
                              <g id="Grupo_1150790" data-name="Grupo 1150790">
                                <g id="Grupo_1154214" data-name="Grupo 1154214">
                                  <g id="Grupo_1152583" data-name="Grupo 1152583">
                                    <g id="Grupo_1146973" data-name="Grupo 1146973">
                                      <g id="Grupo_1146954" data-name="Grupo 1146954">
                                        <g transform="matrix(1, 0, 0, 1, -9, -6)" filter="url(#Trazado_982547)">
                                          <g id="Trazado_982547-2" data-name="Trazado 982547" transform="translate(9 6)" fill="#fcebe9">
                                            <path d="M 47.5000114440918 93.49987030029297 C 41.28938293457031 93.49987030029297 35.26534652709961 92.28384399414062 29.5951976776123 89.88558959960938 C 24.11773109436035 87.56881713867188 19.19814491271973 84.25183868408203 14.97310447692871 80.02680206298828 C 10.74805164337158 75.80176544189453 7.43107795715332 70.88218688964844 5.114304542541504 65.40472412109375 C 2.716038227081299 59.73458862304688 1.500011444091797 53.71054840087891 1.500011444091797 47.49993515014648 C 1.500011444091797 41.28932189941406 2.716038227081299 35.26528167724609 5.114304542541504 29.59514808654785 C 7.43107795715332 24.1176815032959 10.74805164337158 19.1981086730957 14.97310447692871 14.97306823730469 C 19.19814491271973 10.74802875518799 24.11773109436035 7.431055068969727 29.5951976776123 5.11428165435791 C 35.26534652709961 2.716028451919556 41.28938293457031 1.500001788139343 47.5000114440918 1.500001788139343 C 53.71063995361328 1.500001788139343 59.73467636108398 2.716028451919556 65.40482330322266 5.11428165435791 C 70.88229370117188 7.431055068969727 75.8018798828125 10.74802875518799 80.02691650390625 14.97306823730469 C 84.25196838378906 19.1981086730957 87.56894683837891 24.1176815032959 89.88571929931641 29.59514808654785 C 92.28398132324219 35.26528167724609 93.50001525878906 41.28932189941406 93.50001525878906 47.49993515014648 C 93.50001525878906 53.71054840087891 92.28398132324219 59.73458862304688 89.88571929931641 65.40472412109375 C 87.56894683837891 70.88218688964844 84.25196838378906 75.80176544189453 80.02691650390625 80.02680206298828 C 75.8018798828125 84.25183868408203 70.88229370117188 87.56881713867188 65.40482330322266 89.88558959960938 C 59.73467636108398 92.28384399414062 53.71063995361328 93.49987030029297 47.5000114440918 93.49987030029297 Z" stroke="none"/>
                                            <path d="M 47.5000114440918 3 C 41.49122619628906 3 35.66378021240234 4.1761474609375 30.17951965332031 6.495796203613281 C 24.880859375 8.7369384765625 20.12153625488281 11.94596862792969 16.03376770019531 16.03373718261719 C 11.94598388671875 20.12149047851562 8.736968994140625 24.88081359863281 6.495811462402344 30.17947387695312 C 4.176162719726562 35.66371917724609 3.000007629394531 41.49116516113281 3.000007629394531 47.49993515014648 C 3.000007629394531 53.50870513916016 4.176162719726562 59.33615112304688 6.495811462402344 64.82039642333984 C 8.736968994140625 70.11905670166016 11.94598388671875 74.87837982177734 16.03376770019531 78.96613311767578 C 20.12153625488281 83.05390167236328 24.880859375 86.26293182373047 30.17951965332031 88.50407409667969 C 35.66378021240234 90.82372283935547 41.49122619628906 91.99987030029297 47.5000114440918 91.99987030029297 C 53.50879669189453 91.99987030029297 59.33624267578125 90.82372283935547 64.82050323486328 88.50407409667969 C 70.11916351318359 86.26293182373047 74.87848663330078 83.05390167236328 78.96625518798828 78.96613311767578 C 83.05403900146484 74.87837982177734 86.2630615234375 70.11905670166016 88.50421142578125 64.82039642333984 C 90.82386016845703 59.33615112304688 92.00001525878906 53.50870513916016 92.00001525878906 47.49993515014648 C 92.00001525878906 41.49116516113281 90.82386016845703 35.66371917724609 88.50421142578125 30.17947387695312 C 86.2630615234375 24.88081359863281 83.05403900146484 20.12149047851562 78.96625518798828 16.03373718261719 C 74.87848663330078 11.94596862792969 70.11916351318359 8.7369384765625 64.82050323486328 6.495796203613281 C 59.33624267578125 4.1761474609375 53.50879669189453 3 47.5000114440918 3 M 47.5000114440918 0 C 73.73353576660156 0 95.00001525878906 21.26644134521484 95.00001525878906 47.49993515014648 C 95.00001525878906 73.73342895507812 73.73353576660156 94.99987030029297 47.5000114440918 94.99987030029297 C 21.26648712158203 94.99987030029297 7.62939453125e-06 73.73342895507812 7.62939453125e-06 47.49993515014648 C 7.62939453125e-06 21.26644134521484 21.26648712158203 0 47.5000114440918 0 Z" stroke="none" fill="#e44b36"/>
                                          </g>
                                        </g>
                                      </g>
                                    </g>
                                  </g>
                                </g>
                              </g>
                            </g>
                          </g>
                        </g>
                      </g>
                    </g>
                  </g>
                </g>
              </g>
            </g>
          </g>
        </g>
      </g>
    </g>
    <g id="witness-protection_10295684" transform="translate(8694.623 3729.888)">
      <g id="Grupo_1208996" data-name="Grupo 1208996" transform="translate(7.5 30.445)">
        <path id="Trazado_1048466" data-name="Trazado 1048466" d="M178.94,30.445H168.385a8.444,8.444,0,0,0-8.444,8.444v8.074a3.429,3.429,0,0,1,1.924-.588h1.6V43.623a2.672,2.672,0,0,1,2.672-2.672H181.19a2.672,2.672,0,0,1,2.672,2.672v2.763h1.6a3.42,3.42,0,0,1,1.924.59V38.889A8.444,8.444,0,0,0,178.94,30.445Z" transform="translate(-140.079 -30.445)" fill="#554e56"/>
        <g id="Grupo_1208984" data-name="Grupo 1208984" transform="translate(33.397)">
          <path id="Trazado_1048467" data-name="Trazado 1048467" d="M269.287,30.445h-5.465a8.444,8.444,0,0,1,8.444,8.444v2.165a2.672,2.672,0,0,1,1.942,2.569v2.763h1.6a3.419,3.419,0,0,1,1.924.59V38.889A8.444,8.444,0,0,0,269.287,30.445Z" transform="translate(-263.822 -30.445)" fill="#433f43"/>
        </g>
        <path id="Trazado_1048468" data-name="Trazado 1048468" d="M215.314,46.807V38.889a8.444,8.444,0,0,0-8.444-8.444H196.314a8.4,8.4,0,0,0-4.26,1.154" transform="translate(-168.008 -30.445)" fill="none" stroke="#000" stroke-linecap="round" stroke-linejoin="round" stroke-miterlimit="10" stroke-width="1"/>
        <path id="Trazado_1048469" data-name="Trazado 1048469" d="M160.954,64.462a8.406,8.406,0,0,0-1.013,4.012v7.918" transform="translate(-140.08 -60.03)" fill="none" stroke="#000" stroke-linecap="round" stroke-linejoin="round" stroke-miterlimit="10" stroke-width="1"/>
        <path id="Trazado_1048470" data-name="Trazado 1048470" d="M129.775,285.71a9.645,9.645,0,0,1-9.294-12.244l-4.793-1.794v4.055a.577.577,0,0,1-.576.575.568.568,0,0,1-.329-.106l-4.34-3.069-1.543,3.164a.573.573,0,0,1-1.031,0l-1.543-3.164-4.34,3.069a.568.568,0,0,1-.329.106.577.577,0,0,1-.576-.575v-4.055l-5.76,2.156v4.646a7.324,7.324,0,0,1-2.43,5.444l-6.858,6.153a1.358,1.358,0,0,1-1.15.325v3.214h47v-8.136A9.647,9.647,0,0,1,129.775,285.71Z" transform="translate(-74.801 -240.241)" fill="#82aee3"/>
        <g id="Grupo_1208985" data-name="Grupo 1208985" transform="translate(52.149 45.046)">
          <path id="Trazado_1048471" data-name="Trazado 1048471" d="M410.573,376.6a9.619,9.619,0,0,1-2.825-.423V384.5h4.936v-8.136A9.649,9.649,0,0,1,410.573,376.6Z" transform="translate(-407.748 -376.174)" fill="#528fd8"/>
        </g>
        <line id="Línea_818" data-name="Línea 818" y1="7.871" transform="translate(57.085 45.368)" fill="none" stroke="#000" stroke-linecap="round" stroke-linejoin="round" stroke-miterlimit="10" stroke-width="1"/>
        <line id="Línea_819" data-name="Línea 819" y2="2.952" transform="translate(10.083 50.286)" fill="none" stroke="#000" stroke-linecap="round" stroke-linejoin="round" stroke-miterlimit="10" stroke-width="1"/>
        <line id="Línea_820" data-name="Línea 820" x1="5.499" y2="2.059" transform="translate(20.651 31.479)" fill="none" stroke="#000" stroke-linecap="round" stroke-linejoin="round" stroke-miterlimit="10" stroke-width="1"/>
        <line id="Línea_821" data-name="Línea 821" x1="4.539" y1="1.699" transform="translate(41.017 31.479)" fill="none" stroke="#000" stroke-linecap="round" stroke-linejoin="round" stroke-miterlimit="10" stroke-width="1"/>
        <g id="Grupo_1208986" data-name="Grupo 1208986" transform="translate(0 53.239)">
          <path id="Trazado_1048472" data-name="Trazado 1048472" d="M71.6,444.592H8.151a.652.652,0,0,1-.651-.651v-4.234a.652.652,0,0,1,.651-.651H71.6a.652.652,0,0,1,.651.651v4.234A.652.652,0,0,1,71.6,444.592Z" transform="translate(-7.5 -439.055)" fill="#c96e59"/>
        </g>
        <path id="Trazado_1048473" data-name="Trazado 1048473" d="M71.6,439.055H66.978v2.208a.652.652,0,0,1-.651.651H7.5v2.027a.652.652,0,0,0,.651.651H71.6a.652.652,0,0,0,.651-.651v-4.234A.652.652,0,0,0,71.6,439.055Z" transform="translate(-7.5 -385.816)" fill="#bb5d4c"/>
        <path id="Trazado_1048474" data-name="Trazado 1048474" d="M54.21,439.055H8.151a.652.652,0,0,0-.651.651v4.234a.652.652,0,0,0,.651.651H71.6a.652.652,0,0,0,.651-.651v-4.234a.652.652,0,0,0-.651-.651H58.77" transform="translate(-7.5 -385.816)" fill="none" stroke="#000" stroke-linecap="round" stroke-linejoin="round" stroke-miterlimit="10" stroke-width="1"/>
        <g id="Grupo_1208987" data-name="Grupo 1208987" transform="translate(26.15 29.092)">
          <path id="Trazado_1048475" data-name="Trazado 1048475" d="M212.537,255.356l-.083,0a7.369,7.369,0,0,1-4.248-1.622v6.393a.7.7,0,0,0,1.11.575l4.332-3.063Z" transform="translate(-208.206 -253.73)" fill="#528fd8"/>
          <path id="Trazado_1048476" data-name="Trazado 1048476" d="M208.207,255.073v6.218a.7.7,0,0,0,1.11.575l4.215-2.98" transform="translate(-208.207 -254.898)" fill="none" stroke="#000" stroke-linecap="round" stroke-linejoin="round" stroke-miterlimit="10" stroke-width="1"/>
          <path id="Trazado_1048477" data-name="Trazado 1048477" d="M281.737,255.352l-.083,0-1.111,2.278,4.332,3.063a.7.7,0,0,0,1.11-.575V253.73A7.369,7.369,0,0,1,281.737,255.352Z" transform="translate(-271.118 -253.73)" fill="#528fd8"/>
          <path id="Trazado_1048478" data-name="Trazado 1048478" d="M281.437,258.885l4.215,2.98a.7.7,0,0,0,1.11-.575v-6.218" transform="translate(-271.896 -254.898)" fill="none" stroke="#000" stroke-linecap="round" stroke-linejoin="round" stroke-miterlimit="10" stroke-width="1"/>
        </g>
        <path id="Trazado_1048479" data-name="Trazado 1048479" d="M246.262,266.147h-5.583c-.159,0-.316-.007-.472-.017l2.632,5.4a.7.7,0,0,0,1.265,0l2.632-5.4C246.578,266.14,246.421,266.147,246.262,266.147Z" transform="translate(-209.886 -235.422)" fill="#a44f3e"/>
        <path id="Trazado_1048480" data-name="Trazado 1048480" d="M240.754,267.255l2.56,5.251a.7.7,0,0,0,1.265,0l2.56-5.251" transform="translate(-210.363 -236.401)" fill="none" stroke="#000" stroke-linecap="round" stroke-linejoin="round" stroke-miterlimit="10" stroke-width="1"/>
        <g id="Grupo_1208988" data-name="Grupo 1208988" transform="translate(18.206 15.8)">
          <path id="Trazado_1048481" data-name="Trazado 1048481" d="M152.393,151.714h-1.579a3.579,3.579,0,0,0-3.579,3.579h0a3.579,3.579,0,0,0,3.579,3.579h1.579Z" transform="translate(-147.235 -151.714)" fill="#bb5d4c"/>
          <path id="Trazado_1048482" data-name="Trazado 1048482" d="M152.272,151.714h-1.458a3.579,3.579,0,0,0-3.579,3.579h0a3.579,3.579,0,0,0,3.579,3.579h1.458Z" transform="translate(-147.235 -151.714)" fill="none" stroke="#000" stroke-linecap="round" stroke-linejoin="round" stroke-miterlimit="10" stroke-width="1"/>
          <path id="Trazado_1048483" data-name="Trazado 1048483" d="M345.272,151.714h-1.579v7.158h1.579a3.579,3.579,0,0,0,3.579-3.579h0A3.579,3.579,0,0,0,345.272,151.714Z" transform="translate(-318.096 -151.714)" fill="#a44f3e"/>
          <path id="Trazado_1048484" data-name="Trazado 1048484" d="M346.075,151.714h-1.458v7.158h1.458a3.579,3.579,0,0,0,3.579-3.579h0A3.579,3.579,0,0,0,346.075,151.714Z" transform="translate(-318.9 -151.714)" fill="none" stroke="#000" stroke-linecap="round" stroke-linejoin="round" stroke-miterlimit="10" stroke-width="1"/>
        </g>
        <path id="Trazado_1048485" data-name="Trazado 1048485" d="M199.029,130.5h-5.583a7.548,7.548,0,0,1-7.548-7.548V112.809A2.813,2.813,0,0,1,188.711,110h15.054a2.813,2.813,0,0,1,2.813,2.813v10.139A7.548,7.548,0,0,1,199.029,130.5Z" transform="translate(-162.654 -99.631)" fill="#c96e59"/>
        <path id="Trazado_1048486" data-name="Trazado 1048486" d="M263.922,110H259.8a2.813,2.813,0,0,1,2.813,2.813v10.139a7.548,7.548,0,0,1-7.548,7.548h4.119a7.548,7.548,0,0,0,7.548-7.548V112.808A2.813,2.813,0,0,0,263.922,110Z" transform="translate(-222.811 -99.63)" fill="#bb5d4c"/>
        <path id="Trazado_1048487" data-name="Trazado 1048487" d="M199.029,130.5h-5.583a7.548,7.548,0,0,1-7.548-7.548V112.809A2.813,2.813,0,0,1,188.711,110h15.054a2.813,2.813,0,0,1,2.813,2.813v10.139A7.548,7.548,0,0,1,199.029,130.5Z" transform="translate(-162.654 -99.631)" fill="none" stroke="#000" stroke-linecap="round" stroke-linejoin="round" stroke-miterlimit="10" stroke-width="1"/>
        <path id="Trazado_1048488" data-name="Trazado 1048488" d="M295.782,219.91" transform="translate(-258.221 -195.224)" fill="none" stroke="#000" stroke-linecap="round" stroke-linejoin="round" stroke-miterlimit="10" stroke-width="1"/>
        <g id="Grupo_1208993" data-name="Grupo 1208993" transform="translate(26.855 13.806)">
          <g id="Grupo_1208991" data-name="Grupo 1208991" transform="translate(2.193 2.562)">
            <g id="Grupo_1208989" data-name="Grupo 1208989" transform="translate(2.748 0.38)">
              <path id="Trazado_1048489" data-name="Trazado 1048489" d="M253.323,163.888a1.788,1.788,0,0,1-.383-3.535.482.482,0,0,0,.383-.469v-.9" transform="translate(-251.535 -158.984)" fill="none" stroke="#000" stroke-linecap="round" stroke-linejoin="round" stroke-miterlimit="10" stroke-width="1"/>
            </g>
            <g id="Grupo_1208990" data-name="Grupo 1208990">
              <line id="Línea_822" data-name="Línea 822" y2="1.616" fill="none" stroke="#000" stroke-linecap="round" stroke-linejoin="round" stroke-miterlimit="10" stroke-width="1"/>
              <line id="Línea_823" data-name="Línea 823" y2="1.616" transform="translate(9.072)" fill="none" stroke="#000" stroke-linecap="round" stroke-linejoin="round" stroke-miterlimit="10" stroke-width="1"/>
            </g>
          </g>
          <g id="Grupo_1208992" data-name="Grupo 1208992" transform="translate(3.21 10.4)">
            <path id="Trazado_1048490" data-name="Trazado 1048490" d="M245.291,216.233a2.111,2.111,0,0,1-2.111,2.111h-2.815a2.111,2.111,0,0,1-2.111-2.111" transform="translate(-238.254 -216.233)" fill="none" stroke="#000" stroke-linecap="round" stroke-linejoin="round" stroke-miterlimit="10" stroke-width="1"/>
          </g>
          <line id="Línea_824" data-name="Línea 824" x1="4.385" fill="none" stroke="#000" stroke-linecap="round" stroke-linejoin="round" stroke-miterlimit="10" stroke-width="1"/>
          <line id="Línea_825" data-name="Línea 825" x1="4.385" transform="translate(9.072)" fill="none" stroke="#000" stroke-linecap="round" stroke-linejoin="round" stroke-miterlimit="10" stroke-width="1"/>
        </g>
        <g id="Grupo_1208995" data-name="Grupo 1208995" transform="translate(45.193 26.036)">
          <circle id="Elipse_12543" data-name="Elipse 12543" cx="9.781" cy="9.781" r="9.781" transform="translate(0 0)" fill="#fbc56d"/>
          <path id="Trazado_1048491" data-name="Trazado 1048491" d="M415.793,230.275a9.815,9.815,0,0,0-2.043.215,9.782,9.782,0,0,1,0,19.132,9.781,9.781,0,1,0,2.043-19.347Z" transform="translate(-406.012 -230.275)" fill="#e9b665"/>
          <circle id="Elipse_12544" data-name="Elipse 12544" cx="9.781" cy="9.781" r="9.781" transform="translate(0 0)" fill="none" stroke="#000" stroke-linecap="round" stroke-linejoin="round" stroke-miterlimit="10" stroke-width="1"/>
          <g id="Grupo_1208994" data-name="Grupo 1208994" transform="translate(0 4.785)">
            <path id="Trazado_1048492" data-name="Trazado 1048492" d="M364.139,267a11.76,11.76,0,0,0-9.781,5,12.073,12.073,0,0,0,19.562,0A11.76,11.76,0,0,0,364.139,267Z" transform="translate(-354.358 -267.001)" fill="#fff"/>
            <path id="Trazado_1048493" data-name="Trazado 1048493" d="M466.51,274.484a9.788,9.788,0,0,1,0,8.042,11.3,11.3,0,0,0,4.95-4.021A11.3,11.3,0,0,0,466.51,274.484Z" transform="translate(-451.898 -273.509)" fill="#f9f3f1"/>
            <path id="Trazado_1048494" data-name="Trazado 1048494" d="M364.139,267a11.76,11.76,0,0,0-9.781,5,12.073,12.073,0,0,0,19.562,0A11.76,11.76,0,0,0,364.139,267Z" transform="translate(-354.358 -267.001)" fill="none" stroke="#000" stroke-linecap="round" stroke-linejoin="round" stroke-miterlimit="10" stroke-width="1"/>
            <circle id="Elipse_12545" data-name="Elipse 12545" cx="3.673" cy="3.673" r="3.673" transform="translate(6.108 1.323)" fill="#0055a3"/>
            <path id="Trazado_1048495" data-name="Trazado 1048495" d="M419.157,277.153a3.657,3.657,0,0,0-1.539.338,3.673,3.673,0,0,1,0,6.671,3.673,3.673,0,1,0,1.539-7.009Z" transform="translate(-409.376 -275.83)" fill="#004281"/>
            <circle id="Elipse_12546" data-name="Elipse 12546" cx="3.673" cy="3.673" r="3.673" transform="translate(6.108 1.323)" fill="none" stroke="#000" stroke-linecap="round" stroke-linejoin="round" stroke-miterlimit="10" stroke-width="1"/>
          </g>
        </g>
        <path id="Trazado_1048496" data-name="Trazado 1048496" d="M378.242,109.687v-1.518a2.111,2.111,0,0,0-2.111-2.111h-5.557" transform="translate(-323.268 -96.206)" fill="none" stroke="#000" stroke-linecap="round" stroke-linejoin="round" stroke-miterlimit="10" stroke-width="1"/>
        <line id="Línea_826" data-name="Línea 826" y1="1.767" transform="translate(54.974 16.516)" fill="none" stroke="#000" stroke-linecap="round" stroke-linejoin="round" stroke-miterlimit="10" stroke-width="1"/>
        <line id="Línea_827" data-name="Línea 827" y1="1.767" transform="translate(54.974 21.324)" fill="none" stroke="#000" stroke-linecap="round" stroke-linejoin="round" stroke-miterlimit="10" stroke-width="1"/>
      </g>
      <g id="Grupo_1208997" data-name="Grupo 1208997" transform="translate(41.084 71.371)">
        <line id="Línea_828" data-name="Línea 828" y2="0.261" fill="none" stroke="#000" stroke-linecap="round" stroke-linejoin="round" stroke-miterlimit="10" stroke-width="1"/>
        <line id="Línea_829" data-name="Línea 829" y2="0.261" transform="translate(0 6.124)" fill="none" stroke="#000" stroke-linecap="round" stroke-linejoin="round" stroke-miterlimit="10" stroke-width="1"/>
      </g>
      <g id="Grupo_1208998" data-name="Grupo 1208998" transform="translate(7.5 54.286)">
        <path id="Trazado_1048497" data-name="Trazado 1048497" d="M7.5,218.561v9.257a7.444,7.444,0,0,0,2.473,5.541l6.858,6.153a1.489,1.489,0,0,0,1.988,0l6.858-6.153a7.444,7.444,0,0,0,2.473-5.541v-9.257a1.489,1.489,0,0,0-.921-1.376l-8.837-3.646a1.488,1.488,0,0,0-1.136,0l-8.837,3.646A1.489,1.489,0,0,0,7.5,218.561Z" transform="translate(-7.5 -213.426)" fill="#5de1c4"/>
        <path id="Trazado_1048498" data-name="Trazado 1048498" d="M7.5,218.561v9.257a7.444,7.444,0,0,0,2.473,5.541l6.858,6.153a1.489,1.489,0,0,0,1.988,0l6.858-6.153a7.444,7.444,0,0,0,2.473-5.541v-9.257a1.489,1.489,0,0,0-.921-1.376l-8.837-3.646a1.488,1.488,0,0,0-1.136,0l-8.837,3.646A1.489,1.489,0,0,0,7.5,218.561Z" transform="translate(-7.5 -213.426)" fill="none" stroke="#000" stroke-linecap="round" stroke-linejoin="round" stroke-miterlimit="10" stroke-width="1"/>
        <path id="Trazado_1048499" data-name="Trazado 1048499" d="M33.891,254A4.187,4.187,0,0,1,32.5,250.88v-7.637a.651.651,0,0,1,.4-.6l6.417-2.648a.651.651,0,0,1,.5,0l6.417,2.648a.651.651,0,0,1,.4.6v7.637A4.192,4.192,0,0,1,45.246,254L40,258.7a.652.652,0,0,1-.87,0Z" transform="translate(-29.243 -236.489)" fill="#0ed2b3"/>
        <path id="Trazado_1048500" data-name="Trazado 1048500" d="M79.351,254.217l-2.333-.963v7.876a4.192,4.192,0,0,1-1.391,3.116l-5.048,4.529,1.672,1.5a.652.652,0,0,0,.87,0l5.242-4.7a4.192,4.192,0,0,0,1.391-3.116v-7.637A.652.652,0,0,0,79.351,254.217Z" transform="translate(-62.36 -248.065)" fill="#0ab69f"/>
        <path id="Trazado_1048501" data-name="Trazado 1048501" d="M32.5,249.984v.9A4.187,4.187,0,0,0,33.891,254l5.242,4.7a.652.652,0,0,0,.87,0l5.242-4.7a4.192,4.192,0,0,0,1.391-3.116v-7.637a.651.651,0,0,0-.4-.6l-6.417-2.648a.652.652,0,0,0-.5,0L32.9,242.641a.651.651,0,0,0-.4.6v2.181" transform="translate(-29.243 -236.489)" fill="none" stroke="#000" stroke-linecap="round" stroke-linejoin="round" stroke-miterlimit="10" stroke-width="1"/>
        <path id="Trazado_1048502" data-name="Trazado 1048502" d="M54.25,287.29l3.186,3.233,5.283-5.585" transform="translate(-48.159 -275.62)" fill="none" stroke="#000" stroke-linecap="round" stroke-linejoin="round" stroke-miterlimit="10" stroke-width="1"/>
      </g>
    </g>
  </g>
</svg>
