<svg xmlns="http://www.w3.org/2000/svg" xmlns:xlink="http://www.w3.org/1999/xlink" width="110" height="110" viewBox="0 0 110 110">
  <defs>
    <filter id="Trazado_982547" x="0" y="0" width="110" height="110" filterUnits="userSpaceOnUse">
      <feOffset dy="3" input="SourceAlpha"/>
      <feGaussianBlur stdDeviation="3" result="blur"/>
      <feFlood flood-opacity="0.161"/>
      <feComposite operator="in" in2="blur"/>
      <feComposite in="SourceGraphic"/>
    </filter>
  </defs>
  <g id="Grupo_1209003" data-name="Grupo 1209003" transform="translate(-587 -3953.205)">
    <g id="Grupo_1166443" data-name="Grupo 1166443" transform="translate(-525 1993.205)">
      <g id="Grupo_1164700" data-name="Grupo 1164700" transform="translate(1121 1966)">
        <g id="Grupo_1160931" data-name="Grupo 1160931" transform="translate(0)">
          <g id="Grupo_1160749" data-name="Grupo 1160749" transform="translate(0)">
            <g id="Grupo_1158891" data-name="Grupo 1158891" transform="translate(0 0)">
              <g id="Grupo_1157406" data-name="Grupo 1157406" transform="translate(0)">
                <g id="Grupo_1155793" data-name="Grupo 1155793" transform="translate(0)">
                  <g id="Grupo_1154704" data-name="Grupo 1154704" transform="translate(0)">
                    <g id="Grupo_1150790" data-name="Grupo 1150790" transform="translate(0)">
                      <g id="Grupo_1154214" data-name="Grupo 1154214" transform="translate(0)">
                        <g id="Grupo_1152583" data-name="Grupo 1152583" transform="translate(0 0)">
                          <g id="Grupo_1146973" data-name="Grupo 1146973" transform="translate(0 0)">
                            <g id="Grupo_1146954" data-name="Grupo 1146954">
                              <g transform="matrix(1, 0, 0, 1, -9, -6)" filter="url(#Trazado_982547)">
                                <g id="Trazado_982547-2" data-name="Trazado 982547" transform="translate(9 6)" fill="#fef7ea">
                                  <path d="M 46.00000381469727 90.49988555908203 C 39.99188232421875 90.49988555908203 34.16427230834961 89.32352447509766 28.67905807495117 87.00347137451172 C 23.38020324707031 84.76226043701172 18.62104415893555 81.55342864990234 14.53375053405762 77.46615600585938 C 10.44647026062012 73.37887573242188 7.237643718719482 68.61971282958984 4.996417045593262 63.32085800170898 C 2.676363706588745 57.83565902709961 1.500003814697266 52.00806045532227 1.500003814697266 45.99993896484375 C 1.500003814697266 39.99181747436523 2.676363706588745 34.16421890258789 4.996417045593262 28.67901802062988 C 7.237643718719482 23.38017845153809 10.44647026062012 18.62101936340332 14.53375053405762 14.53373908996582 C 18.62104415893555 10.44645881652832 23.38020324707031 7.237632274627686 28.67905807495117 4.996418952941895 C 34.16427230834961 2.676365613937378 39.99188232421875 1.500005602836609 46.00000381469727 1.500005602836609 C 52.00812530517578 1.500005602836609 57.83573532104492 2.676365613937378 63.32094955444336 4.996418952941895 C 68.61980438232422 7.237632274627686 73.37897491455078 10.44645881652832 77.46625518798828 14.53373908996582 C 81.55355072021484 18.62101936340332 84.76236724853516 23.38017845153809 87.00359344482422 28.67901802062988 C 89.32364654541016 34.16421890258789 90.5 39.99181747436523 90.5 45.99993896484375 C 90.5 52.00806045532227 89.32364654541016 57.83565902709961 87.00359344482422 63.32085800170898 C 84.76236724853516 68.61971282958984 81.55355072021484 73.37887573242188 77.46625518798828 77.46615600585938 C 73.37897491455078 81.55342864990234 68.61980438232422 84.76226043701172 63.32094955444336 87.00347137451172 C 57.83573532104492 89.32352447509766 52.00812530517578 90.49988555908203 46.00000381469727 90.49988555908203 Z" stroke="none"/>
                                  <path d="M 46.00000381469727 2.999992370605469 C 40.19371795654297 2.999992370605469 34.56270217895508 4.136497497558594 29.26338958740234 6.377906799316406 C 24.14333343505859 8.543510437011719 19.54441833496094 11.64437866210938 15.59440612792969 15.59439849853516 C 11.64440155029297 19.54439544677734 8.54351806640625 24.14329528808594 6.377914428710938 29.26335144042969 C 4.136505126953125 34.56266784667969 3.000007629394531 40.19366836547852 3.000007629394531 45.99993896484375 C 3.000007629394531 51.80620956420898 4.136505126953125 57.43722534179688 6.377914428710938 62.73654174804688 C 8.54351806640625 67.85658264160156 11.64440155029297 72.45548248291016 15.59440612792969 76.40549468994141 C 19.54441833496094 80.35549926757812 24.14333343505859 83.45636749267578 29.26337432861328 85.62196350097656 C 34.56270217895508 87.86338043212891 40.19371795654297 88.9998779296875 46.00000381469727 88.9998779296875 C 51.80628967285156 88.9998779296875 57.43730545043945 87.86338043212891 62.73663330078125 85.62196350097656 C 67.85667419433594 83.45636749267578 72.45558929443359 80.35549926757812 76.40560150146484 76.40549468994141 C 80.35560607910156 72.45548248291016 83.45648956298828 67.85658264160156 85.62208557128906 62.73654174804688 C 87.86350250244141 57.43722534179688 89 51.80620956420898 89 45.99993896484375 C 89 40.19366836547852 87.86350250244141 34.56266784667969 85.62208557128906 29.26335144042969 C 83.45648956298828 24.14329528808594 80.35560607910156 19.54439544677734 76.40560150146484 15.59439849853516 C 72.45558929443359 11.64437866210938 67.85667419433594 8.543510437011719 62.73661804199219 6.377906799316406 C 57.43730545043945 4.136497497558594 51.80628967285156 2.999992370605469 46.00000381469727 2.999992370605469 M 46.00000381469727 -7.62939453125e-06 C 71.40510559082031 -7.62939453125e-06 92 20.59487915039062 92 45.99993896484375 C 92 71.40501403808594 71.40510559082031 91.99988555908203 46.00000381469727 91.99988555908203 C 20.59490203857422 91.99988555908203 7.62939453125e-06 71.40501403808594 7.62939453125e-06 45.99993896484375 C 7.62939453125e-06 20.59487915039062 20.59490203857422 -7.62939453125e-06 46.00000381469727 -7.62939453125e-06 Z" stroke="none" fill="#fcba3d"/>
                                </g>
                              </g>
                            </g>
                          </g>
                        </g>
                      </g>
                    </g>
                  </g>
                </g>
              </g>
            </g>
          </g>
        </g>
      </g>
    </g>
    <g id="pie-chart_386977" transform="translate(607.276 3969.259)">
      <path id="Trazado_1048513" data-name="Trazado 1048513" d="M30.959,208.937l7.636-7.475a15.6,15.6,0,0,1-12.078-14.91h4.174L19.4,175.017,8.109,186.552h4.166a29.838,29.838,0,0,0,25.643,29.2Z" transform="translate(-6.993 -150.69)" fill="#3fc8f2"/>
      <path id="Trazado_1048514" data-name="Trazado 1048514" d="M208.257,287.918l-7.669-7.834a15.6,15.6,0,0,1-14.87,12.38v-4.208l-11.534,11.291,11.534,11.291v-4.19a29.839,29.839,0,0,0,29.125-25.458Z" transform="translate(-150.218 -241.301)" fill="#894ba2"/>
      <path id="Trazado_1048515" data-name="Trazado 1048515" d="M306.042,70.9a29.839,29.839,0,0,0-25.488-29.084l6.838,6.693-7.823,7.658A15.6,15.6,0,0,1,291.8,70.9h-3.944l11.291,11.535L310.434,70.9Z" transform="translate(-241.103 -35.814)" fill="#f77935"/>
      <path id="Trazado_1048516" data-name="Trazado 1048516" d="M81.227,19.688,69.693,8.4v4.287A29.838,29.838,0,0,0,40.513,38.3l6.833-6.98,7.524,7.687A15.6,15.6,0,0,1,69.693,26.988v3.992Z" transform="translate(-34.939 -6.996)" fill="#ffdb56"/>
      <path id="Trazado_1048517" data-name="Trazado 1048517" d="M115.042,214.552h4.174l-6.918-7.067a15.528,15.528,0,0,0,13.982,22.272c.185,0,.368,0,.551-.011l.29-.284A15.6,15.6,0,0,1,115.042,214.552Z" transform="translate(-95.518 -178.691)" fill="#0daace"/>
      <g id="Grupo_1209002" data-name="Grupo 1209002" transform="translate(16.78 20.021)">
        <path id="Trazado_1048518" data-name="Trazado 1048518" d="M135.937,143.728a15.523,15.523,0,0,0-13.981,8.772l3.151,3.219a15.6,15.6,0,0,1,12.883-11.856A15.648,15.648,0,0,0,135.937,143.728Z" transform="translate(-121.956 -143.728)" fill="#fba806"/>
        <path id="Trazado_1048519" data-name="Trazado 1048519" d="M252.591,147.5v3.443l2.565-2.511A15.429,15.429,0,0,0,252.591,147.5Z" transform="translate(-234.617 -146.983)" fill="#fba806"/>
      </g>
      <path id="Trazado_1048520" data-name="Trazado 1048520" d="M307.793,71.358a29.681,29.681,0,0,1-1.9,10.488L316.608,70.9h-4.391a29.839,29.839,0,0,0-25.488-29.084l1.687,1.651A29.765,29.765,0,0,1,307.793,71.358Z" transform="translate(-247.277 -35.814)" fill="#d9510d"/>
      <path id="Trazado_1048521" data-name="Trazado 1048521" d="M253.948,294.266A29.764,29.764,0,0,1,226.5,313.527l4.336,4.244v-4.19a29.839,29.839,0,0,0,29.125-25.458Z" transform="translate(-195.335 -248.234)" fill="#763794"/>
      <path id="Trazado_1048522" data-name="Trazado 1048522" d="M70.359,34.65a1.116,1.116,0,0,0-1.029-.683H66.02A30.952,30.952,0,0,0,39.977,4.952L35.535.6a1.116,1.116,0,0,0-1.9.8V4.6A30.6,30.6,0,0,0,21.405,7.763a1.116,1.116,0,0,0,.99,2A28.437,28.437,0,0,1,34.767,6.8a1.116,1.116,0,0,0,1.1-1.116V4.055l8.824,8.638L35.87,21.33V19.992a1.116,1.116,0,0,0-1.141-1.116A16.569,16.569,0,0,0,22.881,24.2a1.116,1.116,0,1,0,1.633,1.521,14.342,14.342,0,0,1,9.124-4.541v2.807a1.116,1.116,0,0,0,1.9.8l3.27-3.2A14.441,14.441,0,0,1,49.5,33.967H46.748a1.116,1.116,0,0,0-.8,1.9l3.195,3.264a14.481,14.481,0,0,1-12.53,10.847V46.955a1.116,1.116,0,0,0-1.9-.8l-3.451,3.378A14.436,14.436,0,0,1,20.7,36.977H23.7a1.116,1.116,0,0,0,.8-1.9l-3.327-3.4a14.368,14.368,0,0,1,1.421-3.368,1.116,1.116,0,0,0-1.929-1.122A16.6,16.6,0,0,0,19.4,29.879l-6.2-6.333a1.115,1.115,0,0,0-1.594,0L7.448,27.8A28.825,28.825,0,0,1,15.523,14.52c.638-.6,1.311-1.169,2-1.7.491-.381,1-.751,1.515-1.1A1.116,1.116,0,0,0,17.788,9.87c-.553.375-1.1.773-1.632,1.184-.743.577-1.468,1.194-2.155,1.835A31.011,31.011,0,0,0,4.526,30.784l-4.207,4.3a1.116,1.116,0,0,0,.8,1.9H4.2a30.951,30.951,0,0,0,26.2,29.13l4.319,4.228a1.116,1.116,0,0,0,1.9-.8V66.429A30.952,30.952,0,0,0,65.672,40.415l4.456-4.552A1.115,1.115,0,0,0,70.359,34.65ZM27.423,63.192A28.731,28.731,0,0,1,6.4,35.849a1.116,1.116,0,0,0-1.116-1.1H3.77l8.638-8.824,8.638,8.824h-1.52a1.116,1.116,0,0,0-1.116,1.136A16.669,16.669,0,0,0,29.461,51.305l-6.276,6.144a1.116,1.116,0,0,0,0,1.594Zm35.3-19.764a28.732,28.732,0,0,1-27.237,20.8,1.116,1.116,0,0,0-1.1,1.116v1.537l-2.679-2.623h0l-6.144-6.015,6.822-6.678h0l2-1.959v1.554a1.116,1.116,0,0,0,.337.8,1.136,1.136,0,0,0,.807.317,16.713,16.713,0,0,0,15.4-11.328L57.242,47.4a1.116,1.116,0,0,0,1.595,0ZM58.04,45.022,49.4,36.2h1.29a1.116,1.116,0,0,0,1.115-1.151A16.675,16.675,0,0,0,40.622,19.8l6.448-6.312a1.115,1.115,0,0,0,0-1.594l-4.086-4a28.731,28.731,0,0,1,20.84,27.2,1.116,1.116,0,0,0,1.116,1.1h1.738Z" transform="translate(0)"/>
    </g>
  </g>
</svg>
