<svg xmlns="http://www.w3.org/2000/svg" xmlns:xlink="http://www.w3.org/1999/xlink" width="113" height="113" viewBox="0 0 113 113">
  <defs>
    <filter id="Trazado_982547" x="0" y="0" width="113" height="113" filterUnits="userSpaceOnUse">
      <feOffset dy="3" input="SourceAlpha"/>
      <feGaussianBlur stdDeviation="3" result="blur"/>
      <feFlood flood-opacity="0.161"/>
      <feComposite operator="in" in2="blur"/>
      <feComposite in="SourceGraphic"/>
    </filter>
  </defs>
  <g id="Grupo_1208922" data-name="Grupo 1208922" transform="translate(-1925.99 -2553)">
    <g id="Grupo_1208046" data-name="Grupo 1208046" transform="translate(1132.5 -3074.425)">
      <g id="Grupo_1177675" data-name="Grupo 1177675" transform="translate(-4493 3707.152)">
        <g id="Grupo_1176928" data-name="Grupo 1176928" transform="translate(5295.49 1926.273)">
          <g id="Grupo_1172322" data-name="Grupo 1172322" transform="translate(0 0)">
            <g id="Grupo_1164700" data-name="Grupo 1164700">
              <g id="Grupo_1160931" data-name="Grupo 1160931">
                <g id="Grupo_1160749" data-name="Grupo 1160749">
                  <g id="Grupo_1158891" data-name="Grupo 1158891">
                    <g id="Grupo_1157406" data-name="Grupo 1157406">
                      <g id="Grupo_1155793" data-name="Grupo 1155793">
                        <g id="Grupo_1154704" data-name="Grupo 1154704">
                          <g id="Grupo_1150790" data-name="Grupo 1150790">
                            <g id="Grupo_1154214" data-name="Grupo 1154214">
                              <g id="Grupo_1152583" data-name="Grupo 1152583">
                                <g id="Grupo_1146973" data-name="Grupo 1146973">
                                  <g id="Grupo_1146954" data-name="Grupo 1146954">
                                    <g transform="matrix(1, 0, 0, 1, -9, -6)" filter="url(#Trazado_982547)">
                                      <g id="Trazado_982547-2" data-name="Trazado 982547" transform="translate(9 6)" fill="#fcebe9">
                                        <path d="M 47.5000114440918 93.49987030029297 C 41.28938293457031 93.49987030029297 35.26534652709961 92.28384399414062 29.5951976776123 89.88558959960938 C 24.11773109436035 87.56881713867188 19.19814491271973 84.25183868408203 14.97310447692871 80.02680206298828 C 10.74805164337158 75.80176544189453 7.43107795715332 70.88218688964844 5.114304542541504 65.40472412109375 C 2.716038227081299 59.73458862304688 1.500011444091797 53.71054840087891 1.500011444091797 47.49993515014648 C 1.500011444091797 41.28932189941406 2.716038227081299 35.26528167724609 5.114304542541504 29.59514808654785 C 7.43107795715332 24.1176815032959 10.74805164337158 19.1981086730957 14.97310447692871 14.97306823730469 C 19.19814491271973 10.74802875518799 24.11773109436035 7.431055068969727 29.5951976776123 5.11428165435791 C 35.26534652709961 2.716028451919556 41.28938293457031 1.500001788139343 47.5000114440918 1.500001788139343 C 53.71063995361328 1.500001788139343 59.73467636108398 2.716028451919556 65.40482330322266 5.11428165435791 C 70.88229370117188 7.431055068969727 75.8018798828125 10.74802875518799 80.02691650390625 14.97306823730469 C 84.25196838378906 19.1981086730957 87.56894683837891 24.1176815032959 89.88571929931641 29.59514808654785 C 92.28398132324219 35.26528167724609 93.50001525878906 41.28932189941406 93.50001525878906 47.49993515014648 C 93.50001525878906 53.71054840087891 92.28398132324219 59.73458862304688 89.88571929931641 65.40472412109375 C 87.56894683837891 70.88218688964844 84.25196838378906 75.80176544189453 80.02691650390625 80.02680206298828 C 75.8018798828125 84.25183868408203 70.88229370117188 87.56881713867188 65.40482330322266 89.88558959960938 C 59.73467636108398 92.28384399414062 53.71063995361328 93.49987030029297 47.5000114440918 93.49987030029297 Z" stroke="none"/>
                                        <path d="M 47.5000114440918 3 C 41.49122619628906 3 35.66378021240234 4.1761474609375 30.17951965332031 6.495796203613281 C 24.880859375 8.7369384765625 20.12153625488281 11.94596862792969 16.03376770019531 16.03373718261719 C 11.94598388671875 20.12149047851562 8.736968994140625 24.88081359863281 6.495811462402344 30.17947387695312 C 4.176162719726562 35.66371917724609 3.000007629394531 41.49116516113281 3.000007629394531 47.49993515014648 C 3.000007629394531 53.50870513916016 4.176162719726562 59.33615112304688 6.495811462402344 64.82039642333984 C 8.736968994140625 70.11905670166016 11.94598388671875 74.87837982177734 16.03376770019531 78.96613311767578 C 20.12153625488281 83.05390167236328 24.880859375 86.26293182373047 30.17951965332031 88.50407409667969 C 35.66378021240234 90.82372283935547 41.49122619628906 91.99987030029297 47.5000114440918 91.99987030029297 C 53.50879669189453 91.99987030029297 59.33624267578125 90.82372283935547 64.82050323486328 88.50407409667969 C 70.11916351318359 86.26293182373047 74.87848663330078 83.05390167236328 78.96625518798828 78.96613311767578 C 83.05403900146484 74.87837982177734 86.2630615234375 70.11905670166016 88.50421142578125 64.82039642333984 C 90.82386016845703 59.33615112304688 92.00001525878906 53.50870513916016 92.00001525878906 47.49993515014648 C 92.00001525878906 41.49116516113281 90.82386016845703 35.66371917724609 88.50421142578125 30.17947387695312 C 86.2630615234375 24.88081359863281 83.05403900146484 20.12149047851562 78.96625518798828 16.03373718261719 C 74.87848663330078 11.94596862792969 70.11916351318359 8.7369384765625 64.82050323486328 6.495796203613281 C 59.33624267578125 4.1761474609375 53.50879669189453 3 47.5000114440918 3 M 47.5000114440918 0 C 73.73353576660156 0 95.00001525878906 21.26644134521484 95.00001525878906 47.49993515014648 C 95.00001525878906 73.73342895507812 73.73353576660156 94.99987030029297 47.5000114440918 94.99987030029297 C 21.26648712158203 94.99987030029297 7.62939453125e-06 73.73342895507812 7.62939453125e-06 47.49993515014648 C 7.62939453125e-06 21.26644134521484 21.26648712158203 0 47.5000114440918 0 Z" stroke="none" fill="#e44b36"/>
                                      </g>
                                    </g>
                                  </g>
                                </g>
                              </g>
                            </g>
                          </g>
                        </g>
                      </g>
                    </g>
                  </g>
                </g>
              </g>
            </g>
          </g>
        </g>
      </g>
    </g>
    <g id="broken-arm_3891316" transform="translate(1923.976 2559.003)">
      <g id="Grupo_1208921" data-name="Grupo 1208921" transform="translate(33.017 17.017)">
        <path id="Trazado_1048274" data-name="Trazado 1048274" d="M80.663,292.464H40V273.607a2.541,2.541,0,0,1,1.28-2.206l12.928-7.391a.127.127,0,0,1,.049-.01H66.405a.127.127,0,0,1,.049.01l12.8,6.4a2.541,2.541,0,0,1,1.4,2.273Z" transform="translate(-40 -233.503)" fill="#e6f8ff"/>
        <g id="Grupo_1208919" data-name="Grupo 1208919" transform="translate(28.364 29.48)">
          <path id="Trazado_1048275" data-name="Trazado 1048275" d="M272.5,282.525a20.768,20.768,0,0,1-8.11-13.011l-.009-.056-1.169-7.491L276.48,256l13.265,5.968-1.184,7.565-.005.028a20.759,20.759,0,0,1-8.214,13.088l-3.862,2.832Z" transform="translate(-263.215 -256)" fill="#25b1fa"/>
          <path id="Trazado_1048276" data-name="Trazado 1048276" d="M325.972,317.083h-5.083V312h-4.066v5.083H311.74v4.066h5.083v5.083h4.066v-5.083h5.083Z" transform="translate(-305.574 -304.884)" fill="#fafdff"/>
        </g>
        <path id="Trazado_1048277" data-name="Trazado 1048277" d="M164.2,222.1l-.651,1.085a6.354,6.354,0,0,1-10.9,0L152,222.1l2.033-6.1h8.133Z" transform="translate(-137.768 -191.602)" fill="#ffd4cf"/>
        <path id="Trazado_1048278" data-name="Trazado 1048278" d="M172.313,217.928,171.671,216h-8.133l-.649,1.948,2.663,1.331a4.576,4.576,0,0,0,4.112-.011Z" transform="translate(-147.273 -191.602)" fill="#fbb8b0"/>
        <g id="Grupo_1208920" data-name="Grupo 1208920" transform="translate(7.116 0)">
          <path id="Trazado_1048279" data-name="Trazado 1048279" d="M119.889,90.033h-2.541V88H101.083v2.033H98.541A2.541,2.541,0,0,0,96,92.575v2.033a2.541,2.541,0,0,0,2.541,2.541h2.541v2.727a3.812,3.812,0,0,0,2.107,3.41l4.882,2.441a2.541,2.541,0,0,0,2.285-.006l4.9-2.482a3.812,3.812,0,0,0,2.09-3.4V97.149h2.541a2.541,2.541,0,0,0,2.541-2.541V92.575A2.541,2.541,0,0,0,119.889,90.033Z" transform="translate(-96 -79.867)" fill="#ffd4cf"/>
          <path id="Trazado_1048280" data-name="Trazado 1048280" d="M119.624,24h7.116a7.624,7.624,0,0,1,7.624,7.624v2.541H112V31.624A7.624,7.624,0,0,1,119.624,24Z" transform="translate(-109.967 -24)" fill="#25b1fa"/>
          <path id="Trazado_1048281" data-name="Trazado 1048281" d="M158.1,24l7.116,10.166h-5.083L152,25.017Z" transform="translate(-144.884 -24)" fill="#80daff"/>
        </g>
        <path id="Trazado_1048282" data-name="Trazado 1048282" d="M152,408h12.707a7.624,7.624,0,0,1,7.624,7.624v2.541H152Z" transform="translate(-137.768 -359.205)" fill="#25b1fa"/>
        <path id="Trazado_1048283" data-name="Trazado 1048283" d="M168.265,418.166H152V408h10.166Z" transform="translate(-137.768 -359.205)" fill="#80daff"/>
        <path id="Trazado_1048284" data-name="Trazado 1048284" d="M79.8,296.326H61.5v-9.149L57.7,273.849a1.271,1.271,0,0,1,.531-1.415l5.868-3.8a1.271,1.271,0,0,1,1.823.489Z" transform="translate(-55.404 -237.366)" fill="#25b1fa"/>
      </g>
      <path id="Trazado_1048285" data-name="Trazado 1048285" d="M329.017,101.083,331.05,96l3.05,5.083,7.116-2.033-4.066,6.1,4.066,6.1-7.116-1.017-4.066,3.05L328,108.2Z" transform="translate(-258.387 -69.834)" fill="#fdbf67"/>
      <path id="Trazado_1048286" data-name="Trazado 1048286" d="M88.428,51.537,75.163,45.569a1.017,1.017,0,0,0-.834,0L61.063,51.536a1.017,1.017,0,0,0-.587,1.084l1.171,7.5.011.067a21.67,21.67,0,0,0,1.675,5.292,8.592,8.592,0,0,0-3.378-.687H52.849L45.218,49.841l1.669-.954.141.235a7.37,7.37,0,0,0,12.639,0l.168-.28,2.207,1.1.91-1.819L60.278,46.79,58.648,41.9l1.2-.608A4.806,4.806,0,0,0,62.5,36.986V35.315h1.525a3.562,3.562,0,0,0,3.558-3.558V29.724a3.563,3.563,0,0,0-2.033-3.215V24.641A8.651,8.651,0,0,0,56.906,16H49.79a8.651,8.651,0,0,0-8.641,8.641v1.868a3.563,3.563,0,0,0-2.033,3.215v2.033a3.562,3.562,0,0,0,3.558,3.558H44.2v1.71a4.8,4.8,0,0,0,2.669,4.319l1.17.585-1.63,4.89-2.134,1.22a2.287,2.287,0,0,0-3.121-.612L39.2,48.693,40.306,50.4l1.953-1.266a.254.254,0,0,1,.365.1l13.131,25.73H40.133V66.828a1.018,1.018,0,0,0-.039-.28L36.285,53.221a.253.253,0,0,1,.106-.283l2.261-1.466-1.106-1.706-2.261,1.466a2.275,2.275,0,0,0-.968,2.5l-.526.3A3.566,3.566,0,0,0,32,57.12V75.977a1.017,1.017,0,0,0,1.017,1.017H67.58A1.017,1.017,0,0,0,68.6,75.977V73.436a8.734,8.734,0,0,0-.048-.918q.772.693,1.615,1.32l3.977,2.955a1.017,1.017,0,0,0,1.207,0l3.862-2.832a22.372,22.372,0,0,0,2.725-2.358l-1.451-1.424a20.373,20.373,0,0,1-2.477,2.143L74.75,74.715l-3.375-2.508a19.748,19.748,0,0,1-7.713-12.364L62.6,53.074l12.141-5.462,12.141,5.462-1.062,6.788,0,.017a19.736,19.736,0,0,1-3.8,8.539l1.608,1.244a21.777,21.777,0,0,0,4.19-9.421l.005-.028,0-.025,1.184-7.566a1.017,1.017,0,0,0-.588-1.086Zm-54.4,5.583A1.528,1.528,0,0,1,34.8,55.8l.091-.052L38.1,66.97v7.99H34.033ZM63.969,68.189l-2.253,2.816L59.21,66.828h.746a6.574,6.574,0,0,1,4.013,1.362Zm1.578-36.432a1.527,1.527,0,0,1-1.525,1.525H62.5V28.2h1.525a1.526,1.526,0,0,1,1.525,1.525Zm-2.033-5.591h-2.52L58.924,23.21l3.228-2.582a6.575,6.575,0,0,1,1.362,4.013Zm-2.846-6.954L57.756,21.54,55.3,18.033h1.606a6.571,6.571,0,0,1,3.762,1.178Zm-7.849-1.178,5.693,8.133H55.837L48.69,18.125a6.623,6.623,0,0,1,1.1-.092Zm-6.205.815,6.5,7.317H49.7l-5.32-5.32A6.659,6.659,0,0,1,46.613,18.848Zm-3.431,7.317V24.641a6.592,6.592,0,0,1,.265-1.855l3.38,3.38Zm-.508,7.116a1.526,1.526,0,0,1-1.525-1.525V29.724A1.526,1.526,0,0,1,42.674,28.2H44.2v5.083Zm3.558,3.743V28.2H60.464v8.788a2.783,2.783,0,0,1-1.533,2.494l-4.9,2.482a1.532,1.532,0,0,1-1.371,0l-4.881-2.441a2.78,2.78,0,0,1-1.545-2.5Zm5.517,6.76a3.572,3.572,0,0,0,3.2-.008l1.867-.945,1.52,4.56-.411.685a5.337,5.337,0,0,1-9.153,0l-.411-.685,1.515-4.544Zm2.137,23.044h2.952l4.88,8.132H58.037Zm12.677,8.132H64.089l-1.257-2.1,2.553-3.191a6.57,6.57,0,0,1,1.178,3.761Z"/>
      <path id="Trazado_1048287" data-name="Trazado 1048287" d="M309.839,320.265h4.066a1.017,1.017,0,0,0,1.017-1.017v-4.066h4.066A1.017,1.017,0,0,0,320,314.166V310.1a1.017,1.017,0,0,0-1.017-1.017h-4.066v-4.066A1.017,1.017,0,0,0,313.906,304h-4.066a1.017,1.017,0,0,0-1.017,1.017v4.066h-4.066a1.017,1.017,0,0,0-1.017,1.017v4.066a1.017,1.017,0,0,0,1.017,1.017h4.066v4.066A1.017,1.017,0,0,0,309.839,320.265Zm-4.066-7.116v-2.033h4.066a1.017,1.017,0,0,0,1.017-1.017v-4.066h2.033V310.1a1.017,1.017,0,0,0,1.017,1.017h4.066v2.033h-4.066a1.017,1.017,0,0,0-1.017,1.017v4.066h-2.033v-4.066a1.017,1.017,0,0,0-1.017-1.017Z" transform="translate(-237.21 -251.404)"/>
      <path id="Trazado_1048288" data-name="Trazado 1048288" d="M180.066,178.541H182.1a3.1,3.1,0,0,0-6.1,0h2.033c0-.179.386-.508,1.017-.508S180.066,178.362,180.066,178.541Z" transform="translate(-125.702 -139.669)"/>
      <path id="Trazado_1048289" data-name="Trazado 1048289" d="M160,128h2.033v2.033H160Z" transform="translate(-111.735 -97.768)"/>
      <path id="Trazado_1048290" data-name="Trazado 1048290" d="M224,128h2.033v2.033H224Z" transform="translate(-167.602 -97.768)"/>
      <path id="Trazado_1048291" data-name="Trazado 1048291" d="M322.106,106.675a1.017,1.017,0,0,0,1.554.436l3.729-2.8,6.7.957a1.017,1.017,0,0,0,.99-1.57l-3.69-5.535,3.69-5.535a1.017,1.017,0,0,0-1.125-1.541l-6.366,1.819-2.648-4.414a1.017,1.017,0,0,0-1.816.145l-2.033,5.083a1.017,1.017,0,0,0,.035.832l.395.789a4.061,4.061,0,0,1-.762,4.694l-.459.459a1.017,1.017,0,0,0-.225,1.1Zm1.231-12.241-.191-.381,1.1-2.756,1.995,3.325a1.017,1.017,0,0,0,1.151.454l4.457-1.273-2.532,3.8a1.017,1.017,0,0,0,0,1.128l2.8,4.208-4.865-.7a1.016,1.016,0,0,0-.754.193l-3.005,2.254-1.292-3.229A6.091,6.091,0,0,0,323.337,94.434Z" transform="translate(-251.404 -62.851)"/>
    </g>
  </g>
</svg>
