<svg xmlns="http://www.w3.org/2000/svg" xmlns:xlink="http://www.w3.org/1999/xlink" width="113" height="113" viewBox="0 0 113 113">
  <defs>
    <filter id="Trazado_982547" x="0" y="0" width="113" height="113" filterUnits="userSpaceOnUse">
      <feOffset dy="3" input="SourceAlpha"/>
      <feGaussianBlur stdDeviation="3" result="blur"/>
      <feFlood flood-opacity="0.161"/>
      <feComposite operator="in" in2="blur"/>
      <feComposite in="SourceGraphic"/>
    </filter>
  </defs>
  <g id="Grupo_1208931" data-name="Grupo 1208931" transform="translate(-2245.5 -2553)">
    <g id="Grupo_1208048" data-name="Grupo 1208048" transform="translate(1452.01 -3074.425)">
      <g id="Grupo_1177675" data-name="Grupo 1177675" transform="translate(-4493 3707.152)">
        <g id="Grupo_1176928" data-name="Grupo 1176928" transform="translate(5295.49 1926.273)">
          <g id="Grupo_1172322" data-name="Grupo 1172322" transform="translate(0 0)">
            <g id="Grupo_1164700" data-name="Grupo 1164700">
              <g id="Grupo_1160931" data-name="Grupo 1160931">
                <g id="Grupo_1160749" data-name="Grupo 1160749">
                  <g id="Grupo_1158891" data-name="Grupo 1158891">
                    <g id="Grupo_1157406" data-name="Grupo 1157406">
                      <g id="Grupo_1155793" data-name="Grupo 1155793">
                        <g id="Grupo_1154704" data-name="Grupo 1154704">
                          <g id="Grupo_1150790" data-name="Grupo 1150790">
                            <g id="Grupo_1154214" data-name="Grupo 1154214">
                              <g id="Grupo_1152583" data-name="Grupo 1152583">
                                <g id="Grupo_1146973" data-name="Grupo 1146973">
                                  <g id="Grupo_1146954" data-name="Grupo 1146954">
                                    <g transform="matrix(1, 0, 0, 1, -9, -6)" filter="url(#Trazado_982547)">
                                      <g id="Trazado_982547-2" data-name="Trazado 982547" transform="translate(9 6)" fill="#fcebe9">
                                        <path d="M 47.5000114440918 93.49987030029297 C 41.28938293457031 93.49987030029297 35.26534652709961 92.28384399414062 29.5951976776123 89.88558959960938 C 24.11773109436035 87.56881713867188 19.19814491271973 84.25183868408203 14.97310447692871 80.02680206298828 C 10.74805164337158 75.80176544189453 7.43107795715332 70.88218688964844 5.114304542541504 65.40472412109375 C 2.716038227081299 59.73458862304688 1.500011444091797 53.71054840087891 1.500011444091797 47.49993515014648 C 1.500011444091797 41.28932189941406 2.716038227081299 35.26528167724609 5.114304542541504 29.59514808654785 C 7.43107795715332 24.1176815032959 10.74805164337158 19.1981086730957 14.97310447692871 14.97306823730469 C 19.19814491271973 10.74802875518799 24.11773109436035 7.431055068969727 29.5951976776123 5.11428165435791 C 35.26534652709961 2.716028451919556 41.28938293457031 1.500001788139343 47.5000114440918 1.500001788139343 C 53.71063995361328 1.500001788139343 59.73467636108398 2.716028451919556 65.40482330322266 5.11428165435791 C 70.88229370117188 7.431055068969727 75.8018798828125 10.74802875518799 80.02691650390625 14.97306823730469 C 84.25196838378906 19.1981086730957 87.56894683837891 24.1176815032959 89.88571929931641 29.59514808654785 C 92.28398132324219 35.26528167724609 93.50001525878906 41.28932189941406 93.50001525878906 47.49993515014648 C 93.50001525878906 53.71054840087891 92.28398132324219 59.73458862304688 89.88571929931641 65.40472412109375 C 87.56894683837891 70.88218688964844 84.25196838378906 75.80176544189453 80.02691650390625 80.02680206298828 C 75.8018798828125 84.25183868408203 70.88229370117188 87.56881713867188 65.40482330322266 89.88558959960938 C 59.73467636108398 92.28384399414062 53.71063995361328 93.49987030029297 47.5000114440918 93.49987030029297 Z" stroke="none"/>
                                        <path d="M 47.5000114440918 3 C 41.49122619628906 3 35.66378021240234 4.1761474609375 30.17951965332031 6.495796203613281 C 24.880859375 8.7369384765625 20.12153625488281 11.94596862792969 16.03376770019531 16.03373718261719 C 11.94598388671875 20.12149047851562 8.736968994140625 24.88081359863281 6.495811462402344 30.17947387695312 C 4.176162719726562 35.66371917724609 3.000007629394531 41.49116516113281 3.000007629394531 47.49993515014648 C 3.000007629394531 53.50870513916016 4.176162719726562 59.33615112304688 6.495811462402344 64.82039642333984 C 8.736968994140625 70.11905670166016 11.94598388671875 74.87837982177734 16.03376770019531 78.96613311767578 C 20.12153625488281 83.05390167236328 24.880859375 86.26293182373047 30.17951965332031 88.50407409667969 C 35.66378021240234 90.82372283935547 41.49122619628906 91.99987030029297 47.5000114440918 91.99987030029297 C 53.50879669189453 91.99987030029297 59.33624267578125 90.82372283935547 64.82050323486328 88.50407409667969 C 70.11916351318359 86.26293182373047 74.87848663330078 83.05390167236328 78.96625518798828 78.96613311767578 C 83.05403900146484 74.87837982177734 86.2630615234375 70.11905670166016 88.50421142578125 64.82039642333984 C 90.82386016845703 59.33615112304688 92.00001525878906 53.50870513916016 92.00001525878906 47.49993515014648 C 92.00001525878906 41.49116516113281 90.82386016845703 35.66371917724609 88.50421142578125 30.17947387695312 C 86.2630615234375 24.88081359863281 83.05403900146484 20.12149047851562 78.96625518798828 16.03373718261719 C 74.87848663330078 11.94596862792969 70.11916351318359 8.7369384765625 64.82050323486328 6.495796203613281 C 59.33624267578125 4.1761474609375 53.50879669189453 3 47.5000114440918 3 M 47.5000114440918 0 C 73.73353576660156 0 95.00001525878906 21.26644134521484 95.00001525878906 47.49993515014648 C 95.00001525878906 73.73342895507812 73.73353576660156 94.99987030029297 47.5000114440918 94.99987030029297 C 21.26648712158203 94.99987030029297 7.62939453125e-06 73.73342895507812 7.62939453125e-06 47.49993515014648 C 7.62939453125e-06 21.26644134521484 21.26648712158203 0 47.5000114440918 0 Z" stroke="none" fill="#e44b36"/>
                                      </g>
                                    </g>
                                  </g>
                                </g>
                              </g>
                            </g>
                          </g>
                        </g>
                      </g>
                    </g>
                  </g>
                </g>
              </g>
            </g>
          </g>
        </g>
      </g>
    </g>
    <g id="layoff_17650420" transform="translate(2243.494 2553.272)">
      <g id="Grupo_1208930" data-name="Grupo 1208930" transform="translate(28.873 23.76)">
        <path id="Trazado_1048299" data-name="Trazado 1048299" d="M90.687,325.555,99.16,329.3c3.974,1.755,5.024,4.764,1.5,6.627l14.415-5.52c5.148-1.969,7.448,2.609,2.229,5.331l-17.653,9.214a3.6,3.6,0,0,1-2.426.305l-12.778-2.288-5.886-.9L76.9,331.716l10.634-6.008A3.42,3.42,0,0,1,90.687,325.555Z" transform="translate(-71.343 -286.397)" fill="#f9b5b2" fill-rule="evenodd"/>
        <path id="Trazado_1048300" data-name="Trazado 1048300" d="M140.264,396.449c.049-.026-6.2,4.518-6.2,4.518l-12.182,6.042a2.46,2.46,0,0,1-1.644.209l-16.863-3.153-.067-2.221,17.4,2.665C127.834,403.028,133.634,399.994,140.264,396.449Z" transform="translate(-94.28 -348.241)" fill="#f598a2" fill-rule="evenodd"/>
        <path id="Trazado_1048301" data-name="Trazado 1048301" d="M37.23,338.154l3.858-.014a2.607,2.607,0,0,1,2.609,2.59l.041,12.707a2.606,2.606,0,0,1-2.587,2.609l-3.862.012a2.607,2.607,0,0,1-2.609-2.59l-.041-12.707A2.6,2.6,0,0,1,37.23,338.154Z" transform="translate(-34.64 -297.6)" fill="#ed2024" fill-rule="evenodd"/>
        <path id="Trazado_1048302" data-name="Trazado 1048302" d="M39.8,338.17q.012.134.012.268l.057,16.221a3.271,3.271,0,0,1-.313,1.416l-2.251.008a2.607,2.607,0,0,1-2.609-2.59l-.041-12.706a2.6,2.6,0,0,1,2.59-2.6Z" transform="translate(-34.648 -297.626)" fill="#991b1e" fill-rule="evenodd"/>
        <path id="Trazado_1048303" data-name="Trazado 1048303" d="M250.767,64.57h22.212a2.376,2.376,0,0,1,2.367,2.367V95.985a2.376,2.376,0,0,1-2.367,2.367H250.767a2.373,2.373,0,0,1-2.367-2.367V66.937A2.372,2.372,0,0,1,250.767,64.57Z" transform="translate(-220.291 -60.003)" fill="#999" fill-rule="evenodd"/>
        <path id="Trazado_1048304" data-name="Trazado 1048304" d="M53.538,98.911,61.555,112.8a4.438,4.438,0,0,1-3.846,6.658H41.677a4.438,4.438,0,0,1-3.844-6.658l8.013-13.885a4.44,4.44,0,0,1,7.691,0Z" transform="translate(-36.892 -87.899)" fill="#f6851f" fill-rule="evenodd"/>
        <path id="Trazado_1048305" data-name="Trazado 1048305" d="M70.125,119.456l8.013,13.885a1.5,1.5,0,0,1,0,1.546,1.516,1.516,0,0,1-1.339.772H60.769a1.515,1.515,0,0,1-1.339-.772,1.5,1.5,0,0,1,0-1.546l8.013-13.885a1.546,1.546,0,0,1,2.681,0Z" transform="translate(-55.983 -106.998)" fill="#fddc00" fill-rule="evenodd"/>
        <path id="Trazado_1048306" data-name="Trazado 1048306" d="M274.3,92.24h16.985a1.815,1.815,0,0,1,1.808,1.812v22.883a1.815,1.815,0,0,1-1.808,1.812H274.3a1.816,1.816,0,0,1-1.812-1.812V94.051A1.815,1.815,0,0,1,274.3,92.24Z" transform="translate(-241.214 -84.035)" fill="#cccccb" fill-rule="evenodd"/>
        <path id="Trazado_1048307" data-name="Trazado 1048307" d="M274.3,92.24h16.985a1.815,1.815,0,0,1,1.808,1.812v.227c-1.719,7.869-10.516,13.8-20.605,14.2V94.052A1.815,1.815,0,0,1,274.3,92.24Z" transform="translate(-241.214 -84.035)" fill="#e4e4e4" fill-rule="evenodd"/>
        <path id="Trazado_1048308" data-name="Trazado 1048308" d="M388.423,29.84a6.769,6.769,0,1,1-6.773,6.769A6.77,6.77,0,0,1,388.423,29.84Z" transform="translate(-336.019 -29.84)" fill="#a45925" fill-rule="evenodd"/>
        <path id="Trazado_1048309" data-name="Trazado 1048309" d="M405.546,51.7a6.771,6.771,0,0,1-11.217,6.936A6.771,6.771,0,0,1,405.546,51.7Z" transform="translate(-346.728 -47.097)" fill="#f6851f" fill-rule="evenodd"/>
        <path id="Trazado_1048310" data-name="Trazado 1048310" d="M87.52,168.927l1.412.776a.467.467,0,0,0,.626-.183l.309-.571a.454.454,0,0,0-.183-.622l-1.412-.776a.463.463,0,0,0-.622.183l-.313.571A.461.461,0,0,0,87.52,168.927Zm4.5-7.637.92.5a.744.744,0,0,1,.291,1.006l-2.036,3.72a.743.743,0,0,1-1,.295l-.92-.5a.739.739,0,0,1-.295-1l2.036-3.724A.748.748,0,0,1,92.023,161.289Z" transform="translate(-80.36 -143.927)" fill="#fdef85" fill-rule="evenodd"/>
        <path id="Trazado_1048311" data-name="Trazado 1048311" d="M450.434,60.03a1.292,1.292,0,1,1-1.294,1.29A1.29,1.29,0,0,1,450.434,60.03Z" transform="translate(-394.635 -56.06)" fill="#fff2b0" fill-rule="evenodd"/>
      </g>
      <path id="Trazado_1048312" data-name="Trazado 1048312" d="M83.13,27.417a.92.92,0,0,1,1.3,1.3L82.622,30.53l1.808,1.808a.92.92,0,0,1-1.3,1.3L81.322,31.83,79.51,33.638a.92.92,0,0,1-1.3-1.3l1.808-1.808-1.808-1.812a.92.92,0,0,1,1.3-1.3l1.812,1.808ZM42.642,48.97a.92.92,0,0,1-1.841,0v-.608a.92.92,0,0,1,1.841,0ZM40.8,40.154a.92.92,0,1,1,1.841,0v5.61a.92.92,0,1,1-1.841,0ZM81.322,22.84a7.69,7.69,0,0,1,3.571,14.5v22.4a3.3,3.3,0,0,1-3.287,3.287H59.393a3.3,3.3,0,0,1-3.287-3.287V30.694a3.3,3.3,0,0,1,3.287-3.287h14.9a7.687,7.687,0,0,1,7.03-4.567Zm1.729,15.183a7.381,7.381,0,0,1-1.327.187V56.66a2.741,2.741,0,0,1-2.732,2.732H62.006a2.739,2.739,0,0,1-2.732-2.732V33.777a2.74,2.74,0,0,1,2.732-2.733H73.647a7.6,7.6,0,0,1,.089-1.8H59.393a1.452,1.452,0,0,0-1.446,1.446V59.742a1.455,1.455,0,0,0,1.446,1.446H81.606a1.455,1.455,0,0,0,1.446-1.446V38.023Zm-3.168.063A7.71,7.71,0,0,1,74,32.886H62.006a.9.9,0,0,0-.89.89V56.66a.9.9,0,0,0,.89.89H78.991a.9.9,0,0,0,.89-.89V38.086Zm5.571-11.693a5.848,5.848,0,1,0,1.715,4.138A5.846,5.846,0,0,0,85.455,26.393ZM63.79,54.617a.92.92,0,0,1,0-1.841h8.279a.92.92,0,1,1,0,1.841Zm2.815-5.473a.92.92,0,1,1,0-1.841H77.2a.92.92,0,0,1,0,1.841ZM63.79,43.673a.92.92,0,0,1,0-1.841h8.279a.92.92,0,1,1,0,1.841ZM65.681,38.2a.92.92,0,0,1,0-1.841h9.49a.92.92,0,0,1,0,1.841ZM43.853,35.756,51.87,49.64a2.411,2.411,0,0,1,0,2.468h0a2.5,2.5,0,0,1-.9.906,2.461,2.461,0,0,1-1.237.327H33.7a2.441,2.441,0,0,1-2.132-1.233,2.4,2.4,0,0,1,0-2.468l8.013-13.885A2.464,2.464,0,0,1,43.853,35.756Zm6.426,14.807L42.266,36.677a.628.628,0,0,0-1.093,0L33.158,50.562a.608.608,0,0,0,0,.626.577.577,0,0,0,.544.313H49.735a.638.638,0,0,0,.317-.075l.227-.238h0A.608.608,0,0,0,50.279,50.562ZM46.358,34.309l8.017,13.885a5.353,5.353,0,0,1-4.641,8.04H33.7a5.36,5.36,0,0,1-4.637-8.04L37.08,34.309A5.358,5.358,0,0,1,46.358,34.309Zm6.426,14.807L44.771,35.231a3.523,3.523,0,0,0-6.1,0L30.653,49.116A3.519,3.519,0,0,0,33.7,54.394H49.735a3.506,3.506,0,0,0,3.049-5.278ZM31.508,63.4l3.858-.014a3.529,3.529,0,0,1,3.3,2.278l6-3.389a4.328,4.328,0,0,1,3.974-.2l8.468,3.746c2.21.977,4.626,2.885,4.13,5.331l11.081-4.242c6.217-2.381,9.232,3.738,2.982,7L57.646,83.125a4.493,4.493,0,0,1-3.015.394L41.879,81.238l-3.135-.481a3.538,3.538,0,0,1-3.314,2.367l-3.862.011a3.517,3.517,0,0,1-3.523-3.507L28,66.922A3.517,3.517,0,0,1,31.508,63.4ZM38.9,67.637l.037,11.286,3.216.5v0l12.8,2.292A2.787,2.787,0,0,0,56.8,81.5l17.653-9.214c4.175-2.178,2.592-5.215-1.479-3.657L58.558,74.145a.892.892,0,0,1-.644,0l-10.526-3.88a.919.919,0,1,1,.63-1.727l10.132,3.734a3.459,3.459,0,0,0,.973-.835v0a1.7,1.7,0,0,0-.327-2.322A7.2,7.2,0,0,0,56.369,67.5l-8.475-3.745a2.508,2.508,0,0,0-2.333.112Zm-3.531-2.42-3.858.014a1.686,1.686,0,0,0-1.674,1.688l.045,12.707A1.686,1.686,0,0,0,31.566,81.3l3.862-.011A1.7,1.7,0,0,0,37.1,79.6l-.045-12.707A1.7,1.7,0,0,0,35.365,65.217Z"/>
    </g>
  </g>
</svg>
