<svg xmlns="http://www.w3.org/2000/svg" xmlns:xlink="http://www.w3.org/1999/xlink" width="108" height="108" viewBox="0 0 108 108">
  <defs>
    <filter id="Trazado_904820" x="0" y="0" width="108" height="108" filterUnits="userSpaceOnUse">
      <feOffset dy="3" input="SourceAlpha"/>
      <feGaussianBlur stdDeviation="3" result="blur"/>
      <feFlood flood-opacity="0.161"/>
      <feComposite operator="in" in2="blur"/>
      <feComposite in="SourceGraphic"/>
    </filter>
  </defs>
  <g id="Grupo_1208934" data-name="Grupo 1208934" transform="translate(-620 -1616.401)">
    <g id="Grupo_1208050" data-name="Grupo 1208050" transform="translate(629 1622.401)">
      <g id="Grupo_1173585" data-name="Grupo 1173585" transform="translate(0 0)">
        <g id="Grupo_1173428" data-name="Grupo 1173428">
          <g id="Grupo_1171958" data-name="Grupo 1171958">
            <g id="Grupo_1167341" data-name="Grupo 1167341">
              <g id="Grupo_1166792" data-name="Grupo 1166792">
                <g transform="matrix(1, 0, 0, 1, -9, -6)" filter="url(#Trazado_904820)">
                  <g id="Trazado_904820-2" data-name="Trazado 904820" transform="translate(9 6)" fill="#fef7ea">
                    <path d="M 44.99999618530273 88.50002288818359 C 39.12687301635742 88.50002288818359 33.43022155761719 87.35009765625 28.06829643249512 85.08218383789062 C 22.88852119445801 82.89133453369141 18.23629570007324 79.75460815429688 14.24084663391113 75.7591552734375 C 10.24540901184082 71.76371002197266 7.108683586120605 67.11148071289062 4.917821407318115 61.93170928955078 C 2.649921178817749 56.56978225708008 1.499996185302734 50.87313079833984 1.499996185302734 45.00000762939453 C 1.499996185302734 39.12688446044922 2.649921178817749 33.43023300170898 4.917821407318115 28.06829452514648 C 7.108683586120605 22.8885326385498 10.24540901184082 18.23630714416504 14.24084663391113 14.24085807800293 C 18.23629570007324 10.2454080581665 22.88852119445801 7.108695030212402 28.06829643249512 4.917832851409912 C 33.43022155761719 2.649932622909546 39.12687301635742 1.500007629394531 44.99999618530273 1.500007629394531 C 50.87311935424805 1.500007629394531 56.56977081298828 2.649932622909546 61.93169784545898 4.917832851409912 C 67.11147308349609 7.108695030212402 71.76369476318359 10.2454080581665 75.75914764404297 14.24085807800293 C 79.75458526611328 18.23630714416504 82.89131164550781 22.8885326385498 85.08216857910156 28.06829452514648 C 87.35007476806641 33.43023300170898 88.5 39.12688446044922 88.5 45.00000762939453 C 88.5 50.87313079833984 87.35007476806641 56.56978225708008 85.08216857910156 61.93170928955078 C 82.89131164550781 67.11148071289062 79.75458526611328 71.76371002197266 75.75914764404297 75.7591552734375 C 71.76369476318359 79.75460815429688 67.11147308349609 82.89133453369141 61.93169784545898 85.08218383789062 C 56.56977081298828 87.35009765625 50.87311935424805 88.50002288818359 44.99999618530273 88.50002288818359 Z" stroke="none"/>
                    <path d="M 44.99999618530273 2.999992370605469 C 39.32870864868164 2.999992370605469 33.82865142822266 4.110054016113281 28.65262603759766 6.299339294433594 C 23.65165710449219 8.414566040039062 19.15968322753906 11.44333648681641 15.301513671875 15.30150604248047 C 11.44333648681641 19.15967559814453 8.414566040039062 23.65164947509766 6.299339294433594 28.65262222290039 C 4.110054016113281 33.82866287231445 2.999992370605469 39.32872009277344 2.999992370605469 45.00000762939453 C 2.999992370605469 50.67129516601562 4.110054016113281 56.17133712768555 6.299339294433594 61.34738159179688 C 8.414566040039062 66.34835052490234 11.44333648681641 70.84030914306641 15.301513671875 74.69849395751953 C 19.15968322753906 78.55666351318359 23.65165710449219 81.58543395996094 28.65262603759766 83.70066833496094 C 33.82865142822266 85.88995361328125 39.32870864868164 87.00000762939453 44.99999618530273 87.00000762939453 C 50.67128372192383 87.00000762939453 56.17134094238281 85.88995361328125 61.34736633300781 83.70066833496094 C 66.34834289550781 81.58543395996094 70.84030914306641 78.55666351318359 74.69847869873047 74.69849395751953 C 78.55665588378906 70.84030914306641 81.58542633056641 66.34835052490234 83.70065307617188 61.34738159179688 C 85.88993835449219 56.17133712768555 87 50.67129516601562 87 45.00000762939453 C 87 39.32872009277344 85.88993835449219 33.82866287231445 83.70065307617188 28.65262222290039 C 81.58542633056641 23.65164947509766 78.55665588378906 19.15967559814453 74.69847869873047 15.30150604248047 C 70.84030914306641 11.44333648681641 66.34834289550781 8.414566040039062 61.34736633300781 6.299339294433594 C 56.17134094238281 4.110054016113281 50.67128372192383 2.999992370605469 44.99999618530273 2.999992370605469 M 44.99999618530273 -7.62939453125e-06 C 69.85281372070312 -7.62939453125e-06 90 20.14717864990234 90 45.00000762939453 C 90 69.85280609130859 69.85281372070312 90.00000762939453 44.99999618530273 90.00000762939453 C 20.14717864990234 90.00000762939453 -7.62939453125e-06 69.85280609130859 -7.62939453125e-06 45.00000762939453 C -7.62939453125e-06 20.14717864990234 20.14717864990234 -7.62939453125e-06 44.99999618530273 -7.62939453125e-06 Z" stroke="none" fill="#fcba3d"/>
                  </g>
                </g>
              </g>
            </g>
          </g>
        </g>
      </g>
    </g>
    <g id="miner_5768878" transform="translate(647.501 1634.401)">
      <path id="Trazado_1048323" data-name="Trazado 1048323" d="M38,23.01A4,4,0,0,1,34,27v2.18a4.008,4.008,0,0,1-1.37,3.02l-5.5,4.81A3.979,3.979,0,0,1,24.5,38h-3a3.979,3.979,0,0,1-2.63-.99l-5.5-4.81A4.008,4.008,0,0,1,12,29.18V27a3.99,3.99,0,0,1,0-7.98H34a4,4,0,0,1,4,3.99Z" fill="#ffe0b2"/>
      <path id="Trazado_1048324" data-name="Trazado 1048324" d="M34,19.02H31A3.99,3.99,0,1,1,31,27v2.18a4.008,4.008,0,0,1-1.37,3.02l-5.5,4.81A3.979,3.979,0,0,1,21.5,38h3a3.979,3.979,0,0,0,2.63-.99l5.5-4.81A4.008,4.008,0,0,0,34,29.18V27a3.99,3.99,0,1,0,0-7.98Z" fill="#dfc49c"/>
      <path id="Trazado_1048325" data-name="Trazado 1048325" d="M31,43s-2,3-8,3-8-3-8-3a13.166,13.166,0,0,0,1.1-8.41l2.77,2.42A3.979,3.979,0,0,0,21.5,38h3a3.979,3.979,0,0,0,2.63-.99l2.77-2.42A13.166,13.166,0,0,0,31,43Z" fill="#ffe0b2"/>
      <path id="Trazado_1048326" data-name="Trazado 1048326" d="M29.9,34.59l-2.77,2.42a3.957,3.957,0,0,1-.481.35A12.654,12.654,0,0,0,28,43s-1.67,2.482-6.5,2.926c.473.043.965.074,1.5.074,6,0,8-3,8-3a13.166,13.166,0,0,1-1.1-8.41Z" fill="#dfc49c"/>
      <path id="Trazado_1048327" data-name="Trazado 1048327" d="M38,17a2.006,2.006,0,0,1-2,2H10a2,2,0,1,1,0-4H36a2.015,2.015,0,0,1,2,2Z" fill="#ffdf00"/>
      <path id="Trazado_1048328" data-name="Trazado 1048328" d="M37.41,15.59A1.955,1.955,0,0,0,36,15H33a2,2,0,0,1,0,4h3a2.006,2.006,0,0,0,2-2A1.955,1.955,0,0,0,37.41,15.59Z" fill="#fec108"/>
      <path id="Trazado_1048329" data-name="Trazado 1048329" d="M35,13v2H11V13a10.017,10.017,0,0,1,8-9.8V3a2.006,2.006,0,0,1,2-2h4a2.006,2.006,0,0,1,2,2v.2A10.017,10.017,0,0,1,35,13Z" fill="#ffdf00"/>
      <path id="Trazado_1048330" data-name="Trazado 1048330" d="M27,3.2V3a2.006,2.006,0,0,0-2-2H22a2.006,2.006,0,0,1,2,2v.2A10.017,10.017,0,0,1,32,13v2h3V13a10.017,10.017,0,0,0-8-9.8Z" fill="#fec108"/>
      <rect id="Rectángulo_418187" data-name="Rectángulo 418187" width="6" height="6" rx="1" transform="translate(43 33)" fill="#3f51b5"/>
      <path id="Trazado_1048331" data-name="Trazado 1048331" d="M48,33H45a1,1,0,0,1,1,1v4a1,1,0,0,1-1,1h3a1,1,0,0,0,1-1V34A1,1,0,0,0,48,33Z" fill="#283593"/>
      <path id="Trazado_1048332" data-name="Trazado 1048332" d="M58.15,39.21A29.091,29.091,0,0,0,49,38V34a14.94,14.94,0,0,1,9.77,4.08.659.659,0,0,1-.62,1.13Z" fill="#9e9e9e"/>
      <path id="Trazado_1048333" data-name="Trazado 1048333" d="M58.77,38.08A14.94,14.94,0,0,0,49,34v.368a16.207,16.207,0,0,1,6.77,3.712.632.632,0,0,1,.22.555,17.888,17.888,0,0,1,2.16.575.659.659,0,0,0,.62-1.13Z" fill="#707070"/>
      <path id="Trazado_1048334" data-name="Trazado 1048334" d="M43,34a14.969,14.969,0,0,0-9.774,4.076.659.659,0,0,0,.623,1.129A29.267,29.267,0,0,1,43,38Z" fill="#9e9e9e"/>
      <path id="Trazado_1048335" data-name="Trazado 1048335" d="M44,33V30a1,1,0,0,1,1-1h2a1,1,0,0,1,1,1v3Z" fill="#607d8b"/>
      <path id="Trazado_1048336" data-name="Trazado 1048336" d="M44.8,58.6a1,1,0,0,1-.8.4H26.78l.93-1.19a1.368,1.368,0,0,0,.07-1.59L24.11,50.6a1.327,1.327,0,0,0-2.22,0l-3.67,5.62a1.368,1.368,0,0,0,.07,1.59L19.22,59H2a1,1,0,0,1-1-1V55c0-9,9-12,14-12,0,0,2,3,8,3s8-3,8-3c3.99,0,10.53,1.91,13,7.26V57a2.027,2.027,0,0,0,.8,1.6Z" fill="#ff9801"/>
      <path id="Trazado_1048337" data-name="Trazado 1048337" d="M44,57V50.26C41.53,44.91,34.99,43,31,43a2.657,2.657,0,0,1-.219.271c3.77.685,8.266,2.758,10.219,6.989V57a2.027,2.027,0,0,0,.8,1.6,1,1,0,0,1-.8.4h3a1,1,0,0,0,.8-.4A2.027,2.027,0,0,1,44,57Z" fill="#f57c00"/>
      <path id="Trazado_1048338" data-name="Trazado 1048338" d="M48,39V57a2,2,0,1,1-4,0V39Z" fill="#607d8b"/>
      <path id="Trazado_1048339" data-name="Trazado 1048339" d="M27.71,57.81,26.78,59H19.22l-.93-1.19a1.368,1.368,0,0,1-.07-1.59l3.67-5.62a1.327,1.327,0,0,1,2.22,0l3.67,5.62a1.368,1.368,0,0,1-.07,1.59Z" fill="#ffdf00"/>
      <path id="Trazado_1048340" data-name="Trazado 1048340" d="M27.78,56.22,24.11,50.6a1.327,1.327,0,0,0-2.22,0l-.39.6,3.28,5.023a1.368,1.368,0,0,1-.07,1.59L23.78,59h3l.93-1.19a1.368,1.368,0,0,0,.07-1.59Z" fill="#fec108"/>
      <path id="Trazado_1048341" data-name="Trazado 1048341" d="M21,32h4a1,1,0,0,0,0-2H21a1,1,0,0,0,0,2Z"/>
      <path id="Trazado_1048342" data-name="Trazado 1048342" d="M24,33H22a1,1,0,0,0,0,2h2a1,1,0,0,0,0-2Z"/>
      <path id="Trazado_1048343" data-name="Trazado 1048343" d="M20,22a1,1,0,0,0-1-1H17a1,1,0,0,0,0,2,1,1,0,0,0,2,0A1,1,0,0,0,20,22Z"/>
      <path id="Trazado_1048344" data-name="Trazado 1048344" d="M27,23a1,1,0,0,0,2,0,1,1,0,0,0,0-2H27a1,1,0,0,0,0,2Z"/>
      <path id="Trazado_1048345" data-name="Trazado 1048345" d="M22,28h2a1,1,0,0,0,0-2H22a1,1,0,0,0,0,2Z"/>
      <path id="Trazado_1048346" data-name="Trazado 1048346" d="M2,60H44a1.989,1.989,0,0,0,.9-.216A2.985,2.985,0,0,0,49,57V39.722a2,2,0,0,0,.716-.712,27.742,27.742,0,0,1,8.111,1.141,1.646,1.646,0,0,0,.535.09,1.624,1.624,0,0,0,1.4-.817,1.658,1.658,0,0,0-.329-2.1,16.21,16.21,0,0,0-9.691-4.282A2,2,0,0,0,49,32.278V30a2,2,0,0,0-2-2H45a2,2,0,0,0-2,2v2.278a2,2,0,0,0-.747.769,16.21,16.21,0,0,0-9.691,4.282,1.658,1.658,0,0,0-.329,2.1,1.624,1.624,0,0,0,1.4.817,1.646,1.646,0,0,0,.535-.09,27.742,27.742,0,0,1,8.111-1.141,2,2,0,0,0,.716.712v7.264A16.7,16.7,0,0,0,31.665,42.02a12.079,12.079,0,0,1-.832-6.92l2.459-2.152A5,5,0,0,0,35,29.185V27.9a4.977,4.977,0,0,0,2.581-8.36A2.993,2.993,0,0,0,36,14V13A11.037,11.037,0,0,0,27.94,2.406,3,3,0,0,0,25,0H21a3,3,0,0,0-2.94,2.405A11.037,11.037,0,0,0,10,13v1a2.993,2.993,0,0,0-1.581,5.539A4.977,4.977,0,0,0,11,27.9v1.286a5,5,0,0,0,1.708,3.763L15.167,35.1a12.084,12.084,0,0,1-.834,6.925C8.522,42.28,0,45.88,0,55v3a2,2,0,0,0,2,2Zm17.077-2.808a.364.364,0,0,1-.02-.425L22,52.259V58H19.708Zm7.845,0L26.293,58H24V52.259l2.942,4.507a.365.365,0,0,1-.02.428ZM46,58a1,1,0,0,1-1-1V40h2V57A1,1,0,0,1,46,58ZM44,34h4v4H44Zm6,3.013V35.052a13.632,13.632,0,0,1,6.835,2.737A32.65,32.65,0,0,0,50,37.013ZM47,30v2H45V30Zm-5,5.052v1.961a32.65,32.65,0,0,0-6.835.776A13.632,13.632,0,0,1,42,35.052ZM12,13a9.032,9.032,0,0,1,6-8.478V10a1,1,0,0,0,2,0V3a1,1,0,0,1,1-1h4a1,1,0,0,1,1,1v7a1,1,0,1,0,2,0V4.522A9.032,9.032,0,0,1,34,13v1H12Zm-2,3H36a1,1,0,0,1,0,2H10a1,1,0,0,1,0-2Zm3,13.185V27a1,1,0,0,0-1-1,2.982,2.982,0,0,1-1-5.8V22a1,1,0,0,0,2,0V20H33v2a1,1,0,0,0,2,0V20.2A2.982,2.982,0,0,1,34,26a1,1,0,0,0-1,1v2.185a3,3,0,0,1-1.024,2.257l-5.5,4.816A3,3,0,0,1,24.5,37h-3a3,3,0,0,1-1.976-.742l-5.5-4.816A3,3,0,0,1,13,29.185Zm5.211,8.579A5,5,0,0,0,21.5,39h3a5,5,0,0,0,3.293-1.236l.861-.755a13.553,13.553,0,0,0,1.166,5.826C29.07,43.558,27.069,45,23,45s-6.076-1.446-6.817-2.164a13.559,13.559,0,0,0,1.166-5.827ZM2,55c0-7.783,7.513-10.815,12.551-10.984C15.427,44.956,17.913,47,23,47s7.578-2.048,8.452-2.986c3.618.136,9.314,1.919,11.548,6.492V57a2.966,2.966,0,0,0,.184,1H28.735a2.347,2.347,0,0,0-.118-2.327l-3.674-5.626a2.326,2.326,0,0,0-3.89.006l-3.671,5.621A2.345,2.345,0,0,0,17.266,58H2Z"/>
    </g>
  </g>
</svg>
