<svg xmlns="http://www.w3.org/2000/svg" xmlns:xlink="http://www.w3.org/1999/xlink" width="113" height="113" viewBox="0 0 113 113">
  <defs>
    <filter id="Trazado_982547" x="0" y="0" width="113" height="113" filterUnits="userSpaceOnUse">
      <feOffset dy="3" input="SourceAlpha"/>
      <feGaussianBlur stdDeviation="3" result="blur"/>
      <feFlood flood-opacity="0.161"/>
      <feComposite operator="in" in2="blur"/>
      <feComposite in="SourceGraphic"/>
    </filter>
  </defs>
  <g id="Grupo_1208972" data-name="Grupo 1208972" transform="translate(-1112 -3343)">
    <g id="Grupo_1208892" data-name="Grupo 1208892" transform="translate(0 -2284.425)">
      <g id="Grupo_1202104" data-name="Grupo 1202104" transform="translate(0 -1149.226)">
        <g id="Grupo_1201923" data-name="Grupo 1201923" transform="translate(-4174.49 4856.378)">
          <g id="Grupo_1176928" data-name="Grupo 1176928" transform="translate(5295.49 1926.273)">
            <g id="Grupo_1172322" data-name="Grupo 1172322" transform="translate(0 0)">
              <g id="Grupo_1164700" data-name="Grupo 1164700">
                <g id="Grupo_1160931" data-name="Grupo 1160931">
                  <g id="Grupo_1160749" data-name="Grupo 1160749">
                    <g id="Grupo_1158891" data-name="Grupo 1158891">
                      <g id="Grupo_1157406" data-name="Grupo 1157406">
                        <g id="Grupo_1155793" data-name="Grupo 1155793">
                          <g id="Grupo_1154704" data-name="Grupo 1154704">
                            <g id="Grupo_1150790" data-name="Grupo 1150790">
                              <g id="Grupo_1154214" data-name="Grupo 1154214">
                                <g id="Grupo_1152583" data-name="Grupo 1152583">
                                  <g id="Grupo_1146973" data-name="Grupo 1146973">
                                    <g id="Grupo_1146954" data-name="Grupo 1146954">
                                      <g transform="matrix(1, 0, 0, 1, -9, -6)" filter="url(#Trazado_982547)">
                                        <g id="Trazado_982547-2" data-name="Trazado 982547" transform="translate(9 6)" fill="#fcebe9">
                                          <path d="M 47.5000114440918 93.49987030029297 C 41.28938293457031 93.49987030029297 35.26534652709961 92.28384399414062 29.5951976776123 89.88558959960938 C 24.11773109436035 87.56881713867188 19.19814491271973 84.25183868408203 14.97310447692871 80.02680206298828 C 10.74805164337158 75.80176544189453 7.43107795715332 70.88218688964844 5.114304542541504 65.40472412109375 C 2.716038227081299 59.73458862304688 1.500011444091797 53.71054840087891 1.500011444091797 47.49993515014648 C 1.500011444091797 41.28932189941406 2.716038227081299 35.26528167724609 5.114304542541504 29.59514808654785 C 7.43107795715332 24.1176815032959 10.74805164337158 19.1981086730957 14.97310447692871 14.97306823730469 C 19.19814491271973 10.74802875518799 24.11773109436035 7.431055068969727 29.5951976776123 5.11428165435791 C 35.26534652709961 2.716028451919556 41.28938293457031 1.500001788139343 47.5000114440918 1.500001788139343 C 53.71063995361328 1.500001788139343 59.73467636108398 2.716028451919556 65.40482330322266 5.11428165435791 C 70.88229370117188 7.431055068969727 75.8018798828125 10.74802875518799 80.02691650390625 14.97306823730469 C 84.25196838378906 19.1981086730957 87.56894683837891 24.1176815032959 89.88571929931641 29.59514808654785 C 92.28398132324219 35.26528167724609 93.50001525878906 41.28932189941406 93.50001525878906 47.49993515014648 C 93.50001525878906 53.71054840087891 92.28398132324219 59.73458862304688 89.88571929931641 65.40472412109375 C 87.56894683837891 70.88218688964844 84.25196838378906 75.80176544189453 80.02691650390625 80.02680206298828 C 75.8018798828125 84.25183868408203 70.88229370117188 87.56881713867188 65.40482330322266 89.88558959960938 C 59.73467636108398 92.28384399414062 53.71063995361328 93.49987030029297 47.5000114440918 93.49987030029297 Z" stroke="none"/>
                                          <path d="M 47.5000114440918 3 C 41.49122619628906 3 35.66378021240234 4.1761474609375 30.17951965332031 6.495796203613281 C 24.880859375 8.7369384765625 20.12153625488281 11.94596862792969 16.03376770019531 16.03373718261719 C 11.94598388671875 20.12149047851562 8.736968994140625 24.88081359863281 6.495811462402344 30.17947387695312 C 4.176162719726562 35.66371917724609 3.000007629394531 41.49116516113281 3.000007629394531 47.49993515014648 C 3.000007629394531 53.50870513916016 4.176162719726562 59.33615112304688 6.495811462402344 64.82039642333984 C 8.736968994140625 70.11905670166016 11.94598388671875 74.87837982177734 16.03376770019531 78.96613311767578 C 20.12153625488281 83.05390167236328 24.880859375 86.26293182373047 30.17951965332031 88.50407409667969 C 35.66378021240234 90.82372283935547 41.49122619628906 91.99987030029297 47.5000114440918 91.99987030029297 C 53.50879669189453 91.99987030029297 59.33624267578125 90.82372283935547 64.82050323486328 88.50407409667969 C 70.11916351318359 86.26293182373047 74.87848663330078 83.05390167236328 78.96625518798828 78.96613311767578 C 83.05403900146484 74.87837982177734 86.2630615234375 70.11905670166016 88.50421142578125 64.82039642333984 C 90.82386016845703 59.33615112304688 92.00001525878906 53.50870513916016 92.00001525878906 47.49993515014648 C 92.00001525878906 41.49116516113281 90.82386016845703 35.66371917724609 88.50421142578125 30.17947387695312 C 86.2630615234375 24.88081359863281 83.05403900146484 20.12149047851562 78.96625518798828 16.03373718261719 C 74.87848663330078 11.94596862792969 70.11916351318359 8.7369384765625 64.82050323486328 6.495796203613281 C 59.33624267578125 4.1761474609375 53.50879669189453 3 47.5000114440918 3 M 47.5000114440918 0 C 73.73353576660156 0 95.00001525878906 21.26644134521484 95.00001525878906 47.49993515014648 C 95.00001525878906 73.73342895507812 73.73353576660156 94.99987030029297 47.5000114440918 94.99987030029297 C 21.26648712158203 94.99987030029297 7.62939453125e-06 73.73342895507812 7.62939453125e-06 47.49993515014648 C 7.62939453125e-06 21.26644134521484 21.26648712158203 0 47.5000114440918 0 Z" stroke="none" fill="#e44b36"/>
                                        </g>
                                      </g>
                                    </g>
                                  </g>
                                </g>
                              </g>
                            </g>
                          </g>
                        </g>
                      </g>
                    </g>
                  </g>
                </g>
              </g>
            </g>
          </g>
        </g>
      </g>
    </g>
    <g id="filled_outline" data-name="filled outline" transform="translate(1120.789 3345.289)">
      <path id="Trazado_1048390" data-name="Trazado 1048390" d="M328,152h3.171v3.171H328Z" transform="translate(-270.775 -118.03)" fill="#fec093"/>
      <path id="Trazado_1048391" data-name="Trazado 1048391" d="M152,104h4.228v3.171H152Z" transform="translate(-118.03 -76.373)" fill="#fec093"/>
      <path id="Trazado_1048392" data-name="Trazado 1048392" d="M201.343,133.742H194.4a5.021,5.021,0,0,1-4.421-2.641L184,120h4.281a3.171,3.171,0,0,1,2.9,1.883l3.392,7.63,6.981.872a1.685,1.685,0,0,1-.209,3.356Z" transform="translate(-145.802 -90.258)" fill="#ffd508"/>
      <path id="Trazado_1048393" data-name="Trazado 1048393" d="M16,344H27.628l-10.57,19.027H16Z" transform="translate(0 -284.661)" fill="#ececec"/>
      <path id="Trazado_1048394" data-name="Trazado 1048394" d="M24,363.027,34.57,344H46.2l-10.57,19.027Z" transform="translate(-6.943 -284.661)" fill="#7c8c9a"/>
      <path id="Trazado_1048395" data-name="Trazado 1048395" d="M112,363.027,122.57,344H134.2l-10.57,19.027Z" transform="translate(-83.315 -284.661)" fill="#ececec"/>
      <path id="Trazado_1048396" data-name="Trazado 1048396" d="M200,363.027,210.57,344H222.2l-10.57,19.027Z" transform="translate(-159.688 -284.661)" fill="#7c8c9a"/>
      <path id="Trazado_1048397" data-name="Trazado 1048397" d="M288,363.027,298.57,344H310.2l-10.57,19.027Z" transform="translate(-236.06 -284.661)" fill="#ececec"/>
      <path id="Trazado_1048398" data-name="Trazado 1048398" d="M376,363.027,386.57,344h5.285v11.416l-4.228,7.611Z" transform="translate(-312.433 -284.661)" fill="#7c8c9a"/>
      <path id="Trazado_1048399" data-name="Trazado 1048399" d="M144,56v4.228a4.228,4.228,0,1,0,8.456,0V56Z" transform="translate(-111.087 -34.715)" fill="#fec093"/>
      <path id="Trazado_1048400" data-name="Trazado 1048400" d="M136,120h10.57v14.8H136Z" transform="translate(-104.144 -90.258)" fill="#ffd508"/>
      <path id="Trazado_1048401" data-name="Trazado 1048401" d="M326.342,112v4.228a3.171,3.171,0,1,1-6.342,0V112Z" transform="translate(-263.832 -83.315)" fill="#fec093"/>
      <path id="Trazado_1048402" data-name="Trazado 1048402" d="M308.685,255.4H296l2.114-7.4h8.456Z" transform="translate(-243.003 -201.346)" fill="#3f51b5"/>
      <path id="Trazado_1048403" data-name="Trazado 1048403" d="M99.185,252.084l2.854-9.514a4.227,4.227,0,0,0,.078-2.132L100.242,232H89.672v8.8a2.114,2.114,0,0,1-.437,1.287l-6.4,8.336a1.057,1.057,0,0,0,.091,1.391l3.829,3.829,0,0a3.086,3.086,0,0,0-.058-4.422l-.2-.189,6.353-7.261a4.228,4.228,0,0,0,1.046-2.784v-3.7h3.289l.843,3.792a2.116,2.116,0,0,1,.009.873L96.27,250.8a13.21,13.21,0,0,0-.256,2.591v.806a1.057,1.057,0,0,0,1.057,1.057h5.285A3.171,3.171,0,0,0,99.185,252.084Z" transform="translate(-57.816 -187.46)" fill="#3f51b5"/>
      <path id="Trazado_1048404" data-name="Trazado 1048404" d="M288.087,304h-4.228l-3.807,12.374a1.057,1.057,0,0,0,1.01,1.368h4.911v-.807a2.114,2.114,0,0,0-1.169-1.891l-.945-.473Z" transform="translate(-229.122 -249.946)" fill="#fec093"/>
      <path id="Trazado_1048405" data-name="Trazado 1048405" d="M358.342,314.57,356.228,304H352l2.982,12.922a1.057,1.057,0,0,0,1.03.819h4.444V317.1a2.378,2.378,0,0,0-1.315-2.127Z" transform="translate(-291.604 -249.946)" fill="#fec093"/>
      <path id="Trazado_1048406" data-name="Trazado 1048406" d="M370.462,384l.543,2.352a1.057,1.057,0,0,0,1.03.819h4.444v-.644a2.378,2.378,0,0,0-1.315-2.127l-.8-.4Z" transform="translate(-307.627 -319.376)" fill="#3f51b5"/>
      <path id="Trazado_1048407" data-name="Trazado 1048407" d="M280.606,384l-.555,1.8a1.057,1.057,0,0,0,1.01,1.368h4.911v-.807a2.114,2.114,0,0,0-1.169-1.891l-.945-.473Z" transform="translate(-229.121 -319.376)" fill="#3f51b5"/>
      <path id="Trazado_1048408" data-name="Trazado 1048408" d="M330.616,177.322l-5.931-2.979-2.575-5.348a2.048,2.048,0,0,0-1.654-.991v0H312v10.57h8.456v-5.021l1.169,1.9a3.171,3.171,0,0,0,1.31,1.189l6.388,3.12a1.381,1.381,0,1,0,1.293-2.44Z" transform="translate(-256.889 -131.916)" fill="#e51c23"/>
      <path id="Trazado_1048409" data-name="Trazado 1048409" d="M295.156,182.449l-5.785-3.99a3.171,3.171,0,0,1-1.371-2.61v-4.677A3.171,3.171,0,0,1,291.171,168v8.456l5.58,3.6a1.437,1.437,0,1,1-1.6,2.39Z" transform="translate(-236.06 -131.916)" fill="#e51c23"/>
      <path id="Trazado_1048410" data-name="Trazado 1048410" d="M108.228,130.57V120h-1.057A3.171,3.171,0,0,0,104,123.171v8.456a3.171,3.171,0,0,0,3.171,3.171h6.744a1.712,1.712,0,0,0,1.712-1.712v-.008a1.712,1.712,0,0,0-1.431-1.689Z" transform="translate(-76.373 -90.258)" fill="#ffd508"/>
      <path id="Trazado_1048411" data-name="Trazado 1048411" d="M288.456,88h-4.748a2.114,2.114,0,0,0-2.033,1.533L280,95.4h.529a3.171,3.171,0,0,0,2.537-1.268l2.22-2.96h3.171Z" transform="translate(-229.118 -62.487)" fill="#bc6549"/>
      <path id="Trazado_1048412" data-name="Trazado 1048412" d="M144,31.4h1.057a3.171,3.171,0,0,0,3.171-3.171l4.228,1.057V28.228a4.228,4.228,0,1,0-8.456,0Z" transform="translate(-111.087 -6.943)" fill="#dd7b58"/>
      <path id="Trazado_1048413" data-name="Trazado 1048413" d="M326.342,93.285l-3.171-1.057L320,91.171V90.114A2.114,2.114,0,0,1,322.114,88h1.057a3.171,3.171,0,0,1,3.171,3.171Z" transform="translate(-263.832 -62.487)" fill="#dd7b58"/>
      <path id="Trazado_1048414" data-name="Trazado 1048414" d="M78.366,58.282H66.506L65.9,55.087a1.055,1.055,0,0,0,.8-1.324l-2.074-7.257V44.831l.149.25a1.057,1.057,0,0,0,.384.377l5.9,3.374A2.9,2.9,0,1,0,73.8,43.717l-4.21-2.1-3.214-5.09a3.121,3.121,0,0,0-2.656-1.5H63a4.2,4.2,0,0,0,.568-2.114V28.685a4.233,4.233,0,0,0-4.228-4.228H54.591a3.184,3.184,0,0,0-3.049,2.3l-1.676,5.867a1.057,1.057,0,0,0,1.016,1.347h.529a4.248,4.248,0,0,0,3.383-1.691l.317-.423v1.057a4.2,4.2,0,0,0,.569,2.114H54.054a4.235,4.235,0,0,0-4.122,3.3,1.062,1.062,0,0,1-.681-.588l-2.908-6.539a4.232,4.232,0,0,0-3.864-2.51H41.366a5.257,5.257,0,0,0,1.06-3.171V21.285a5.285,5.285,0,0,0-10.57,0v4.228a5.257,5.257,0,0,0,1.06,3.171H30.8a4.233,4.233,0,0,0-4.228,4.228v8.456A4.233,4.233,0,0,0,30.8,45.6v7.739a1.062,1.062,0,0,1-.219.643l-3.3,4.3H17.057A1.057,1.057,0,0,0,16,59.339V78.366a1.057,1.057,0,0,0,1.057,1.057H75.195a1.057,1.057,0,0,0,.924-.544l3.171-5.707a1.058,1.058,0,0,0,.133-.513V59.339A1.057,1.057,0,0,0,78.366,58.282ZM55.111,28.332,53.1,31.01a2.116,2.116,0,0,1-.756.626l1.229-4.3a1.062,1.062,0,0,1,1.016-.766h.519ZM72.341,60.4l-2.916,5.249a3.165,3.165,0,0,0-1.774-1.35l-.742-3.9Zm-5.346,5.91a1.056,1.056,0,0,1,.619.432H64.408l-.473-2.05h1.638l.126.663a1.057,1.057,0,0,0,.782.828Zm-1.823-3.733H63.447l-1.722-7.463h2.025Zm-12.6,2.114h1.112a1.056,1.056,0,0,0,.581.882l.945.473a1.051,1.051,0,0,1,.555.7H51.94Zm1.848-2.114h-1.2l2.3-7.463H57.4ZM57.567,60.4h3.147l-3.022,5.439a3.155,3.155,0,0,0-1.537-1.683l-.076-.038Zm.846-2.114L59.6,55.31l.685,2.971ZM54.4,53l.908-3.179L58.278,51.8a2.894,2.894,0,0,0,3.966-4.088h.526L64.28,53Zm2.827-25.369V26.57h2.114a2.117,2.117,0,0,1,2.114,2.114v.647l-4.228-1.409Zm0,2.524,4.228,1.409v1.352a2.114,2.114,0,1,1-4.228,0Zm-5.285,9.1a2.117,2.117,0,0,1,2.114-2.114h9.666a1,1,0,0,1,.85.481l.013.02,3.377,5.348a1.056,1.056,0,0,0,.421.381l4.473,2.237A.788.788,0,1,1,72.111,47l-5.663-3.236-1.972-3.314a1.057,1.057,0,0,0-1.966.54V45.6H59.091l-2.923-1.671V39.255H54.054V44.54a1.057,1.057,0,0,0,.533.918l5.688,3.25a.783.783,0,1,1-.823,1.332l-6.336-4.224a2.638,2.638,0,0,1-1.176-2.2Zm0,8.319,1.516,1.011L51.98,53.763A1.057,1.057,0,0,0,53,55.111h.309l-.976,3.171H44.375l.861-2.868a5.3,5.3,0,0,0,.1-2.665l-1.85-8.324V39.135l1.078,2.335a5.3,5.3,0,0,0,4.8,3.071h.557a4.744,4.744,0,0,0,2.027,3.034ZM49.086,60.4l-3.594,6.47a4.242,4.242,0,0,0-2.769-3.076L43.74,60.4ZM33.97,21.285a3.171,3.171,0,0,1,6.328-.3l-2.9-.725a1.057,1.057,0,0,0-1.313,1.025A2.117,2.117,0,0,1,33.97,23.4Zm4.023,1.3,2.319.58v2.346a3.171,3.171,0,0,1-6.342,0,4.236,4.236,0,0,0,4.023-2.926ZM28.685,41.369V32.913A2.117,2.117,0,0,1,30.8,30.8h11.68a2.116,2.116,0,0,1,1.932,1.255l2.907,6.539a3.184,3.184,0,0,0,2.5,1.859h0v1.974h-.466a3.18,3.18,0,0,1-2.879-1.842l-3.095-6.7a1.057,1.057,0,0,0-2.017.443v5.9a2.757,2.757,0,0,0-.337-.057l-8.12-.812V32.913H30.8v7.4a1.057,1.057,0,0,0,.951,1.052l9.071.907a.608.608,0,0,1-.06,1.212H30.8A2.117,2.117,0,0,1,28.685,41.369Zm3.573,13.9a3.189,3.189,0,0,0,.655-1.931V45.6h8.666l1.691,7.61a3.177,3.177,0,0,1-.058,1.6L40.357,64.32a1.057,1.057,0,0,0,1.012,1.361,2.115,2.115,0,0,1,1.83,1.057H39.255V64.729L41.261,54.7a3.154,3.154,0,0,0-.014-1.31L40.4,49.6a1.057,1.057,0,0,0-1.032-.828H36.084a1.057,1.057,0,0,0-1.057,1.057v3.7a3.171,3.171,0,0,1-.784,2.087L27.889,62.87a1.057,1.057,0,0,0,.068,1.463l.2.189a2.014,2.014,0,0,1,.633,1.446,2.04,2.04,0,0,1-.057.508L25.859,63.6Zm6.931-.983-.8,4H34.714L35.833,57a5.285,5.285,0,0,0,1.308-3.48v-2.64h1.384l.659,2.965a1.051,1.051,0,0,1,0,.437ZM18.114,60.4h7.542l-2.038,2.656a1.057,1.057,0,0,0,.013,1.3l-5.517,9.931Zm.74,16.913,6.329-11.392,3.011,3.011a1.058,1.058,0,0,0,.748.309h.011a1.059,1.059,0,0,0,.739-.312,4.147,4.147,0,0,0,.414-5.376L32.864,60.4h4.594l-9.4,16.913Zm11.627,0,6.659-11.988V67.8A1.057,1.057,0,0,0,38.2,68.852h6.19l-4.7,8.456Zm11.628,0,9.4-16.913h.175l-1.76,5.72a2.114,2.114,0,0,0,2.02,2.736h4.076l-4.7,8.456Zm11.627,0,7.73-13.914.881,3.819a2.1,2.1,0,0,0,2.06,1.638h3.235l-4.7,8.456Zm23.572-4.924-2.736,4.924H65.364L74.76,60.4h2.549Z" transform="translate(0 0)"/>
    </g>
  </g>
</svg>
