<svg xmlns="http://www.w3.org/2000/svg" xmlns:xlink="http://www.w3.org/1999/xlink" width="113" height="113" viewBox="0 0 113 113">
  <defs>
    <filter id="Trazado_982547" x="0" y="0" width="113" height="113" filterUnits="userSpaceOnUse">
      <feOffset dy="3" input="SourceAlpha"/>
      <feGaussianBlur stdDeviation="3" result="blur"/>
      <feFlood flood-opacity="0.161"/>
      <feComposite operator="in" in2="blur"/>
      <feComposite in="SourceGraphic"/>
    </filter>
  </defs>
  <g id="Grupo_1208981" data-name="Grupo 1208981" transform="translate(-9015.758 -3343)">
    <g id="Grupo_1208894" data-name="Grupo 1208894" transform="translate(7903.758 -2284.425)">
      <g id="Grupo_1202104" data-name="Grupo 1202104" transform="translate(0 -1149.226)">
        <g id="Grupo_1201923" data-name="Grupo 1201923" transform="translate(-4174.49 4856.378)">
          <g id="Grupo_1176928" data-name="Grupo 1176928" transform="translate(5295.49 1926.273)">
            <g id="Grupo_1172322" data-name="Grupo 1172322" transform="translate(0 0)">
              <g id="Grupo_1164700" data-name="Grupo 1164700">
                <g id="Grupo_1160931" data-name="Grupo 1160931">
                  <g id="Grupo_1160749" data-name="Grupo 1160749">
                    <g id="Grupo_1158891" data-name="Grupo 1158891">
                      <g id="Grupo_1157406" data-name="Grupo 1157406">
                        <g id="Grupo_1155793" data-name="Grupo 1155793">
                          <g id="Grupo_1154704" data-name="Grupo 1154704">
                            <g id="Grupo_1150790" data-name="Grupo 1150790">
                              <g id="Grupo_1154214" data-name="Grupo 1154214">
                                <g id="Grupo_1152583" data-name="Grupo 1152583">
                                  <g id="Grupo_1146973" data-name="Grupo 1146973">
                                    <g id="Grupo_1146954" data-name="Grupo 1146954">
                                      <g transform="matrix(1, 0, 0, 1, -9, -6)" filter="url(#Trazado_982547)">
                                        <g id="Trazado_982547-2" data-name="Trazado 982547" transform="translate(9 6)" fill="#fcebe9">
                                          <path d="M 47.5000114440918 93.49987030029297 C 41.28938293457031 93.49987030029297 35.26534652709961 92.28384399414062 29.5951976776123 89.88558959960938 C 24.11773109436035 87.56881713867188 19.19814491271973 84.25183868408203 14.97310447692871 80.02680206298828 C 10.74805164337158 75.80176544189453 7.43107795715332 70.88218688964844 5.114304542541504 65.40472412109375 C 2.716038227081299 59.73458862304688 1.500011444091797 53.71054840087891 1.500011444091797 47.49993515014648 C 1.500011444091797 41.28932189941406 2.716038227081299 35.26528167724609 5.114304542541504 29.59514808654785 C 7.43107795715332 24.1176815032959 10.74805164337158 19.1981086730957 14.97310447692871 14.97306823730469 C 19.19814491271973 10.74802875518799 24.11773109436035 7.431055068969727 29.5951976776123 5.11428165435791 C 35.26534652709961 2.716028451919556 41.28938293457031 1.500001788139343 47.5000114440918 1.500001788139343 C 53.71063995361328 1.500001788139343 59.73467636108398 2.716028451919556 65.40482330322266 5.11428165435791 C 70.88229370117188 7.431055068969727 75.8018798828125 10.74802875518799 80.02691650390625 14.97306823730469 C 84.25196838378906 19.1981086730957 87.56894683837891 24.1176815032959 89.88571929931641 29.59514808654785 C 92.28398132324219 35.26528167724609 93.50001525878906 41.28932189941406 93.50001525878906 47.49993515014648 C 93.50001525878906 53.71054840087891 92.28398132324219 59.73458862304688 89.88571929931641 65.40472412109375 C 87.56894683837891 70.88218688964844 84.25196838378906 75.80176544189453 80.02691650390625 80.02680206298828 C 75.8018798828125 84.25183868408203 70.88229370117188 87.56881713867188 65.40482330322266 89.88558959960938 C 59.73467636108398 92.28384399414062 53.71063995361328 93.49987030029297 47.5000114440918 93.49987030029297 Z" stroke="none"/>
                                          <path d="M 47.5000114440918 3 C 41.49122619628906 3 35.66378021240234 4.1761474609375 30.17951965332031 6.495796203613281 C 24.880859375 8.7369384765625 20.12153625488281 11.94596862792969 16.03376770019531 16.03373718261719 C 11.94598388671875 20.12149047851562 8.736968994140625 24.88081359863281 6.495811462402344 30.17947387695312 C 4.176162719726562 35.66371917724609 3.000007629394531 41.49116516113281 3.000007629394531 47.49993515014648 C 3.000007629394531 53.50870513916016 4.176162719726562 59.33615112304688 6.495811462402344 64.82039642333984 C 8.736968994140625 70.11905670166016 11.94598388671875 74.87837982177734 16.03376770019531 78.96613311767578 C 20.12153625488281 83.05390167236328 24.880859375 86.26293182373047 30.17951965332031 88.50407409667969 C 35.66378021240234 90.82372283935547 41.49122619628906 91.99987030029297 47.5000114440918 91.99987030029297 C 53.50879669189453 91.99987030029297 59.33624267578125 90.82372283935547 64.82050323486328 88.50407409667969 C 70.11916351318359 86.26293182373047 74.87848663330078 83.05390167236328 78.96625518798828 78.96613311767578 C 83.05403900146484 74.87837982177734 86.2630615234375 70.11905670166016 88.50421142578125 64.82039642333984 C 90.82386016845703 59.33615112304688 92.00001525878906 53.50870513916016 92.00001525878906 47.49993515014648 C 92.00001525878906 41.49116516113281 90.82386016845703 35.66371917724609 88.50421142578125 30.17947387695312 C 86.2630615234375 24.88081359863281 83.05403900146484 20.12149047851562 78.96625518798828 16.03373718261719 C 74.87848663330078 11.94596862792969 70.11916351318359 8.7369384765625 64.82050323486328 6.495796203613281 C 59.33624267578125 4.1761474609375 53.50879669189453 3 47.5000114440918 3 M 47.5000114440918 0 C 73.73353576660156 0 95.00001525878906 21.26644134521484 95.00001525878906 47.49993515014648 C 95.00001525878906 73.73342895507812 73.73353576660156 94.99987030029297 47.5000114440918 94.99987030029297 C 21.26648712158203 94.99987030029297 7.62939453125e-06 73.73342895507812 7.62939453125e-06 47.49993515014648 C 7.62939453125e-06 21.26644134521484 21.26648712158203 0 47.5000114440918 0 Z" stroke="none" fill="#e44b36"/>
                                        </g>
                                      </g>
                                    </g>
                                  </g>
                                </g>
                              </g>
                            </g>
                          </g>
                        </g>
                      </g>
                    </g>
                  </g>
                </g>
              </g>
            </g>
          </g>
        </g>
      </g>
    </g>
    <g id="car_923820" transform="translate(9041.639 3366.881)">
      <g id="Grupo_1208976" data-name="Grupo 1208976" transform="translate(3.855 21.143)">
        <path id="Trazado_1048446" data-name="Trazado 1048446" d="M54.642,182.742h-18.2l-.12.692L34.281,186.2a4.924,4.924,0,0,0-.965,2.927v6.886H46.979Z" transform="translate(-33.316 -182.742)" fill="#5796d1"/>
        <path id="Trazado_1048447" data-name="Trazado 1048447" d="M308.435,186.2l-2.046-2.767-.12-.692H287.251l7.663,13.272H309.4v-6.886A4.924,4.924,0,0,0,308.435,186.2Z" transform="translate(-257.871 -182.742)" fill="#5796d1"/>
      </g>
      <path id="Trazado_1048448" data-name="Trazado 1048448" d="M82.6,23.011l4.027,6.975h19.018l-3-18.385a1.909,1.909,0,0,0-1.884-1.6H65.252a1.909,1.909,0,0,0-1.884,1.6l-3,18.385h18.2Z" transform="translate(-53.388 -8.843)" fill="#80c4ec"/>
      <path id="Trazado_1048449" data-name="Trazado 1048449" d="M122.094,61.932l4.027,6.975h13.85L137.6,54.013H107.415l-2.376,14.894h13.028Z" transform="translate(-92.886 -47.764)" fill="#ccecfc"/>
      <g id="Grupo_1208977" data-name="Grupo 1208977" transform="translate(1.157 14.086)">
        <path id="Trazado_1048450" data-name="Trazado 1048450" d="M10,121.742V128.8h5.828l1.15-7.058Z" transform="translate(-10 -121.742)" fill="#feda67"/>
        <path id="Trazado_1048451" data-name="Trazado 1048451" d="M441.689,121.742l1.15,7.058h5.828v-7.058Z" transform="translate(-391.743 -121.742)" fill="#feda67"/>
      </g>
      <path id="Trazado_1048452" data-name="Trazado 1048452" d="M151.844,82.1a1.157,1.157,0,0,1-.818-1.975l4.329-4.329a1.157,1.157,0,0,1,1.636,1.636l-4.329,4.329A1.154,1.154,0,0,1,151.844,82.1Z" transform="translate(-133.253 -66.723)"/>
      <path id="Trazado_1048453" data-name="Trazado 1048453" d="M175.467,91.331a1.157,1.157,0,0,1-.818-1.975l6.964-6.964a1.157,1.157,0,1,1,1.636,1.636l-6.964,6.964A1.153,1.153,0,0,1,175.467,91.331Z" transform="translate(-154.143 -72.56)"/>
      <path id="Trazado_1048454" data-name="Trazado 1048454" d="M58.669,122.457,33.316,166.37H84.022Z" transform="translate(-29.461 -108.289)" fill="#f15d43"/>
      <g id="Grupo_1208978" data-name="Grupo 1208978" transform="translate(7.201 42.514)">
        <path id="Trazado_1048455" data-name="Trazado 1048455" d="M67.877,367.452H62.235v8.291h.855Z" transform="translate(-62.235 -367.452)" fill="#828aa0"/>
        <path id="Trazado_1048456" data-name="Trazado 1048456" d="M398.68,375.743h1.677v-8.291h-6.464Z" transform="translate(-355.52 -367.452)" fill="#828aa0"/>
      </g>
      <g id="Grupo_1208979" data-name="Grupo 1208979" transform="translate(2.581 34.416)">
        <path id="Trazado_1048457" data-name="Trazado 1048457" d="M37.249,297.456H22.312v8.1H32.573Z" transform="translate(-22.312 -297.456)" fill="#dae9ec"/>
        <path id="Trazado_1048458" data-name="Trazado 1048458" d="M353.481,297.456l4.676,8.1H369.24v-8.1Z" transform="translate(-315.165 -297.456)" fill="#dae9ec"/>
      </g>
      <g id="Grupo_1208980" data-name="Grupo 1208980" transform="translate(10.906 27.349)">
        <path id="Trazado_1048459" data-name="Trazado 1048459" d="M323.965,243.447H331.4V236.38H320.1v.378Z" transform="translate(-293.973 -236.38)" fill="#ffe986"/>
        <path id="Trazado_1048460" data-name="Trazado 1048460" d="M104.95,236.38H94.258v7.066h6.612Z" transform="translate(-94.258 -236.38)" fill="#ffe986"/>
      </g>
      <path id="Trazado_1048461" data-name="Trazado 1048461" d="M58.081,12.929H52.087L50.4,2.573A3.054,3.054,0,0,0,47.374,0H11.864A3.054,3.054,0,0,0,8.838,2.573L7.151,12.929H1.157A1.157,1.157,0,0,0,0,14.086v7.058A1.157,1.157,0,0,0,1.157,22.3H5.083L3.889,23.914A6.121,6.121,0,0,0,2.7,27.53v5.729H2.581a1.157,1.157,0,0,0-1.157,1.157v8.1a1.157,1.157,0,0,0,1.157,1.157H6.044v7.134a1.153,1.153,0,0,0,.257.726L2.853,57.5a1.157,1.157,0,0,0,1,1.735H54.561a1.157,1.157,0,0,0,1-1.735l-3.222-5.581a1.157,1.157,0,0,0,.854-1.117V43.671h3.462a1.157,1.157,0,0,0,1.157-1.157v-8.1a1.157,1.157,0,0,0-1.157-1.157h-.116V27.53a6.122,6.122,0,0,0-1.192-3.615L54.155,22.3h3.926a1.157,1.157,0,0,0,1.157-1.157V14.086A1.157,1.157,0,0,0,58.081,12.929ZM11.122,2.945a.749.749,0,0,1,.742-.631h35.51a.749.749,0,0,1,.742.631l2.776,17.042h-2.82L45.852,6.067a1.157,1.157,0,0,0-1.143-.975H14.529a1.157,1.157,0,0,0-1.143.975l-2.22,13.919H8.346ZM47.176,33.259h-5.61l-2.744-4.752h8.354v4.752ZM30.21,13.59l-.02-.033a1.157,1.157,0,0,0-1.964,0l-.02.033-3.693,6.4h-11l2.006-12.58H43.723l2.006,12.58H33.9Zm-27.9,6.4V15.243h4.46L6,19.986Zm2.7,7.544a3.792,3.792,0,0,1,.738-2.24L7.8,22.523a1.152,1.152,0,0,0,.129-.223H23.177L20.93,26.192H10.906a1.157,1.157,0,0,0-1.157,1.157v5.909H5.012Zm14.582.976L16.85,33.259H12.063V28.506ZM3.738,41.357V35.573H15.514l-3.34,5.785Zm7.1,2.314-2.481,4.3v-4.3ZM52.557,56.924H5.859L29.208,16.482Zm-4.98-13.253h3.3v5.722ZM55.5,41.357H46.241L42.9,35.573H55.5ZM51.443,22.524l2.046,2.767a3.792,3.792,0,0,1,.738,2.24v5.729H49.49V27.349a1.157,1.157,0,0,0-1.157-1.157H37.486L35.239,22.3H51.313A1.153,1.153,0,0,0,51.443,22.524Zm5.482-2.537H53.237l-.773-4.744h4.46Z"/>
      <path id="Trazado_1048462" data-name="Trazado 1048462" d="M102.6,232.486l17.337-30.029,17.337,30.029Z" transform="translate(-90.727 -179.033)" fill="#dae9ec"/>
      <path id="Trazado_1048463" data-name="Trazado 1048463" d="M128.429,224.8H93.755a1.157,1.157,0,0,1-1-1.736l17.337-30.029a1.157,1.157,0,0,1,2,0l17.337,30.029a1.157,1.157,0,0,1-1,1.736Zm-32.671-2.314h30.667l-15.333-26.558Z" transform="translate(-81.884 -170.19)"/>
      <path id="Trazado_1048464" data-name="Trazado 1048464" d="M243.607,410.138a1.151,1.151,0,0,1-.227-.023,1.168,1.168,0,0,1-.216-.066,1.23,1.23,0,0,1-.2-.106,1.162,1.162,0,0,1-.176-.143,1.175,1.175,0,0,1-.143-.176,1.138,1.138,0,0,1-.106-.2,1.169,1.169,0,0,1-.066-.216,1.169,1.169,0,0,1,0-.451,1.207,1.207,0,0,1,.066-.218,1.173,1.173,0,0,1,.25-.375,1.245,1.245,0,0,1,.176-.145,1.224,1.224,0,0,1,.2-.105,1.087,1.087,0,0,1,.216-.066,1.146,1.146,0,0,1,.452,0,1.086,1.086,0,0,1,.216.066,1.224,1.224,0,0,1,.2.105,1.245,1.245,0,0,1,.176.145,1.108,1.108,0,0,1,.143.176,1.176,1.176,0,0,1,.106.2,1.207,1.207,0,0,1,.066.218,1.169,1.169,0,0,1,0,.451,1.169,1.169,0,0,1-.066.216,1.139,1.139,0,0,1-.106.2,1.109,1.109,0,0,1-.143.176,1.157,1.157,0,0,1-.176.143,1.23,1.23,0,0,1-.2.106,1.168,1.168,0,0,1-.216.066A1.149,1.149,0,0,1,243.607,410.138Z" transform="translate(-214.399 -360.64)"/>
      <path id="Trazado_1048465" data-name="Trazado 1048465" d="M243.6,291.82a1.157,1.157,0,0,1-1.157-1.157v-10.3a1.157,1.157,0,0,1,2.314,0v10.3A1.157,1.157,0,0,1,243.6,291.82Z" transform="translate(-214.394 -246.905)"/>
    </g>
  </g>
</svg>
