<svg xmlns="http://www.w3.org/2000/svg" xmlns:xlink="http://www.w3.org/1999/xlink" width="110" height="110" viewBox="0 0 110 110">
  <defs>
    <filter id="Trazado_982547" x="0" y="0" width="110" height="110" filterUnits="userSpaceOnUse">
      <feOffset dy="3" input="SourceAlpha"/>
      <feGaussianBlur stdDeviation="3" result="blur"/>
      <feFlood flood-opacity="0.161"/>
      <feComposite operator="in" in2="blur"/>
      <feComposite in="SourceGraphic"/>
    </filter>
  </defs>
  <g id="Grupo_1209001" data-name="Grupo 1209001" transform="translate(-272.19 -3952.728)">
    <g id="Grupo_1166442" data-name="Grupo 1166442" transform="translate(-525 1993.205)">
      <g id="Grupo_1164703" data-name="Grupo 1164703" transform="translate(806.19 1965.523)">
        <g id="Grupo_1160931" data-name="Grupo 1160931" transform="translate(0)">
          <g id="Grupo_1160749" data-name="Grupo 1160749" transform="translate(0)">
            <g id="Grupo_1158891" data-name="Grupo 1158891" transform="translate(0 0)">
              <g id="Grupo_1157406" data-name="Grupo 1157406" transform="translate(0)">
                <g id="Grupo_1155793" data-name="Grupo 1155793" transform="translate(0)">
                  <g id="Grupo_1154704" data-name="Grupo 1154704" transform="translate(0)">
                    <g id="Grupo_1150790" data-name="Grupo 1150790" transform="translate(0)">
                      <g id="Grupo_1154214" data-name="Grupo 1154214" transform="translate(0)">
                        <g id="Grupo_1152583" data-name="Grupo 1152583" transform="translate(0 0)">
                          <g id="Grupo_1146973" data-name="Grupo 1146973" transform="translate(0 0)">
                            <g id="Grupo_1146954" data-name="Grupo 1146954">
                              <g transform="matrix(1, 0, 0, 1, -9, -6)" filter="url(#Trazado_982547)">
                                <g id="Trazado_982547-2" data-name="Trazado 982547" transform="translate(9 6)" fill="#fef7ea">
                                  <path d="M 46.00000381469727 90.49988555908203 C 39.99188232421875 90.49988555908203 34.16427230834961 89.32352447509766 28.67905807495117 87.00347137451172 C 23.38020324707031 84.76226043701172 18.62104415893555 81.55342864990234 14.53375053405762 77.46615600585938 C 10.44647026062012 73.37887573242188 7.237643718719482 68.61971282958984 4.996417045593262 63.32085800170898 C 2.676363706588745 57.83565902709961 1.500003814697266 52.00806045532227 1.500003814697266 45.99993896484375 C 1.500003814697266 39.99181747436523 2.676363706588745 34.16421890258789 4.996417045593262 28.67901802062988 C 7.237643718719482 23.38017845153809 10.44647026062012 18.62101936340332 14.53375053405762 14.53373908996582 C 18.62104415893555 10.44645881652832 23.38020324707031 7.237632274627686 28.67905807495117 4.996418952941895 C 34.16427230834961 2.676365613937378 39.99188232421875 1.500005602836609 46.00000381469727 1.500005602836609 C 52.00812530517578 1.500005602836609 57.83573532104492 2.676365613937378 63.32094955444336 4.996418952941895 C 68.61980438232422 7.237632274627686 73.37897491455078 10.44645881652832 77.46625518798828 14.53373908996582 C 81.55355072021484 18.62101936340332 84.76236724853516 23.38017845153809 87.00359344482422 28.67901802062988 C 89.32364654541016 34.16421890258789 90.5 39.99181747436523 90.5 45.99993896484375 C 90.5 52.00806045532227 89.32364654541016 57.83565902709961 87.00359344482422 63.32085800170898 C 84.76236724853516 68.61971282958984 81.55355072021484 73.37887573242188 77.46625518798828 77.46615600585938 C 73.37897491455078 81.55342864990234 68.61980438232422 84.76226043701172 63.32094955444336 87.00347137451172 C 57.83573532104492 89.32352447509766 52.00812530517578 90.49988555908203 46.00000381469727 90.49988555908203 Z" stroke="none"/>
                                  <path d="M 46.00000381469727 2.999992370605469 C 40.19371795654297 2.999992370605469 34.56270217895508 4.136497497558594 29.26338958740234 6.377906799316406 C 24.14333343505859 8.543510437011719 19.54441833496094 11.64437866210938 15.59440612792969 15.59439849853516 C 11.64440155029297 19.54439544677734 8.54351806640625 24.14329528808594 6.377914428710938 29.26335144042969 C 4.136505126953125 34.56266784667969 3.000007629394531 40.19366836547852 3.000007629394531 45.99993896484375 C 3.000007629394531 51.80620956420898 4.136505126953125 57.43722534179688 6.377914428710938 62.73654174804688 C 8.54351806640625 67.85658264160156 11.64440155029297 72.45548248291016 15.59440612792969 76.40549468994141 C 19.54441833496094 80.35549926757812 24.14333343505859 83.45636749267578 29.26337432861328 85.62196350097656 C 34.56270217895508 87.86338043212891 40.19371795654297 88.9998779296875 46.00000381469727 88.9998779296875 C 51.80628967285156 88.9998779296875 57.43730545043945 87.86338043212891 62.73663330078125 85.62196350097656 C 67.85667419433594 83.45636749267578 72.45558929443359 80.35549926757812 76.40560150146484 76.40549468994141 C 80.35560607910156 72.45548248291016 83.45648956298828 67.85658264160156 85.62208557128906 62.73654174804688 C 87.86350250244141 57.43722534179688 89 51.80620956420898 89 45.99993896484375 C 89 40.19366836547852 87.86350250244141 34.56266784667969 85.62208557128906 29.26335144042969 C 83.45648956298828 24.14329528808594 80.35560607910156 19.54439544677734 76.40560150146484 15.59439849853516 C 72.45558929443359 11.64437866210938 67.85667419433594 8.543510437011719 62.73661804199219 6.377906799316406 C 57.43730545043945 4.136497497558594 51.80628967285156 2.999992370605469 46.00000381469727 2.999992370605469 M 46.00000381469727 -7.62939453125e-06 C 71.40510559082031 -7.62939453125e-06 92 20.59487915039062 92 45.99993896484375 C 92 71.40501403808594 71.40510559082031 91.99988555908203 46.00000381469727 91.99988555908203 C 20.59490203857422 91.99988555908203 7.62939453125e-06 71.40501403808594 7.62939453125e-06 45.99993896484375 C 7.62939453125e-06 20.59487915039062 20.59490203857422 -7.62939453125e-06 46.00000381469727 -7.62939453125e-06 Z" stroke="none" fill="#fcba3d"/>
                                </g>
                              </g>
                            </g>
                          </g>
                        </g>
                      </g>
                    </g>
                  </g>
                </g>
              </g>
            </g>
          </g>
        </g>
      </g>
    </g>
    <g id="data-validation_18197159" transform="translate(297.445 3945.081)">
      <path id="Trazado_1048503" data-name="Trazado 1048503" d="M76.969,43.515h31.58v46.3H76.969Z" transform="translate(-67.792 -7.053)" fill="#b5adb6"/>
      <g id="Grupo_1209000" data-name="Grupo 1209000" transform="translate(0.942 39.54)">
        <path id="Trazado_1048504" data-name="Trazado 1048504" d="M50.181,127.01V89.71l9-9H80.519v38.319a8.01,8.01,0,0,1-7.985,7.985Z" transform="translate(-45.144 -79.343)" fill="#efedef" fill-rule="evenodd"/>
        <path id="Trazado_1048505" data-name="Trazado 1048505" d="M8,393.025a4.8,4.8,0,0,1,4.789-4.789H35.508a4.948,4.948,0,0,0,0,9.582H12.79A4.805,4.805,0,0,1,8,393.025Z" transform="translate(-8 -350.151)" fill="#d7d0d6" fill-rule="evenodd"/>
        <path id="Trazado_1048506" data-name="Trazado 1048506" d="M59.185,89.709h-9l9-9Z" transform="translate(-45.144 -79.343)" fill="#d7d0d6" fill-rule="evenodd"/>
        <path id="Trazado_1048507" data-name="Trazado 1048507" d="M253.85,208.391l1.53-2.647a5.123,5.123,0,0,1,6.979-1.872l1.7.978v11.914l-9.42-5.439a2.156,2.156,0,0,1-.788-2.935Z" transform="translate(-224.243 -187.203)" fill="#a39ca4" fill-rule="evenodd"/>
        <path id="Trazado_1048508" data-name="Trazado 1048508" d="M253.847,208.415l1.53-2.647a5.116,5.116,0,0,1,4.238-2.549v11l-4.979-2.874a2.156,2.156,0,0,1-.788-2.935Z" transform="translate(-224.241 -187.227)" fill="#d7d5d7" fill-rule="evenodd"/>
        <path id="Trazado_1048509" data-name="Trazado 1048509" d="M271.539,225.293l19.272,11.126,1.53-2.647a2.969,2.969,0,0,0-1.083-4.041l-14.145-8.167a2.966,2.966,0,0,0-4.045,1.083Z" transform="translate(-240.071 -203.032)" fill="#60b7ff" fill-rule="evenodd"/>
        <path id="Trazado_1048510" data-name="Trazado 1048510" d="M342.093,211.671l8.442,4.874,2.085-3.6-8.445-4.874Z" transform="translate(-302.2 -191.495)" fill="#bd6428" fill-rule="evenodd"/>
        <path id="Trazado_1048511" data-name="Trazado 1048511" d="M378.195,89.805l-5.233-3.023,6.83-15.137c1.059-2.342,4.16-3,6.387-1.709s3.212,4.3,1.709,6.387Z" transform="translate(-329.383 -69.288)" fill="#995120" fill-rule="evenodd"/>
      </g>
      <path id="Trazado_1048512" data-name="Trazado 1048512" d="M14.568,65.187l-2.5,2.935a.956.956,0,0,1-1.33.122L9.447,67.2a.956.956,0,0,1,1.2-1.486l.562.455,1.9-2.226a.956.956,0,1,1,1.455,1.242ZM29.116,53.55H16.281a.956.956,0,1,0,0,1.912H29.116a.956.956,0,1,0,0-1.912Zm0,4.61H16.281a.956.956,0,1,0,0,1.912H29.116a.956.956,0,1,0,0-1.912ZM24.53,62.77H16.281a.956.956,0,0,0,0,1.912H24.53a.956.956,0,0,0,0-1.912ZM14.461,54.91a.956.956,0,0,0-1.348.107l-1.9,2.226-.562-.456a.956.956,0,1,0-1.2,1.486l1.286,1.043a.956.956,0,0,0,1.329-.122l2.505-2.934A.956.956,0,0,0,14.461,54.91ZM24.53,67.38H16.281a.956.956,0,1,0,0,1.912H24.53a.956.956,0,1,0,0-1.912Zm35.7-20.247L51.151,59.76l.688.4a.956.956,0,0,1,.35,1.306l-1.6,2.78,2.022,1.167a3.924,3.924,0,0,1,1.433,5.351l-1.53,2.647a.955.955,0,0,1-1.306.35l-9.492-5.481V82.766a.956.956,0,0,1-.956.956h-4.7a8.944,8.944,0,0,1-7.547,4.436c-.019,0-.037,0-.056,0l-.037,0-.082,0H5.978a.956.956,0,0,1-.123-.009.958.958,0,0,1-.124.009,5.745,5.745,0,0,1-.709-11.446V49.906a.938.938,0,0,1,0-.1c0-.024.006-.047.01-.07,0-.008,0-.015,0-.023a.736.736,0,0,1,.02-.081l0-.01c.008-.027.018-.053.028-.079l0-.009c.01-.025.022-.049.034-.072l.006-.012c.012-.022.025-.043.038-.063l.011-.017c.013-.02.028-.038.042-.057l.014-.018c.02-.024.041-.048.063-.07L8.22,46.312V36.462a.956.956,0,0,1,.956-.956h31.58a.956.956,0,0,1,.956.956V56.283l.375-.65a.956.956,0,0,1,1.306-.35l.693.4,6.393-14.174a4.91,4.91,0,0,1,3.034-2.647A5.837,5.837,0,0,1,61,43.182a4.91,4.91,0,0,1-.774,3.952ZM42.14,59.369l6.789,3.918,1.126-1.952-.725-.418,0,0-6.06-3.5ZM10.132,44.4,14.3,40.227c.022-.022.045-.043.07-.063l.015-.012c.019-.015.039-.03.06-.044l.015-.009c.021-.014.043-.027.066-.039l.01,0c.024-.013.049-.025.075-.036l.007,0c.026-.011.053-.021.081-.029l.008,0c.027-.008.055-.015.083-.021l.023,0c.023,0,.046-.008.07-.011a.942.942,0,0,1,.1,0H36.315a.956.956,0,0,1,.956.956V56.8a3.907,3.907,0,0,1,1.191.449l1.337.772v-20.6H10.132ZM8.286,48.95h5.739V43.211ZM23.78,82.417a5.9,5.9,0,0,1,1.413-3.833H5.731a3.833,3.833,0,1,0,0,7.666.958.958,0,0,1,.124.009.956.956,0,0,1,.123-.009H25.191a5.9,5.9,0,0,1-1.412-3.833Zm11.579-3.192V64.609l-3.424-1.977a.956.956,0,0,1-.35-1.306l1.526-2.647A3.889,3.889,0,0,1,35.359,56.9V41.859H15.937v8.047a.956.956,0,0,1-.956.956H6.934V76.671H28.449a.956.956,0,0,1,.238,1.882,3.989,3.989,0,0,0-.129,7.691,7.035,7.035,0,0,0,6.034-3.835.954.954,0,0,1,.076-.149A6.98,6.98,0,0,0,35.359,79.225ZM39.8,67.173l-2.528-1.46V79.225a8.9,8.9,0,0,1-.382,2.584H39.8Zm.558-6.625h0L37.506,58.9a2.011,2.011,0,0,0-2.739.733l-1.048,1.818,7.487,4.323.026.015,10.1,5.832L52.384,69.8a2.009,2.009,0,0,0-.735-2.739ZM59.132,43.585a3.925,3.925,0,0,0-5.034-2.9A3.022,3.022,0,0,0,52.222,42.3L45.75,56.643,49.486,58.8l9.188-12.781a3.021,3.021,0,0,0,.459-2.433Z"/>
    </g>
  </g>
</svg>
