<svg xmlns="http://www.w3.org/2000/svg" xmlns:xlink="http://www.w3.org/1999/xlink" width="110" height="110" viewBox="0 0 110 110">
  <defs>
    <filter id="Trazado_982547" x="0" y="0" width="110" height="110" filterUnits="userSpaceOnUse">
      <feOffset dy="3" input="SourceAlpha"/>
      <feGaussianBlur stdDeviation="3" result="blur"/>
      <feFlood flood-opacity="0.161"/>
      <feComposite operator="in" in2="blur"/>
      <feComposite in="SourceGraphic"/>
    </filter>
    <clipPath id="clip-path">
      <path id="path1139" d="M0-682.665H62.266V-620.4H0Z" transform="translate(0 682.665)"/>
    </clipPath>
  </defs>
  <g id="Grupo_1166453" data-name="Grupo 1166453" transform="translate(-797.19 -1959.523)">
    <g id="Grupo_1164703" data-name="Grupo 1164703" transform="translate(806.19 1965.523)">
      <g id="Grupo_1160931" data-name="Grupo 1160931" transform="translate(0)">
        <g id="Grupo_1160749" data-name="Grupo 1160749" transform="translate(0)">
          <g id="Grupo_1158891" data-name="Grupo 1158891" transform="translate(0 0)">
            <g id="Grupo_1157406" data-name="Grupo 1157406" transform="translate(0)">
              <g id="Grupo_1155793" data-name="Grupo 1155793" transform="translate(0)">
                <g id="Grupo_1154704" data-name="Grupo 1154704" transform="translate(0)">
                  <g id="Grupo_1150790" data-name="Grupo 1150790" transform="translate(0)">
                    <g id="Grupo_1154214" data-name="Grupo 1154214" transform="translate(0)">
                      <g id="Grupo_1152583" data-name="Grupo 1152583" transform="translate(0 0)">
                        <g id="Grupo_1146973" data-name="Grupo 1146973" transform="translate(0 0)">
                          <g id="Grupo_1146954" data-name="Grupo 1146954">
                            <g transform="matrix(1, 0, 0, 1, -9, -6)" filter="url(#Trazado_982547)">
                              <g id="Trazado_982547-2" data-name="Trazado 982547" transform="translate(9 6)" fill="#fef7ea">
                                <path d="M 46.00000381469727 90.49988555908203 C 39.99188232421875 90.49988555908203 34.16427230834961 89.32352447509766 28.67905807495117 87.00347137451172 C 23.38020324707031 84.76226043701172 18.62104415893555 81.55342864990234 14.53375053405762 77.46615600585938 C 10.44647026062012 73.37887573242188 7.237643718719482 68.61971282958984 4.996417045593262 63.32085800170898 C 2.676363706588745 57.83565902709961 1.500003814697266 52.00806045532227 1.500003814697266 45.99993896484375 C 1.500003814697266 39.99181747436523 2.676363706588745 34.16421890258789 4.996417045593262 28.67901802062988 C 7.237643718719482 23.38017845153809 10.44647026062012 18.62101936340332 14.53375053405762 14.53373908996582 C 18.62104415893555 10.44645881652832 23.38020324707031 7.237632274627686 28.67905807495117 4.996418952941895 C 34.16427230834961 2.676365613937378 39.99188232421875 1.500005602836609 46.00000381469727 1.500005602836609 C 52.00812530517578 1.500005602836609 57.83573532104492 2.676365613937378 63.32094955444336 4.996418952941895 C 68.61980438232422 7.237632274627686 73.37897491455078 10.44645881652832 77.46625518798828 14.53373908996582 C 81.55355072021484 18.62101936340332 84.76236724853516 23.38017845153809 87.00359344482422 28.67901802062988 C 89.32364654541016 34.16421890258789 90.5 39.99181747436523 90.5 45.99993896484375 C 90.5 52.00806045532227 89.32364654541016 57.83565902709961 87.00359344482422 63.32085800170898 C 84.76236724853516 68.61971282958984 81.55355072021484 73.37887573242188 77.46625518798828 77.46615600585938 C 73.37897491455078 81.55342864990234 68.61980438232422 84.76226043701172 63.32094955444336 87.00347137451172 C 57.83573532104492 89.32352447509766 52.00812530517578 90.49988555908203 46.00000381469727 90.49988555908203 Z" stroke="none"/>
                                <path d="M 46.00000381469727 2.999992370605469 C 40.19371795654297 2.999992370605469 34.56270217895508 4.136497497558594 29.26338958740234 6.377906799316406 C 24.14333343505859 8.543510437011719 19.54441833496094 11.64437866210938 15.59440612792969 15.59439849853516 C 11.64440155029297 19.54439544677734 8.54351806640625 24.14329528808594 6.377914428710938 29.26335144042969 C 4.136505126953125 34.56266784667969 3.000007629394531 40.19366836547852 3.000007629394531 45.99993896484375 C 3.000007629394531 51.80620956420898 4.136505126953125 57.43722534179688 6.377914428710938 62.73654174804688 C 8.54351806640625 67.85658264160156 11.64440155029297 72.45548248291016 15.59440612792969 76.40549468994141 C 19.54441833496094 80.35549926757812 24.14333343505859 83.45636749267578 29.26337432861328 85.62196350097656 C 34.56270217895508 87.86338043212891 40.19371795654297 88.9998779296875 46.00000381469727 88.9998779296875 C 51.80628967285156 88.9998779296875 57.43730545043945 87.86338043212891 62.73663330078125 85.62196350097656 C 67.85667419433594 83.45636749267578 72.45558929443359 80.35549926757812 76.40560150146484 76.40549468994141 C 80.35560607910156 72.45548248291016 83.45648956298828 67.85658264160156 85.62208557128906 62.73654174804688 C 87.86350250244141 57.43722534179688 89 51.80620956420898 89 45.99993896484375 C 89 40.19366836547852 87.86350250244141 34.56266784667969 85.62208557128906 29.26335144042969 C 83.45648956298828 24.14329528808594 80.35560607910156 19.54439544677734 76.40560150146484 15.59439849853516 C 72.45558929443359 11.64437866210938 67.85667419433594 8.543510437011719 62.73661804199219 6.377906799316406 C 57.43730545043945 4.136497497558594 51.80628967285156 2.999992370605469 46.00000381469727 2.999992370605469 M 46.00000381469727 -7.62939453125e-06 C 71.40510559082031 -7.62939453125e-06 92 20.59487915039062 92 45.99993896484375 C 92 71.40501403808594 71.40510559082031 91.99988555908203 46.00000381469727 91.99988555908203 C 20.59490203857422 91.99988555908203 7.62939453125e-06 71.40501403808594 7.62939453125e-06 45.99993896484375 C 7.62939453125e-06 20.59487915039062 20.59490203857422 -7.62939453125e-06 46.00000381469727 -7.62939453125e-06 Z" stroke="none" fill="#fcba3d"/>
                              </g>
                            </g>
                          </g>
                        </g>
                      </g>
                    </g>
                  </g>
                </g>
              </g>
            </g>
          </g>
        </g>
      </g>
    </g>
    <g id="g1125" transform="translate(821.057 2663.055)">
      <g id="g1127" transform="translate(5.276 -675.547)">
        <path id="path1129" d="M-95.122,0l-9.547,18.14h19.094Z" transform="translate(104.669)" fill="none" stroke="#000" stroke-linecap="round" stroke-linejoin="round" stroke-miterlimit="10" stroke-width="1"/>
      </g>
      <g id="g1131" transform="translate(14.823 -678.348)">
        <path id="path1133" d="M0,0V20.941" fill="none" stroke="#000" stroke-linecap="round" stroke-linejoin="round" stroke-miterlimit="10" stroke-width="1"/>
      </g>
      <g id="g1135" transform="translate(0 -682.665)">
        <g id="g1137" clip-path="url(#clip-path)">
          <g id="g1143" transform="translate(4.762 24.741)">
            <path id="path1145" d="M-.492-5.453,1.7-1.658a.365.365,0,0,0,.316.182h15.01a.365.365,0,0,0,.316-.182l2.191-3.794A.365.365,0,0,0,19.215-6H-.176a.365.365,0,0,0-.316.547" transform="translate(0.541 6)" fill="#fed402"/>
          </g>
          <g id="g1147" transform="translate(37.896 7.118)">
            <path id="path1149" d="M-95.122,0l-9.547,18.14h19.094Z" transform="translate(104.669)" fill="none" stroke="#000" stroke-linecap="round" stroke-linejoin="round" stroke-miterlimit="10" stroke-width="1"/>
          </g>
          <g id="g1151" transform="translate(47.443 4.317)">
            <path id="path1153" d="M0,0V20.941" fill="none" stroke="#000" stroke-linecap="round" stroke-linejoin="round" stroke-miterlimit="10" stroke-width="1"/>
          </g>
          <g id="g1155" transform="translate(37.382 24.741)">
            <path id="path1157" d="M-.493-5.453,1.7-1.658a.365.365,0,0,0,.316.182h15.01a.365.365,0,0,0,.316-.182L19.53-5.453A.365.365,0,0,0,19.215-6H-.177a.365.365,0,0,0-.316.547" transform="translate(0.542 6)" fill="#fed402"/>
          </g>
          <g id="g1159" transform="translate(4.762 24.741)">
            <path id="path1161" d="M-.492-5.453,1.7-1.658a.365.365,0,0,0,.316.182h15.01a.365.365,0,0,0,.316-.182l2.191-3.794A.365.365,0,0,0,19.215-6H-.176a.365.365,0,0,0-.316.547" transform="translate(0.541 6)" fill="#c96e58"/>
          </g>
          <g id="g1163" transform="translate(4.762 24.741)">
            <path id="path1165" d="M-73.675-43.258l-2.191-3.794a.365.365,0,0,1,.316-.547H-80.7a.365.365,0,0,0-.316.547l2.191,3.794a.365.365,0,0,0,.316.182h5.154a.365.365,0,0,1-.316-.182" transform="translate(81.069 47.6)" fill="#bb5d4c"/>
          </g>
          <g id="g1167" transform="translate(4.762 24.741)">
            <path id="path1169" d="M-.492-5.453,1.7-1.658a.365.365,0,0,0,.316.182h15.01a.365.365,0,0,0,.316-.182l2.191-3.794A.365.365,0,0,0,19.215-6H-.176A.365.365,0,0,0-.492-5.453Z" transform="translate(0.541 6)" fill="none" stroke="#000" stroke-linecap="round" stroke-linejoin="round" stroke-miterlimit="10" stroke-width="1"/>
          </g>
          <g id="g1171" transform="translate(37.382 24.741)">
            <path id="path1173" d="M-.493-5.453,1.7-1.658a.365.365,0,0,0,.316.182h15.01a.365.365,0,0,0,.316-.182L19.53-5.453A.365.365,0,0,0,19.215-6H-.177a.365.365,0,0,0-.316.547" transform="translate(0.542 6)" fill="#c96e58"/>
          </g>
          <g id="g1175" transform="translate(37.382 24.741)">
            <path id="path1177" d="M-80.019-43.258l-2.191-3.794a.365.365,0,0,1,.316-.547h-5.791a.365.365,0,0,0-.316.547l2.191,3.794a.365.365,0,0,0,.316.182H-79.7a.365.365,0,0,1-.316-.182" transform="translate(88.05 47.6)" fill="#bb5d4c"/>
          </g>
          <g id="g1179" transform="translate(37.382 24.741)">
            <path id="path1181" d="M-153.425-45.076h2.167a.365.365,0,0,0,.316-.182l2.191-3.794a.365.365,0,0,0-.316-.547h-19.391a.365.365,0,0,0-.316.547l2.191,3.794a.365.365,0,0,0,.316.182h8.586" transform="translate(168.824 49.6)" fill="none" stroke="#000" stroke-linecap="round" stroke-linejoin="round" stroke-miterlimit="10" stroke-width="1"/>
          </g>
          <g id="g1183" transform="translate(31.133 3.796)">
            <path id="path1185" d="M0-351.683v-35.3" transform="translate(0 386.979)" fill="none" stroke="#000" stroke-linecap="round" stroke-linejoin="round" stroke-miterlimit="10" stroke-width="1"/>
          </g>
          <g id="g1187" transform="translate(28.697 12.541)">
            <path id="path1189" d="M-48.549-243.81h-4.873v-23.862a.608.608,0,0,1,.608-.608h3.656a.608.608,0,0,1,.608.608Z" transform="translate(53.421 268.279)" fill="#bb5d4c"/>
          </g>
          <g id="g1191" transform="translate(28.697 12.541)">
            <path id="path1193" d="M-26.617,0H-28.68a.608.608,0,0,0-.608.608V24.47h2.063V.608A.608.608,0,0,1-26.617,0" transform="translate(29.288 0)" fill="#a44f3e"/>
          </g>
          <g id="g1195" transform="translate(28.697 12.541)">
            <path id="path1197" d="M-48.549-30.144v-2.417a.608.608,0,0,0-.608-.608h-3.656a.608.608,0,0,0-.608.608V-8.7h4.873V-25.887" transform="translate(53.421 33.169)" fill="none" stroke="#000" stroke-linecap="round" stroke-linejoin="round" stroke-miterlimit="10" stroke-width="1"/>
          </g>
          <g id="g1199" transform="translate(10.497 4.317)">
            <path id="path1201" d="M0,0H41.272" fill="none" stroke="#000" stroke-linecap="round" stroke-linejoin="round" stroke-miterlimit="10" stroke-width="1"/>
          </g>
          <g id="g1203" transform="translate(27.728 0.912)">
            <path id="path1205" d="M-67.844-33.922a3.4,3.4,0,0,1-3.4,3.4,3.4,3.4,0,0,1-3.4-3.4,3.4,3.4,0,0,1,3.4-3.4,3.4,3.4,0,0,1,3.4,3.4" transform="translate(74.653 37.327)" fill="#883f2e"/>
          </g>
          <g id="g1207" transform="translate(27.728 0.912)">
            <path id="path1209" d="M-30.3-33.922a3.4,3.4,0,0,1,1.884-3.046,3.389,3.389,0,0,0-1.521-.359,3.4,3.4,0,0,0-3.4,3.4,3.4,3.4,0,0,0,3.4,3.4,3.389,3.389,0,0,0,1.521-.359A3.4,3.4,0,0,1-30.3-33.922" transform="translate(33.34 37.327)" fill="#6d3326"/>
          </g>
          <g id="g1211" transform="translate(27.728 0.912)">
            <path id="path1213" d="M-67.844-33.922a3.4,3.4,0,0,1-3.4,3.4,3.4,3.4,0,0,1-3.4-3.4,3.4,3.4,0,0,1,3.4-3.4A3.4,3.4,0,0,1-67.844-33.922Z" transform="translate(74.653 37.327)" fill="none" stroke="#000" stroke-linecap="round" stroke-linejoin="round" stroke-miterlimit="10" stroke-width="1"/>
          </g>
          <g id="g1215" transform="translate(25.448 35.448)">
            <path id="path1217" d="M-113.282-65.017h-11.37V-69.11a2.432,2.432,0,0,1,2.432-2.432h6.5a2.432,2.432,0,0,1,2.432,2.432Z" transform="translate(124.652 71.542)" fill="#883f2e"/>
          </g>
          <g id="g1219" transform="translate(25.448 35.448)">
            <path id="path1221" d="M-65.124,0h-4.1A2.432,2.432,0,0,0-71.66,2.432V6.525h4.1V2.432A2.432,2.432,0,0,1-65.124,0" transform="translate(71.66 0)" fill="#6d3326"/>
          </g>
          <g id="g1223" transform="translate(25.448 35.448)">
            <path id="path1225" d="M-113.282-65.017h-11.37V-69.11a2.432,2.432,0,0,1,2.432-2.432h6.5a2.432,2.432,0,0,1,2.432,2.432Z" transform="translate(124.652 71.542)" fill="none" stroke="#000" stroke-linecap="round" stroke-linejoin="round" stroke-miterlimit="10" stroke-width="1"/>
          </g>
          <g id="g1227" transform="translate(20.817 40.674)">
            <path id="path1229" d="M-205.574-63.691h-20.632V-68a2.084,2.084,0,0,1,2.084-2.085h16.464A2.085,2.085,0,0,1-205.574-68Z" transform="translate(226.206 70.084)" fill="#bb5d4c"/>
          </g>
          <g id="g1231" transform="translate(20.817 40.674)">
            <path id="path1233" d="M-71.869,0H-77a2.084,2.084,0,0,0-2.084,2.084V6.392h5.129V2.084A2.084,2.084,0,0,1-71.869,0" transform="translate(79.082)" fill="#a44f3e"/>
          </g>
          <g id="g1235" transform="translate(20.817 40.674)">
            <path id="path1237" d="M-205.574-103.654h-20.632v-8.319a2.084,2.084,0,0,1,2.084-2.084h16.464a2.084,2.084,0,0,1,2.084,2.084Z" transform="translate(226.206 114.057)" fill="none" stroke="#000" stroke-linecap="round" stroke-linejoin="round" stroke-miterlimit="10" stroke-width="1"/>
          </g>
          <g id="g1239" transform="translate(1.653 46.092)">
            <path id="path1241" d="M-559.938-126.228H-609.8a6.334,6.334,0,0,1-6.334-6.334h0A6.334,6.334,0,0,1-609.8-138.9h49.863Z" transform="translate(616.136 138.897)" fill="#6e61b6"/>
          </g>
          <g id="g1243" transform="translate(1.653 46.092)">
            <path id="path1245" d="M-30.658-63.113h0a6.334,6.334,0,0,1,6.334-6.334H-27.4a6.334,6.334,0,0,0-6.334,6.334A6.334,6.334,0,0,0-27.4-56.779h3.077a6.334,6.334,0,0,1-6.334-6.334" transform="translate(33.735 69.448)" fill="#6354b1"/>
          </g>
          <g id="g1247" transform="translate(1.653 46.092)">
            <path id="path1249" d="M-559.938-126.228H-609.8a6.334,6.334,0,0,1-6.334-6.334h0A6.334,6.334,0,0,1-609.8-138.9h14.267Z" transform="translate(616.136 138.897)" fill="none" stroke="#000" stroke-linecap="round" stroke-linejoin="round" stroke-miterlimit="10" stroke-width="1"/>
          </g>
          <g id="g1251" transform="translate(9.45 46.092)">
            <path id="path1253" d="M0-32.366v6.172a3.248,3.248,0,0,0,3.248,3.248H48.4V-35.615H3.248A3.248,3.248,0,0,0,0-32.366" transform="translate(0 35.615)" fill="#fff3de"/>
          </g>
          <g id="g1255" transform="translate(9.45 46.096)">
            <path id="path1257" d="M-63.019-95.887a3.248,3.248,0,0,1-3.248-3.248v-6.172c0-.068,0-.136.007-.2a3.248,3.248,0,0,0-3.083,3.244v6.172A3.248,3.248,0,0,0-66.1-92.846h45.153v-3.041Z" transform="translate(69.344 105.51)" fill="#ffe5c2"/>
          </g>
          <g id="g1259" transform="translate(9.45 46.092)">
            <path id="path1261" d="M-178.482,0h-14.665A3.248,3.248,0,0,0-196.4,3.248V9.42a3.248,3.248,0,0,0,3.248,3.248h45.153V0h-26.232" transform="translate(196.396)" fill="none" stroke="#000" stroke-linecap="round" stroke-linejoin="round" stroke-miterlimit="10" stroke-width="1"/>
          </g>
          <g id="g1263" transform="translate(51.03 46.092)">
            <path id="path1265" d="M0,0H9.583" fill="none" stroke="#000" stroke-linecap="round" stroke-linejoin="round" stroke-miterlimit="10" stroke-width="1"/>
          </g>
          <g id="g1267" transform="translate(51.03 58.761)">
            <path id="path1269" d="M0,0H9.583" fill="none" stroke="#000" stroke-linecap="round" stroke-linejoin="round" stroke-miterlimit="10" stroke-width="1"/>
          </g>
          <g id="g1271" transform="translate(37.224 50.153)">
            <path id="path1273" d="M0,0H20.3" fill="none" stroke="#000" stroke-linecap="round" stroke-linejoin="round" stroke-miterlimit="10" stroke-width="1"/>
          </g>
          <g id="g1275" transform="translate(14.015 50.153)">
            <path id="path1277" d="M-66.18-107.964V-118.8h-6.642v10.836a.365.365,0,0,0,.572.3l2.749-1.9,2.749,1.9a.365.365,0,0,0,.572-.3" transform="translate(72.822 118.8)" fill="#fb2b3a"/>
          </g>
          <g id="g1279" transform="translate(14.015 50.153)">
            <path id="path1281" d="M-30.467,0h-3.058V10.836a.365.365,0,0,0,.572.3l2.485-1.72Z" transform="translate(33.525)" fill="#e41f2d"/>
          </g>
          <g id="g1283" transform="translate(14.015 50.153)">
            <path id="path1285" d="M-66.18-107.964V-118.8h-6.642v10.836a.365.365,0,0,0,.572.3l2.749-1.9,2.749,1.9A.365.365,0,0,0-66.18-107.964Z" transform="translate(72.822 118.8)" fill="none" stroke="#000" stroke-linecap="round" stroke-linejoin="round" stroke-miterlimit="10" stroke-width="1"/>
          </g>
          <g id="g1287" transform="translate(12.698 50.153)">
            <path id="path1289" d="M0,0H16.567" fill="none" stroke="#000" stroke-linecap="round" stroke-linejoin="round" stroke-miterlimit="10" stroke-width="1"/>
          </g>
          <g id="g1291" transform="translate(37.224 54.701)">
            <path id="path1293" d="M0,0H20.3" fill="none" stroke="#000" stroke-linecap="round" stroke-linejoin="round" stroke-miterlimit="10" stroke-width="1"/>
          </g>
        </g>
      </g>
    </g>
  </g>
</svg>
