<svg xmlns="http://www.w3.org/2000/svg" xmlns:xlink="http://www.w3.org/1999/xlink" width="110" height="110" viewBox="0 0 110 110">
  <defs>
    <filter id="Trazado_982547" x="0" y="0" width="110" height="110" filterUnits="userSpaceOnUse">
      <feOffset dy="3" input="SourceAlpha"/>
      <feGaussianBlur stdDeviation="3" result="blur"/>
      <feFlood flood-opacity="0.161"/>
      <feComposite operator="in" in2="blur"/>
      <feComposite in="SourceGraphic"/>
    </filter>
  </defs>
  <g id="Grupo_1209005" data-name="Grupo 1209005" transform="translate(-1217.19 -3953.205)">
    <g id="Grupo_1166452" data-name="Grupo 1166452" transform="translate(105.19 1993.205)">
      <g id="Grupo_1164700" data-name="Grupo 1164700" transform="translate(1121 1966)">
        <g id="Grupo_1160931" data-name="Grupo 1160931" transform="translate(0)">
          <g id="Grupo_1160749" data-name="Grupo 1160749" transform="translate(0)">
            <g id="Grupo_1158891" data-name="Grupo 1158891" transform="translate(0 0)">
              <g id="Grupo_1157406" data-name="Grupo 1157406" transform="translate(0)">
                <g id="Grupo_1155793" data-name="Grupo 1155793" transform="translate(0)">
                  <g id="Grupo_1154704" data-name="Grupo 1154704" transform="translate(0)">
                    <g id="Grupo_1150790" data-name="Grupo 1150790" transform="translate(0)">
                      <g id="Grupo_1154214" data-name="Grupo 1154214" transform="translate(0)">
                        <g id="Grupo_1152583" data-name="Grupo 1152583" transform="translate(0 0)">
                          <g id="Grupo_1146973" data-name="Grupo 1146973" transform="translate(0 0)">
                            <g id="Grupo_1146954" data-name="Grupo 1146954">
                              <g transform="matrix(1, 0, 0, 1, -9, -6)" filter="url(#Trazado_982547)">
                                <g id="Trazado_982547-2" data-name="Trazado 982547" transform="translate(9 6)" fill="#fef7ea">
                                  <path d="M 46.00000381469727 90.49988555908203 C 39.99188232421875 90.49988555908203 34.16427230834961 89.32352447509766 28.67905807495117 87.00347137451172 C 23.38020324707031 84.76226043701172 18.62104415893555 81.55342864990234 14.53375053405762 77.46615600585938 C 10.44647026062012 73.37887573242188 7.237643718719482 68.61971282958984 4.996417045593262 63.32085800170898 C 2.676363706588745 57.83565902709961 1.500003814697266 52.00806045532227 1.500003814697266 45.99993896484375 C 1.500003814697266 39.99181747436523 2.676363706588745 34.16421890258789 4.996417045593262 28.67901802062988 C 7.237643718719482 23.38017845153809 10.44647026062012 18.62101936340332 14.53375053405762 14.53373908996582 C 18.62104415893555 10.44645881652832 23.38020324707031 7.237632274627686 28.67905807495117 4.996418952941895 C 34.16427230834961 2.676365613937378 39.99188232421875 1.500005602836609 46.00000381469727 1.500005602836609 C 52.00812530517578 1.500005602836609 57.83573532104492 2.676365613937378 63.32094955444336 4.996418952941895 C 68.61980438232422 7.237632274627686 73.37897491455078 10.44645881652832 77.46625518798828 14.53373908996582 C 81.55355072021484 18.62101936340332 84.76236724853516 23.38017845153809 87.00359344482422 28.67901802062988 C 89.32364654541016 34.16421890258789 90.5 39.99181747436523 90.5 45.99993896484375 C 90.5 52.00806045532227 89.32364654541016 57.83565902709961 87.00359344482422 63.32085800170898 C 84.76236724853516 68.61971282958984 81.55355072021484 73.37887573242188 77.46625518798828 77.46615600585938 C 73.37897491455078 81.55342864990234 68.61980438232422 84.76226043701172 63.32094955444336 87.00347137451172 C 57.83573532104492 89.32352447509766 52.00812530517578 90.49988555908203 46.00000381469727 90.49988555908203 Z" stroke="none"/>
                                  <path d="M 46.00000381469727 2.999992370605469 C 40.19371795654297 2.999992370605469 34.56270217895508 4.136497497558594 29.26338958740234 6.377906799316406 C 24.14333343505859 8.543510437011719 19.54441833496094 11.64437866210938 15.59440612792969 15.59439849853516 C 11.64440155029297 19.54439544677734 8.54351806640625 24.14329528808594 6.377914428710938 29.26335144042969 C 4.136505126953125 34.56266784667969 3.000007629394531 40.19366836547852 3.000007629394531 45.99993896484375 C 3.000007629394531 51.80620956420898 4.136505126953125 57.43722534179688 6.377914428710938 62.73654174804688 C 8.54351806640625 67.85658264160156 11.64440155029297 72.45548248291016 15.59440612792969 76.40549468994141 C 19.54441833496094 80.35549926757812 24.14333343505859 83.45636749267578 29.26337432861328 85.62196350097656 C 34.56270217895508 87.86338043212891 40.19371795654297 88.9998779296875 46.00000381469727 88.9998779296875 C 51.80628967285156 88.9998779296875 57.43730545043945 87.86338043212891 62.73663330078125 85.62196350097656 C 67.85667419433594 83.45636749267578 72.45558929443359 80.35549926757812 76.40560150146484 76.40549468994141 C 80.35560607910156 72.45548248291016 83.45648956298828 67.85658264160156 85.62208557128906 62.73654174804688 C 87.86350250244141 57.43722534179688 89 51.80620956420898 89 45.99993896484375 C 89 40.19366836547852 87.86350250244141 34.56266784667969 85.62208557128906 29.26335144042969 C 83.45648956298828 24.14329528808594 80.35560607910156 19.54439544677734 76.40560150146484 15.59439849853516 C 72.45558929443359 11.64437866210938 67.85667419433594 8.543510437011719 62.73661804199219 6.377906799316406 C 57.43730545043945 4.136497497558594 51.80628967285156 2.999992370605469 46.00000381469727 2.999992370605469 M 46.00000381469727 -7.62939453125e-06 C 71.40510559082031 -7.62939453125e-06 92 20.59487915039062 92 45.99993896484375 C 92 71.40501403808594 71.40510559082031 91.99988555908203 46.00000381469727 91.99988555908203 C 20.59490203857422 91.99988555908203 7.62939453125e-06 71.40501403808594 7.62939453125e-06 45.99993896484375 C 7.62939453125e-06 20.59487915039062 20.59490203857422 -7.62939453125e-06 46.00000381469727 -7.62939453125e-06 Z" stroke="none" fill="#fcba3d"/>
                                </g>
                              </g>
                            </g>
                          </g>
                        </g>
                      </g>
                    </g>
                  </g>
                </g>
              </g>
            </g>
          </g>
        </g>
      </g>
    </g>
    <g id="taxi-driver_360450" transform="translate(1244.626 3976.49)">
      <rect id="Rectángulo_418188" data-name="Rectángulo 418188" width="11.258" height="27.378" transform="translate(43.95 27.886)" fill="#ecebed"/>
      <circle id="Elipse_12547" data-name="Elipse 12547" cx="2.704" cy="2.704" r="2.704" transform="translate(46.875 38.871)" fill="#ffa036"/>
      <circle id="Elipse_12548" data-name="Elipse 12548" cx="2.704" cy="2.704" r="2.704" transform="translate(46.875 30.692)" fill="#ff5957"/>
      <circle id="Elipse_12549" data-name="Elipse 12549" cx="2.704" cy="2.704" r="2.704" transform="translate(46.875 47.048)" fill="#89cd38"/>
      <g id="Grupo_1209004" data-name="Grupo 1209004" transform="translate(1.354 34.022)">
        <path id="Trazado_1048523" data-name="Trazado 1048523" d="M60.126,339.544a2.467,2.467,0,1,1,2.467,2.467A2.468,2.468,0,0,1,60.126,339.544Z" transform="translate(-54.86 -333.934)" fill="#27b5f7"/>
        <path id="Trazado_1048524" data-name="Trazado 1048524" d="M14.42,308.535l3.865,3.865a2.461,2.461,0,0,0-.695,1.372h0L12.3,312.378A7.921,7.921,0,0,1,14.42,308.535Z" transform="translate(-12.296 -308.535)" fill="#27b5f7"/>
        <path id="Trazado_1048525" data-name="Trazado 1048525" d="M104.376,312.38l-5.294,1.394h0a2.461,2.461,0,0,0-.694-1.372l3.865-3.865A7.917,7.917,0,0,1,104.376,312.38Z" transform="translate(-88.91 -308.537)" fill="#27b5f7"/>
      </g>
      <path id="Trazado_1048526" data-name="Trazado 1048526" d="M10.447,15.8a5.291,5.291,0,1,1,5.291,5.291A5.291,5.291,0,0,1,10.447,15.8Z" transform="translate(-9.297 -9.298)" fill="#ff5957"/>
      <path id="Trazado_1048527" data-name="Trazado 1048527" d="M133.272,319.093v2.241a1.854,1.854,0,0,0,1.141,1.712l7.4,3.084a4.542,4.542,0,0,1,2.582,4.117v8.927H112.875v-8.927a4.542,4.542,0,0,1,2.582-4.117l7.4-3.084A1.854,1.854,0,0,0,124,321.333v-2.241Z" transform="translate(-100.448 -283.909)" fill="#febba0"/>
      <path id="Trazado_1048528" data-name="Trazado 1048528" d="M115.458,346.01l7.4-3.084a1.853,1.853,0,0,0,1.127-1.493v1.411a4.665,4.665,0,0,0,4.652,4.652h0a4.665,4.665,0,0,0,4.651-4.652v-1.382a1.854,1.854,0,0,0,1.124,1.464l7.4,3.084a4.542,4.542,0,0,1,2.582,4.117v8.927H112.875v-8.927A4.542,4.542,0,0,1,115.458,346.01Z" transform="translate(-100.448 -303.79)" fill="#03203b"/>
      <path id="Trazado_1048529" data-name="Trazado 1048529" d="M141.189,88.546V85.194a10.331,10.331,0,1,1,20.662,0h.041v3.351a2.576,2.576,0,0,1,0,5.153v1.923a5.053,5.053,0,0,1-2.113,3.857l-6.228,3.56a3.574,3.574,0,0,1-4.022,0l-6.209-3.56a5.071,5.071,0,0,1-2.131-3.857V93.7a2.576,2.576,0,1,1,0-5.153Z" transform="translate(-123.352 -66.567)" fill="#febba0"/>
      <path id="Trazado_1048530" data-name="Trazado 1048530" d="M173.822,341.433v1.411a4.665,4.665,0,0,0,4.652,4.652h0a4.665,4.665,0,0,0,4.651-4.652v-1.382a1.854,1.854,0,0,0,1.124,1.464l3.812,1.588-9.594,14.434-9.591-14.431,3.82-1.591A1.854,1.854,0,0,0,173.822,341.433Z" transform="translate(-150.283 -303.79)" fill="#ffa036"/>
      <ellipse id="Elipse_12550" data-name="Elipse 12550" cx="14.728" cy="5.746" rx="14.728" ry="5.746" transform="translate(13.46 7.437)" fill="#03203b"/>
      <path id="Trazado_1048531" data-name="Trazado 1048531" d="M151.519,125.8a45.61,45.61,0,0,1,23,0l-1.145,3.714h-20.7Z" transform="translate(-134.838 -110.58)" fill="#ffa036"/>
      <path id="Trazado_1048532" data-name="Trazado 1048532" d="M419.184,349.842a3.854,3.854,0,1,1,3.854-3.854A3.859,3.859,0,0,1,419.184,349.842Zm0-5.408a1.554,1.554,0,1,0,1.554,1.554A1.556,1.556,0,0,0,419.184,344.433Z" transform="translate(-369.605 -304.413)"/>
      <path id="Trazado_1048533" data-name="Trazado 1048533" d="M419.184,275.557a3.854,3.854,0,1,1,3.854-3.854A3.859,3.859,0,0,1,419.184,275.557Zm0-5.408a1.554,1.554,0,1,0,1.554,1.554A1.556,1.556,0,0,0,419.184,270.148Z" transform="translate(-369.605 -238.306)"/>
      <path id="Trazado_1048534" data-name="Trazado 1048534" d="M419.184,424.127a3.854,3.854,0,1,1,3.854-3.854A3.859,3.859,0,0,1,419.184,424.127Zm0-5.408a1.554,1.554,0,1,0,1.554,1.554A1.556,1.556,0,0,0,419.184,418.718Z" transform="translate(-369.605 -370.519)"/>
      <path id="Trazado_1048535" data-name="Trazado 1048535" d="M492.134,493.343h-.015a1.15,1.15,0,1,1,0-2.3h.015a1.15,1.15,0,1,1,0,2.3Z" transform="translate(-436.917 -436.929)"/>
      <path id="Trazado_1048536" data-name="Trazado 1048536" d="M1.249,493.342H1.234a1.15,1.15,0,0,1,0-2.3h.015a1.15,1.15,0,0,1,0,2.3Z" transform="translate(-0.075 -436.928)"/>
      <path id="Trazado_1048537" data-name="Trazado 1048537" d="M207.55,214.67a1.286,1.286,0,1,1,1.286-1.286A1.287,1.287,0,0,1,207.55,214.67Z" transform="translate(-183.556 -188.694)"/>
      <path id="Trazado_1048538" data-name="Trazado 1048538" d="M283.751,214.67a1.286,1.286,0,1,1,1.286-1.286A1.287,1.287,0,0,1,283.751,214.67Z" transform="translate(-251.368 -188.694)"/>
      <path id="Trazado_1048539" data-name="Trazado 1048539" d="M237.617,264.748a2.277,2.277,0,0,1-2.274-2.274,1.15,1.15,0,0,1,1.15-1.15h2.248a1.15,1.15,0,0,1,1.15,1.15A2.277,2.277,0,0,1,237.617,264.748Z" transform="translate(-209.434 -232.5)"/>
      <path id="Trazado_1048540" data-name="Trazado 1048540" d="M12.882,6.5a6.441,6.441,0,1,0-7.591,6.336V25.421a1.15,1.15,0,1,0,2.3,0V12.838A6.45,6.45,0,0,0,12.882,6.5ZM6.441,10.643A4.141,4.141,0,1,1,10.581,6.5,4.145,4.145,0,0,1,6.441,10.643Z"/>
      <path id="Trazado_1048541" data-name="Trazado 1048541" d="M28.868,49.166a1.15,1.15,0,0,0,0,2.3h4.479a1.15,1.15,0,0,0,0-2.3Z" transform="translate(-24.666 -43.699)"/>
      <path id="Trazado_1048542" data-name="Trazado 1048542" d="M182.92,448.42h-.015a1.15,1.15,0,1,1,0-2.3h.015a1.15,1.15,0,1,1,0,2.3Z" transform="translate(-161.745 -396.951)"/>
      <path id="Trazado_1048543" data-name="Trazado 1048543" d="M55.234,77.059H43.976a1.15,1.15,0,0,0-1.15,1.15V92.044a4.806,4.806,0,0,0-.99-.562l-7.4-3.084a.7.7,0,0,1-.433-.65V85.962l3.024-1.729.063-.039a6.2,6.2,0,0,0,2.626-4.729c0-.029,0-.058,0-.088v-.955a3.727,3.727,0,0,0,0-7.09V69.426l.382-1.239c3.284-1.557,3.994-3.39,3.994-4.681,0-2.042-1.792-3.865-5.046-5.135A30.813,30.813,0,0,0,28.215,56.61a30.811,30.811,0,0,0-10.832,1.762c-3.254,1.27-5.046,3.093-5.046,5.135,0,1.289.709,3.121,3.99,4.678l.387,1.242v1.907a3.727,3.727,0,0,0,0,7.09v.955c0,.029,0,.059,0,.088A6.211,6.211,0,0,0,19.361,84.2l.062.038,3.007,1.724v1.791c0,.031-.008.1-.009.109A.7.7,0,0,1,22,88.4l-3.8,1.583c0-.009,0-.018,0-.026A9.085,9.085,0,1,0,11.3,98.77v5.668H4.922a1.15,1.15,0,0,0,0,2.3H51.508a1.15,1.15,0,0,0,0-2.3H45.127V79.359h8.958v22.548a1.15,1.15,0,1,0,2.3,0v-23.7A1.15,1.15,0,0,0,55.234,77.059ZM18.71,68.1l-.543-1.744a46.457,46.457,0,0,1,10.048-1.143,46.328,46.328,0,0,1,10.04,1.144L37.717,68.1Zm-4.073-4.6c0-1.919,5.165-4.6,13.578-4.6s13.578,2.677,13.578,4.6A2.261,2.261,0,0,1,40.773,65.1q-.022-.054-.05-.1a1.15,1.15,0,0,0-.691-.559,46.747,46.747,0,0,0-23.646,0,1.15,1.15,0,0,0-.692.56c-.017.032-.032.064-.046.1A2.252,2.252,0,0,1,14.637,63.506ZM20.6,82.257a3.959,3.959,0,0,1-1.587-2.925V77.455a1.15,1.15,0,0,0-1.15-1.15,1.426,1.426,0,0,1,0-2.852,1.15,1.15,0,0,0,1.15-1.15V70.4h18.4v1.9a1.15,1.15,0,0,0,1.15,1.15,1.426,1.426,0,1,1,0,2.852,1.15,1.15,0,0,0-1.15,1.15v1.877a3.9,3.9,0,0,1-1.568,2.925L29.655,85.8l-.063.039a2.434,2.434,0,0,1-2.754,0l-.062-.038Zm11.117,7.121a3.5,3.5,0,0,1-7,0l.008-2.105.88.5a4.73,4.73,0,0,0,5.224,0l.882-.5Zm-16.329-2-2.818.742,2.081-2.081A6.777,6.777,0,0,1,15.389,87.382ZM9.114,83.172a6.743,6.743,0,0,1,3.911,1.246l-2.3,2.3a3.606,3.606,0,0,0-3.223,0l-2.3-2.3A6.743,6.743,0,0,1,9.114,83.172ZM3.577,86.044l2.081,2.081-2.819-.743A6.772,6.772,0,0,1,3.577,86.044ZM7.963,96.638A6.793,6.793,0,0,1,2.33,89.955c0-.109,0-.217.008-.325l3.195.841a3.627,3.627,0,0,0,2.43,2.913v3.254Zm1.15-5.366a1.317,1.317,0,1,1,1.317-1.317A1.319,1.319,0,0,1,9.114,91.272Zm2.2,5.1a6.726,6.726,0,0,1-1.048.266V93.383a3.627,3.627,0,0,0,2.43-2.913l3.194-.842c.005.108.008.216.008.325a6.849,6.849,0,0,1-.078,1.017l-1.225.51A5.652,5.652,0,0,0,11.311,96.374Zm2.292,8.064v-2.645h3.862a1.15,1.15,0,1,0,0-2.3H13.6V96.661a3.409,3.409,0,0,1,1.875-3.055l2.707-1.128,7.949,11.96H13.6Zm6.745-12.861h0l2.21-.921a5.8,5.8,0,0,0,11.316,0l2.2.916h0L28.209,103.4Zm22.478,12.861H30.285l7.952-11.963,2.715,1.131a3.409,3.409,0,0,1,1.875,3.055v7.777Z" transform="translate(-0.027 -50.323)"/>
    </g>
  </g>
</svg>
