<svg xmlns="http://www.w3.org/2000/svg" xmlns:xlink="http://www.w3.org/1999/xlink" width="110" height="110" viewBox="0 0 110 110">
  <defs>
    <filter id="Trazado_982547" x="0" y="0" width="110" height="110" filterUnits="userSpaceOnUse">
      <feOffset dy="3" input="SourceAlpha"/>
      <feGaussianBlur stdDeviation="3" result="blur"/>
      <feFlood flood-opacity="0.161"/>
      <feComposite operator="in" in2="blur"/>
      <feComposite in="SourceGraphic"/>
    </filter>
  </defs>
  <g id="Grupo_1209007" data-name="Grupo 1209007" transform="translate(-272.19 -5049.728)">
    <g id="Grupo_1208899" data-name="Grupo 1208899" transform="translate(-525 3090.205)">
      <g id="Grupo_1164703" data-name="Grupo 1164703" transform="translate(806.19 1965.523)">
        <g id="Grupo_1160931" data-name="Grupo 1160931" transform="translate(0)">
          <g id="Grupo_1160749" data-name="Grupo 1160749" transform="translate(0)">
            <g id="Grupo_1158891" data-name="Grupo 1158891" transform="translate(0 0)">
              <g id="Grupo_1157406" data-name="Grupo 1157406" transform="translate(0)">
                <g id="Grupo_1155793" data-name="Grupo 1155793" transform="translate(0)">
                  <g id="Grupo_1154704" data-name="Grupo 1154704" transform="translate(0)">
                    <g id="Grupo_1150790" data-name="Grupo 1150790" transform="translate(0)">
                      <g id="Grupo_1154214" data-name="Grupo 1154214" transform="translate(0)">
                        <g id="Grupo_1152583" data-name="Grupo 1152583" transform="translate(0 0)">
                          <g id="Grupo_1146973" data-name="Grupo 1146973" transform="translate(0 0)">
                            <g id="Grupo_1146954" data-name="Grupo 1146954">
                              <g transform="matrix(1, 0, 0, 1, -9, -6)" filter="url(#Trazado_982547)">
                                <g id="Trazado_982547-2" data-name="Trazado 982547" transform="translate(9 6)" fill="#fef7ea">
                                  <path d="M 46.00000381469727 90.49988555908203 C 39.99188232421875 90.49988555908203 34.16427230834961 89.32352447509766 28.67905807495117 87.00347137451172 C 23.38020324707031 84.76226043701172 18.62104415893555 81.55342864990234 14.53375053405762 77.46615600585938 C 10.44647026062012 73.37887573242188 7.237643718719482 68.61971282958984 4.996417045593262 63.32085800170898 C 2.676363706588745 57.83565902709961 1.500003814697266 52.00806045532227 1.500003814697266 45.99993896484375 C 1.500003814697266 39.99181747436523 2.676363706588745 34.16421890258789 4.996417045593262 28.67901802062988 C 7.237643718719482 23.38017845153809 10.44647026062012 18.62101936340332 14.53375053405762 14.53373908996582 C 18.62104415893555 10.44645881652832 23.38020324707031 7.237632274627686 28.67905807495117 4.996418952941895 C 34.16427230834961 2.676365613937378 39.99188232421875 1.500005602836609 46.00000381469727 1.500005602836609 C 52.00812530517578 1.500005602836609 57.83573532104492 2.676365613937378 63.32094955444336 4.996418952941895 C 68.61980438232422 7.237632274627686 73.37897491455078 10.44645881652832 77.46625518798828 14.53373908996582 C 81.55355072021484 18.62101936340332 84.76236724853516 23.38017845153809 87.00359344482422 28.67901802062988 C 89.32364654541016 34.16421890258789 90.5 39.99181747436523 90.5 45.99993896484375 C 90.5 52.00806045532227 89.32364654541016 57.83565902709961 87.00359344482422 63.32085800170898 C 84.76236724853516 68.61971282958984 81.55355072021484 73.37887573242188 77.46625518798828 77.46615600585938 C 73.37897491455078 81.55342864990234 68.61980438232422 84.76226043701172 63.32094955444336 87.00347137451172 C 57.83573532104492 89.32352447509766 52.00812530517578 90.49988555908203 46.00000381469727 90.49988555908203 Z" stroke="none"/>
                                  <path d="M 46.00000381469727 2.999992370605469 C 40.19371795654297 2.999992370605469 34.56270217895508 4.136497497558594 29.26338958740234 6.377906799316406 C 24.14333343505859 8.543510437011719 19.54441833496094 11.64437866210938 15.59440612792969 15.59439849853516 C 11.64440155029297 19.54439544677734 8.54351806640625 24.14329528808594 6.377914428710938 29.26335144042969 C 4.136505126953125 34.56266784667969 3.000007629394531 40.19366836547852 3.000007629394531 45.99993896484375 C 3.000007629394531 51.80620956420898 4.136505126953125 57.43722534179688 6.377914428710938 62.73654174804688 C 8.54351806640625 67.85658264160156 11.64440155029297 72.45548248291016 15.59440612792969 76.40549468994141 C 19.54441833496094 80.35549926757812 24.14333343505859 83.45636749267578 29.26337432861328 85.62196350097656 C 34.56270217895508 87.86338043212891 40.19371795654297 88.9998779296875 46.00000381469727 88.9998779296875 C 51.80628967285156 88.9998779296875 57.43730545043945 87.86338043212891 62.73663330078125 85.62196350097656 C 67.85667419433594 83.45636749267578 72.45558929443359 80.35549926757812 76.40560150146484 76.40549468994141 C 80.35560607910156 72.45548248291016 83.45648956298828 67.85658264160156 85.62208557128906 62.73654174804688 C 87.86350250244141 57.43722534179688 89 51.80620956420898 89 45.99993896484375 C 89 40.19366836547852 87.86350250244141 34.56266784667969 85.62208557128906 29.26335144042969 C 83.45648956298828 24.14329528808594 80.35560607910156 19.54439544677734 76.40560150146484 15.59439849853516 C 72.45558929443359 11.64437866210938 67.85667419433594 8.543510437011719 62.73661804199219 6.377906799316406 C 57.43730545043945 4.136497497558594 51.80628967285156 2.999992370605469 46.00000381469727 2.999992370605469 M 46.00000381469727 -7.62939453125e-06 C 71.40510559082031 -7.62939453125e-06 92 20.59487915039062 92 45.99993896484375 C 92 71.40501403808594 71.40510559082031 91.99988555908203 46.00000381469727 91.99988555908203 C 20.59490203857422 91.99988555908203 7.62939453125e-06 71.40501403808594 7.62939453125e-06 45.99993896484375 C 7.62939453125e-06 20.59487915039062 20.59490203857422 -7.62939453125e-06 46.00000381469727 -7.62939453125e-06 Z" stroke="none" fill="#fcba3d"/>
                                </g>
                              </g>
                            </g>
                          </g>
                        </g>
                      </g>
                    </g>
                  </g>
                </g>
              </g>
            </g>
          </g>
        </g>
      </g>
    </g>
    <g id="filledoutline" transform="translate(295.985 5070.205)">
      <path id="Trazado_1048544" data-name="Trazado 1048544" d="M2,38H17l12-2,1,4,1,6v7H2Z" fill="#5788f8"/>
      <path id="Trazado_1048545" data-name="Trazado 1048545" d="M29,61H26a2,2,0,0,1-2-2V52h7v7A2,2,0,0,1,29,61Z" fill="#6d6b73"/>
      <path id="Trazado_1048546" data-name="Trazado 1048546" d="M2,48H17l14-2v7H2Z" fill="#2565f8"/>
      <path id="Trazado_1048547" data-name="Trazado 1048547" d="M17,44l13-4-1-4L17,38Z" fill="#ffc200"/>
      <path id="Trazado_1048548" data-name="Trazado 1048548" d="M2,38H17v6H2Z" fill="#2565f8"/>
      <path id="Trazado_1048549" data-name="Trazado 1048549" d="M2,32V30.906l22.586-.315L25,32a4,4,0,0,1,4,4L17,38H2Z" fill="#5788f8"/>
      <path id="Trazado_1048550" data-name="Trazado 1048550" d="M2,15H16.26a5,5,0,0,1,4.8,3.59l.12.41L25,32H2Z" fill="#c7c7c5"/>
      <path id="Trazado_1048551" data-name="Trazado 1048551" d="M2,15H16.26a5,5,0,0,1,4.8,3.59l.12.41H2Z" fill="#5788f8"/>
      <path id="Trazado_1048552" data-name="Trazado 1048552" d="M61,31.39,42.89,37.98,30.93,40.21l.18,6.32,1.71,4.7,2.05,5.63,13.15-4.78v-.01L61,47.35Z" fill="#cc3e3e"/>
      <path id="Trazado_1048553" data-name="Trazado 1048553" d="M41.277,59.853l-2.819,1.026a2,2,0,0,1-2.564-1.2L34.557,56l6.631-2.229,1.284,3.518a2,2,0,0,1-1.195,2.564Z" fill="#6d6b73"/>
      <path id="Trazado_1048554" data-name="Trazado 1048554" d="M61,37.77,44.95,43.62l1.02,2.82L32.82,51.23l2.05,5.63L61,47.35" fill="#ea4747"/>
      <path id="Trazado_1048555" data-name="Trazado 1048555" d="M44.946,43.619l-13.84,2.909-.173-6.322,11.961-2.225Z" fill="#ffc200"/>
      <path id="Trazado_1048556" data-name="Trazado 1048556" d="M61,37.77,44.95,43.62l-2.06-5.64L61,31.39Z" fill="#cc3e3e"/>
      <path id="Trazado_1048557" data-name="Trazado 1048557" d="M61,31.39,42.89,37.98,30.93,40.21a5.068,5.068,0,0,1-.03-.55,5.279,5.279,0,0,1,2.428-4.444l-.066-1.3L61,24Z" fill="#ea4747"/>
      <path id="Trazado_1048558" data-name="Trazado 1048558" d="M61,25,34.29,34.73l-.963.487L32.85,25.67l-.14-2.7a2.006,2.006,0,0,1,1.31-1.98L58.6,12.05a1.991,1.991,0,0,1,2.19.56l.21.24Z" fill="#c7c7c5"/>
      <path id="Trazado_1048559" data-name="Trazado 1048559" d="M61,15.43,32.85,25.67l-.14-2.7a2.006,2.006,0,0,1,1.31-1.98L58.6,12.05a1.991,1.991,0,0,1,2.19.56l.21.24Z" fill="#ea4747"/>
      <circle id="Elipse_12551" data-name="Elipse 12551" cx="3" cy="3" r="3" transform="translate(21 47)" fill="#ffc200"/>
      <path id="Trazado_1048560" data-name="Trazado 1048560" d="M23,14,21,5l8,6,3-8,3,8,8-6-2,9Z" fill="#ffc200"/>
      <g id="Grupo_1209006" data-name="Grupo 1209006">
        <path id="Trazado_1048561" data-name="Trazado 1048561" d="M4.447,24.25H15.054v2H4.447Z" transform="translate(-14.999 14.29) rotate(-45)" fill="#ececec"/>
        <path id="Trazado_1048562" data-name="Trazado 1048562" d="M9.964,25.5h7.071v2H9.964Z" transform="translate(-14.784 17.308) rotate(-45)" fill="#ececec"/>
        <path id="Trazado_1048563" data-name="Trazado 1048563" d="M47.394,23H54.6v2H47.394Z" transform="matrix(0.555, -0.832, 0.832, 0.555, 2.74, 53.122)" fill="#ececec"/>
        <path id="Trazado_1048564" data-name="Trazado 1048564" d="M54.2,21.5H57.8v2H54.2Z" transform="matrix(0.555, -0.832, 0.832, 0.555, 6.215, 56.614)" fill="#ececec"/>
      </g>
      <path id="Trazado_1048565" data-name="Trazado 1048565" d="M34.366,21.928l27.663-10.2L61.336,9.85,33.677,20.05a3,3,0,0,0-1.966,2.971l.59,11.706a6.344,6.344,0,0,0-1.934,2.617l-.388-1.552a4.985,4.985,0,0,0-4.208-4.715l-3.708-12.62-.044-.152A5.966,5.966,0,0,0,16.26,14H2v2H16.26a3.974,3.974,0,0,1,3.469,2H2v2H20.432l3.232,11H2v2H25a2.994,2.994,0,0,1,2.87,2.175L16.917,37H2v2H16v4H2v2H17a1.017,1.017,0,0,0,.294-.044L29.2,41.292l.643,3.863-6.087.869a3.984,3.984,0,0,0-.7.1L16.929,47H2v2H17a.969.969,0,0,0,.142-.01l3.143-.449A3.876,3.876,0,0,0,20.556,52H2v2H23v5a3,3,0,0,0,3,3h3a3,3,0,0,0,3-3V51.9l1.931,5.3,1.027,2.82a2.993,2.993,0,0,0,3.842,1.8l2.819-1.026a3,3,0,0,0,1.793-3.845l-.685-1.879,5.635-2.048a1.081,1.081,0,0,0,.125-.056L61.342,48.29l.682-.248-.683-1.88L47.678,51.13a1.081,1.081,0,0,0-.125.056L35.468,55.578,34.1,51.827l12.211-4.448a1,1,0,0,0,.6-1.279l-.681-1.882,15.8-5.758-.685-1.878-15.8,5.757-1.37-3.762,17.85-6.495-.683-1.88-18.716,6.81L31.949,39a4.247,4.247,0,0,1,2.7-3.339l27.378-9.97-.685-1.879L34.251,33.68l-.369-7.321L62.024,16.122l-.683-1.88L33.777,24.269l-.068-1.344a1,1,0,0,1,.657-1ZM18,42.646v-3.8l3.147-.524,7.107-1.185.548,2.184ZM22,50a2,2,0,0,1,1.438-1.91l.6-.086A2,2,0,1,1,22,50Zm8,9a1,1,0,0,1-1,1H26a1,1,0,0,1-1-1V54h5Zm0-7H27.444a3.9,3.9,0,0,0-.3-4.44L30,47.153Zm10.848,3.751.684,1.88a1,1,0,0,1-.6,1.282l-2.82,1.026a1,1,0,0,1-1.281-.6l-.685-1.883Zm3.457-10.975.385,1.066L33.418,49.948l-.975-2.679Zm-2.062-5.658,1.369,3.759L32.075,45.3l-.121-4.266Z"/>
      <path id="Trazado_1048566" data-name="Trazado 1048566" d="M22.024,14.217l1.952-.434L22.563,7.422,28.4,11.8a1,1,0,0,0,1.537-.449L32,5.848l2.063,5.5A1,1,0,0,0,35.6,11.8l5.838-4.378-1.414,6.361,1.952.434,2-9A1,1,0,0,0,42.4,4.2L35.468,9.4,32.937,2.65a1,1,0,0,0-1.874,0L28.532,9.4,21.6,4.2a1,1,0,0,0-1.576,1.017Z"/>
    </g>
  </g>
</svg>
