<svg xmlns="http://www.w3.org/2000/svg" xmlns:xlink="http://www.w3.org/1999/xlink" width="110" height="110" viewBox="0 0 110 110">
  <defs>
    <filter id="Trazado_982547" x="0" y="0" width="110" height="110" filterUnits="userSpaceOnUse">
      <feOffset dy="3" input="SourceAlpha"/>
      <feGaussianBlur stdDeviation="3" result="blur"/>
      <feFlood flood-opacity="0.161"/>
      <feComposite operator="in" in2="blur"/>
      <feComposite in="SourceGraphic"/>
    </filter>
    <clipPath id="clip-path">
      <path id="path4263" d="M0-682.665H62.439v62.439H0Z" transform="translate(0 682.665)"/>
    </clipPath>
  </defs>
  <g id="Grupo_1209010" data-name="Grupo 1209010" transform="translate(-587 -5050.205)">
    <g id="Grupo_1208898" data-name="Grupo 1208898" transform="translate(-525 3090.205)">
      <g id="Grupo_1164700" data-name="Grupo 1164700" transform="translate(1121 1966)">
        <g id="Grupo_1160931" data-name="Grupo 1160931" transform="translate(0)">
          <g id="Grupo_1160749" data-name="Grupo 1160749" transform="translate(0)">
            <g id="Grupo_1158891" data-name="Grupo 1158891" transform="translate(0 0)">
              <g id="Grupo_1157406" data-name="Grupo 1157406" transform="translate(0)">
                <g id="Grupo_1155793" data-name="Grupo 1155793" transform="translate(0)">
                  <g id="Grupo_1154704" data-name="Grupo 1154704" transform="translate(0)">
                    <g id="Grupo_1150790" data-name="Grupo 1150790" transform="translate(0)">
                      <g id="Grupo_1154214" data-name="Grupo 1154214" transform="translate(0)">
                        <g id="Grupo_1152583" data-name="Grupo 1152583" transform="translate(0 0)">
                          <g id="Grupo_1146973" data-name="Grupo 1146973" transform="translate(0 0)">
                            <g id="Grupo_1146954" data-name="Grupo 1146954">
                              <g transform="matrix(1, 0, 0, 1, -9, -6)" filter="url(#Trazado_982547)">
                                <g id="Trazado_982547-2" data-name="Trazado 982547" transform="translate(9 6)" fill="#fef7ea">
                                  <path d="M 46.00000381469727 90.49988555908203 C 39.99188232421875 90.49988555908203 34.16427230834961 89.32352447509766 28.67905807495117 87.00347137451172 C 23.38020324707031 84.76226043701172 18.62104415893555 81.55342864990234 14.53375053405762 77.46615600585938 C 10.44647026062012 73.37887573242188 7.237643718719482 68.61971282958984 4.996417045593262 63.32085800170898 C 2.676363706588745 57.83565902709961 1.500003814697266 52.00806045532227 1.500003814697266 45.99993896484375 C 1.500003814697266 39.99181747436523 2.676363706588745 34.16421890258789 4.996417045593262 28.67901802062988 C 7.237643718719482 23.38017845153809 10.44647026062012 18.62101936340332 14.53375053405762 14.53373908996582 C 18.62104415893555 10.44645881652832 23.38020324707031 7.237632274627686 28.67905807495117 4.996418952941895 C 34.16427230834961 2.676365613937378 39.99188232421875 1.500005602836609 46.00000381469727 1.500005602836609 C 52.00812530517578 1.500005602836609 57.83573532104492 2.676365613937378 63.32094955444336 4.996418952941895 C 68.61980438232422 7.237632274627686 73.37897491455078 10.44645881652832 77.46625518798828 14.53373908996582 C 81.55355072021484 18.62101936340332 84.76236724853516 23.38017845153809 87.00359344482422 28.67901802062988 C 89.32364654541016 34.16421890258789 90.5 39.99181747436523 90.5 45.99993896484375 C 90.5 52.00806045532227 89.32364654541016 57.83565902709961 87.00359344482422 63.32085800170898 C 84.76236724853516 68.61971282958984 81.55355072021484 73.37887573242188 77.46625518798828 77.46615600585938 C 73.37897491455078 81.55342864990234 68.61980438232422 84.76226043701172 63.32094955444336 87.00347137451172 C 57.83573532104492 89.32352447509766 52.00812530517578 90.49988555908203 46.00000381469727 90.49988555908203 Z" stroke="none"/>
                                  <path d="M 46.00000381469727 2.999992370605469 C 40.19371795654297 2.999992370605469 34.56270217895508 4.136497497558594 29.26338958740234 6.377906799316406 C 24.14333343505859 8.543510437011719 19.54441833496094 11.64437866210938 15.59440612792969 15.59439849853516 C 11.64440155029297 19.54439544677734 8.54351806640625 24.14329528808594 6.377914428710938 29.26335144042969 C 4.136505126953125 34.56266784667969 3.000007629394531 40.19366836547852 3.000007629394531 45.99993896484375 C 3.000007629394531 51.80620956420898 4.136505126953125 57.43722534179688 6.377914428710938 62.73654174804688 C 8.54351806640625 67.85658264160156 11.64440155029297 72.45548248291016 15.59440612792969 76.40549468994141 C 19.54441833496094 80.35549926757812 24.14333343505859 83.45636749267578 29.26337432861328 85.62196350097656 C 34.56270217895508 87.86338043212891 40.19371795654297 88.9998779296875 46.00000381469727 88.9998779296875 C 51.80628967285156 88.9998779296875 57.43730545043945 87.86338043212891 62.73663330078125 85.62196350097656 C 67.85667419433594 83.45636749267578 72.45558929443359 80.35549926757812 76.40560150146484 76.40549468994141 C 80.35560607910156 72.45548248291016 83.45648956298828 67.85658264160156 85.62208557128906 62.73654174804688 C 87.86350250244141 57.43722534179688 89 51.80620956420898 89 45.99993896484375 C 89 40.19366836547852 87.86350250244141 34.56266784667969 85.62208557128906 29.26335144042969 C 83.45648956298828 24.14329528808594 80.35560607910156 19.54439544677734 76.40560150146484 15.59439849853516 C 72.45558929443359 11.64437866210938 67.85667419433594 8.543510437011719 62.73661804199219 6.377906799316406 C 57.43730545043945 4.136497497558594 51.80628967285156 2.999992370605469 46.00000381469727 2.999992370605469 M 46.00000381469727 -7.62939453125e-06 C 71.40510559082031 -7.62939453125e-06 92 20.59487915039062 92 45.99993896484375 C 92 71.40501403808594 71.40510559082031 91.99988555908203 46.00000381469727 91.99988555908203 C 20.59490203857422 91.99988555908203 7.62939453125e-06 71.40501403808594 7.62939453125e-06 45.99993896484375 C 7.62939453125e-06 20.59487915039062 20.59490203857422 -7.62939453125e-06 46.00000381469727 -7.62939453125e-06 Z" stroke="none" fill="#fcba3d"/>
                                </g>
                              </g>
                            </g>
                          </g>
                        </g>
                      </g>
                    </g>
                  </g>
                </g>
              </g>
            </g>
          </g>
        </g>
      </g>
    </g>
    <g id="g4257" transform="translate(610.781 5753.65)">
      <g id="g4259" transform="translate(0 -682.665)">
        <g id="g4261" clip-path="url(#clip-path)">
          <g id="g4267" transform="translate(0.915 37.477)">
            <path id="path4269" d="M-134.636,0l-13.122,13.122a1.476,1.476,0,0,0,0,2.087l6.522,6.522a2.676,2.676,0,0,0,3.784,0l12.273-12.273Z" transform="translate(148.19)" fill="#5a5a5a"/>
          </g>
          <g id="g4271" transform="translate(7.51 45.728)">
            <path id="path4273" d="M-151.076,0-164.2,13.122a1.476,1.476,0,0,1-2.087,0l2.242,2.242a1.476,1.476,0,0,0,2.087,0l13.122-13.121Z" transform="translate(166.285)" fill="#444"/>
          </g>
          <g id="g4275" transform="translate(9.798 28.835)">
            <path id="path4277" d="M-223.426-121.926-235.39-133.89a1.06,1.06,0,0,0-1.5,0l-8.719,8.719a1.06,1.06,0,0,0,0,1.5l11.964,11.964a1.06,1.06,0,0,0,1.5,0l8.719-8.719a1.06,1.06,0,0,0,0-1.5" transform="translate(245.919 134.2)" fill="#acacac"/>
          </g>
          <g id="g4279" transform="translate(26.779 12.299)">
            <path id="path4281" d="M-218.537-89.082c-8.088-8.135-8.231-8.274-8.348-8.392a1.968,1.968,0,0,0-2.783,0l-6.868,6.868a1.968,1.968,0,0,0,0,2.783l.549.549-4.2,4.2a1.18,1.18,0,0,0,0,1.669l5.473,5.473a1.18,1.18,0,0,0,1.462-.165l4.2-4.2,0,0,.862.862a1.968,1.968,0,0,0,2.783,0l6.868-6.868a1.968,1.968,0,0,0,0-2.783" transform="translate(240.538 98.05)" fill="#cecece"/>
          </g>
          <g id="g4283" transform="translate(31.736 20.404)">
            <path id="path4285" d="M-179.226-18.486l-1.861-1.861a1.968,1.968,0,0,1,0,2.783l-6.868,6.868a1.968,1.968,0,0,1-2.783,0l-.865-.865-4.2,4.2a1.18,1.18,0,0,1-1.462.165l1.438,1.438a1.18,1.18,0,0,0,1.669,0l4.2-4.2.865.864a1.968,1.968,0,0,0,2.783,0l6.868-6.868a1.967,1.967,0,0,0,.215-2.525" transform="translate(197.269 20.347)" fill="silver"/>
          </g>
          <g id="g4287" transform="translate(37.477 0.915)">
            <path id="path4289" d="M-217.231-70.448l-6.66-6.66a1.476,1.476,0,0,0-2.087,0L-239.1-63.986l9.286,9.286,12.583-12.583a2.237,2.237,0,0,0,0-3.164" transform="translate(239.099 77.54)" fill="#5a5a5a"/>
          </g>
          <g id="g4291" transform="translate(45.728 7.51)">
            <path id="path4293" d="M-152.612-22.271l-2.242-2.242a1.476,1.476,0,0,1,0,2.087L-167.976-9.3l2.242,2.242,13.122-13.122a1.476,1.476,0,0,0,0-2.087" transform="translate(167.976 24.513)" fill="#444"/>
          </g>
          <g id="g4295" transform="translate(21.038 40.074)">
            <path id="path4297" d="M-121.736-20.236l-2.037-2.037a1.06,1.06,0,0,1,0,1.5l-8.719,8.719a1.06,1.06,0,0,1-1.5,0l2.037,2.037a1.06,1.06,0,0,0,1.5,0l8.719-8.719a1.06,1.06,0,0,0,0-1.5" transform="translate(133.992 22.273)" fill="#9d9d9d"/>
          </g>
          <g id="g4299" transform="translate(14.586 34.709)">
            <path id="path4301" d="M-34.2-2.776-37.358.387a.954.954,0,0,0,0,1.349l8.072,8.072a.954.954,0,0,0,1.349,0l3.163-3.163a.954.954,0,0,0,0-1.349l-8.072-8.072a.954.954,0,0,0-1.349,0" transform="translate(37.638 3.056)" fill="#ee6161"/>
          </g>
          <g id="g4303" transform="translate(16.942 33.623)">
            <path id="path4305" d="M-115.171-96.361a.954.954,0,0,0,0-1.349l-8.072-8.072a.954.954,0,0,0-1.349,0l-2.173,2.173a.954.954,0,0,1,1.349,0l8.072,8.072a.954.954,0,0,1,0,1.349Z" transform="translate(126.765 106.061)" fill="#e94444"/>
          </g>
          <g id="g4307" transform="translate(33.003 9.694)">
            <path id="path4309" d="M-180.039-120.979l-11.942-11.942a.809.809,0,0,0-1.144,0l-4.8,4.8a.809.809,0,0,0,0,1.143l11.942,11.942a.808.808,0,0,0,1.143,0l4.8-4.8a.809.809,0,0,0,0-1.143" transform="translate(198.163 133.158)" fill="#acacac"/>
          </g>
          <g id="g4311" transform="translate(44.583 21.274)">
            <path id="path4313" d="M-31.021-78.722l4.8-4.8a.809.809,0,0,0,0-1.143L-28.2-86.646a.809.809,0,0,1,0,1.143L-33-80.7a.809.809,0,0,1-1.143,0l1.979,1.979a.809.809,0,0,0,1.143,0" transform="translate(34.144 86.646)" fill="#9d9d9d"/>
          </g>
          <g id="g4315" transform="translate(9.798 28.835)">
            <path id="path4317" d="M-146.774-233.383l8.719-8.719a1.06,1.06,0,0,0,0-1.5l-12.966-12.966a1.06,1.06,0,0,0-1.5,0l-8.719,8.719a1.06,1.06,0,0,0,0,1.5l12.966,12.966A1.06,1.06,0,0,0-146.774-233.383Z" transform="translate(161.55 256.877)" fill="none" stroke="#000" stroke-linecap="round" stroke-linejoin="round" stroke-miterlimit="10" stroke-width="1"/>
          </g>
          <g id="g4319" transform="translate(33.003 9.694)">
            <path id="path4321" d="M-50.054-2.352l-4.8,4.8a.809.809,0,0,0,0,1.143l13.322,13.322a.809.809,0,0,0,1.143,0l4.8-4.8a.809.809,0,0,0,0-1.143L-48.911-2.352A.809.809,0,0,0-50.054-2.352Z" transform="translate(55.093 2.589)" fill="none" stroke="#000" stroke-linecap="round" stroke-linejoin="round" stroke-miterlimit="10" stroke-width="1"/>
          </g>
          <g id="g4323" transform="translate(15.773 15.773)">
            <path id="path4325" d="M-53.6-53.6-59-59" transform="translate(59 59)" fill="none" stroke="#000" stroke-linecap="round" stroke-linejoin="round" stroke-miterlimit="10" stroke-width="1"/>
          </g>
          <g id="g4327" transform="translate(10.658 24.467)">
            <path id="path4329" d="M-75.807,0h-7.632" transform="translate(83.438)" fill="none" stroke="#000" stroke-linecap="round" stroke-linejoin="round" stroke-miterlimit="10" stroke-width="1"/>
          </g>
          <g id="g4331" transform="translate(24.467 10.658)">
            <path id="path4333" d="M0-75.806v-7.631" transform="translate(0 83.437)" fill="none" stroke="#000" stroke-linecap="round" stroke-linejoin="round" stroke-miterlimit="10" stroke-width="1"/>
          </g>
          <g id="g4335" transform="translate(40.965 40.965)">
            <path id="path4337" d="M0,0,5.4,5.4" fill="none" stroke="#000" stroke-linecap="round" stroke-linejoin="round" stroke-miterlimit="10" stroke-width="1"/>
          </g>
          <g id="g4339" transform="translate(43.845 37.667)">
            <path id="path4341" d="M0,0H7.632" fill="none" stroke="#000" stroke-linecap="round" stroke-linejoin="round" stroke-miterlimit="10" stroke-width="1"/>
          </g>
          <g id="g4343" transform="translate(37.667 43.845)">
            <path id="path4345" d="M0,0V7.632" fill="none" stroke="#000" stroke-linecap="round" stroke-linejoin="round" stroke-miterlimit="10" stroke-width="1"/>
          </g>
          <g id="g4347" transform="translate(31.083 27.865)">
            <path id="path4349" d="M0,0,3.174,3.174" fill="none" stroke="#000" stroke-linecap="round" stroke-linejoin="round" stroke-miterlimit="10" stroke-width="1"/>
          </g>
          <g id="g4351" transform="translate(0.915 40.6)">
            <path id="path4353" d="M-103.616,0l-10,10a1.476,1.476,0,0,0,0,2.087l8.405,8.406a1.476,1.476,0,0,0,2.087,0l10-10Z" transform="translate(114.047)" fill="none" stroke="#000" stroke-linecap="round" stroke-linejoin="round" stroke-miterlimit="10" stroke-width="1" stroke-dasharray="300 35 800 0"/>
          </g>
          <g id="g4355" transform="translate(14.586 33.623)">
            <path id="path4357" d="M-138.573-96.361a.954.954,0,0,0,0-1.349l-8.072-8.072a.954.954,0,0,0-1.349,0l-4.25,4.25a.954.954,0,0,0,0,1.349l8.072,8.072a.954.954,0,0,0,1.349,0Z" transform="translate(152.523 106.061)" fill="none" stroke="#000" stroke-linecap="round" stroke-linejoin="round" stroke-miterlimit="10" stroke-width="1"/>
          </g>
          <g id="g4359" transform="translate(26.78 16.58)">
            <path id="path4361" d="M-71.161,0l-3.163,3.163a1.968,1.968,0,0,0,0,2.783l.549.549-4.2,4.2a1.181,1.181,0,0,0,0,1.67l6.049,6.049a1.18,1.18,0,0,0,1.67,0l4.2-4.2.865.865a1.968,1.968,0,0,0,2.783,0l3.163-3.163Z" transform="translate(78.325)" fill="none" stroke="#000" stroke-linecap="round" stroke-linejoin="round" stroke-miterlimit="10" stroke-width="1"/>
          </g>
          <g id="g4363" transform="translate(40.6 0.915)">
            <path id="path4365" d="M-203.549-87.789l-8.405-8.406a1.476,1.476,0,0,0-2.087,0l-10,10L-213.548-75.7l10-10A1.476,1.476,0,0,0-203.549-87.789Z" transform="translate(224.041 96.627)" fill="none" stroke="#000" stroke-linecap="round" stroke-linejoin="round" stroke-miterlimit="10" stroke-width="1" stroke-dasharray="142 35 800 0"/>
          </g>
        </g>
      </g>
      <g id="g4367" transform="translate(0 -682.665)">
        <g id="g4369" clip-path="url(#clip-path)">
          <g id="g4375" transform="translate(-57.134 25.556)">
            <path id="path4377" d="M0,0V24.29a8.692,8.692,0,0,0,8.811,8.568H38.14a8.692,8.692,0,0,0,8.811-8.568V0Z" fill="none" stroke="#000" stroke-linecap="round" stroke-linejoin="round" stroke-miterlimit="10" stroke-width="1" stroke-dasharray="526 35 800 0"/>
          </g>
        </g>
      </g>
    </g>
  </g>
</svg>
