<svg xmlns="http://www.w3.org/2000/svg" xmlns:xlink="http://www.w3.org/1999/xlink" width="110" height="110" viewBox="0 0 110 110">
  <defs>
    <filter id="Trazado_982547" x="0" y="0" width="110" height="110" filterUnits="userSpaceOnUse">
      <feOffset dy="3" input="SourceAlpha"/>
      <feGaussianBlur stdDeviation="3" result="blur"/>
      <feFlood flood-opacity="0.161"/>
      <feComposite operator="in" in2="blur"/>
      <feComposite in="SourceGraphic"/>
    </filter>
  </defs>
  <g id="Grupo_1209013" data-name="Grupo 1209013" transform="translate(-902.381 -5049.728)">
    <g id="Grupo_1208896" data-name="Grupo 1208896" transform="translate(105.19 3090.205)">
      <g id="Grupo_1164703" data-name="Grupo 1164703" transform="translate(806.19 1965.523)">
        <g id="Grupo_1160931" data-name="Grupo 1160931" transform="translate(0)">
          <g id="Grupo_1160749" data-name="Grupo 1160749" transform="translate(0)">
            <g id="Grupo_1158891" data-name="Grupo 1158891" transform="translate(0 0)">
              <g id="Grupo_1157406" data-name="Grupo 1157406" transform="translate(0)">
                <g id="Grupo_1155793" data-name="Grupo 1155793" transform="translate(0)">
                  <g id="Grupo_1154704" data-name="Grupo 1154704" transform="translate(0)">
                    <g id="Grupo_1150790" data-name="Grupo 1150790" transform="translate(0)">
                      <g id="Grupo_1154214" data-name="Grupo 1154214" transform="translate(0)">
                        <g id="Grupo_1152583" data-name="Grupo 1152583" transform="translate(0 0)">
                          <g id="Grupo_1146973" data-name="Grupo 1146973" transform="translate(0 0)">
                            <g id="Grupo_1146954" data-name="Grupo 1146954">
                              <g transform="matrix(1, 0, 0, 1, -9, -6)" filter="url(#Trazado_982547)">
                                <g id="Trazado_982547-2" data-name="Trazado 982547" transform="translate(9 6)" fill="#fef7ea">
                                  <path d="M 46.00000381469727 90.49988555908203 C 39.99188232421875 90.49988555908203 34.16427230834961 89.32352447509766 28.67905807495117 87.00347137451172 C 23.38020324707031 84.76226043701172 18.62104415893555 81.55342864990234 14.53375053405762 77.46615600585938 C 10.44647026062012 73.37887573242188 7.237643718719482 68.61971282958984 4.996417045593262 63.32085800170898 C 2.676363706588745 57.83565902709961 1.500003814697266 52.00806045532227 1.500003814697266 45.99993896484375 C 1.500003814697266 39.99181747436523 2.676363706588745 34.16421890258789 4.996417045593262 28.67901802062988 C 7.237643718719482 23.38017845153809 10.44647026062012 18.62101936340332 14.53375053405762 14.53373908996582 C 18.62104415893555 10.44645881652832 23.38020324707031 7.237632274627686 28.67905807495117 4.996418952941895 C 34.16427230834961 2.676365613937378 39.99188232421875 1.500005602836609 46.00000381469727 1.500005602836609 C 52.00812530517578 1.500005602836609 57.83573532104492 2.676365613937378 63.32094955444336 4.996418952941895 C 68.61980438232422 7.237632274627686 73.37897491455078 10.44645881652832 77.46625518798828 14.53373908996582 C 81.55355072021484 18.62101936340332 84.76236724853516 23.38017845153809 87.00359344482422 28.67901802062988 C 89.32364654541016 34.16421890258789 90.5 39.99181747436523 90.5 45.99993896484375 C 90.5 52.00806045532227 89.32364654541016 57.83565902709961 87.00359344482422 63.32085800170898 C 84.76236724853516 68.61971282958984 81.55355072021484 73.37887573242188 77.46625518798828 77.46615600585938 C 73.37897491455078 81.55342864990234 68.61980438232422 84.76226043701172 63.32094955444336 87.00347137451172 C 57.83573532104492 89.32352447509766 52.00812530517578 90.49988555908203 46.00000381469727 90.49988555908203 Z" stroke="none"/>
                                  <path d="M 46.00000381469727 2.999992370605469 C 40.19371795654297 2.999992370605469 34.56270217895508 4.136497497558594 29.26338958740234 6.377906799316406 C 24.14333343505859 8.543510437011719 19.54441833496094 11.64437866210938 15.59440612792969 15.59439849853516 C 11.64440155029297 19.54439544677734 8.54351806640625 24.14329528808594 6.377914428710938 29.26335144042969 C 4.136505126953125 34.56266784667969 3.000007629394531 40.19366836547852 3.000007629394531 45.99993896484375 C 3.000007629394531 51.80620956420898 4.136505126953125 57.43722534179688 6.377914428710938 62.73654174804688 C 8.54351806640625 67.85658264160156 11.64440155029297 72.45548248291016 15.59440612792969 76.40549468994141 C 19.54441833496094 80.35549926757812 24.14333343505859 83.45636749267578 29.26337432861328 85.62196350097656 C 34.56270217895508 87.86338043212891 40.19371795654297 88.9998779296875 46.00000381469727 88.9998779296875 C 51.80628967285156 88.9998779296875 57.43730545043945 87.86338043212891 62.73663330078125 85.62196350097656 C 67.85667419433594 83.45636749267578 72.45558929443359 80.35549926757812 76.40560150146484 76.40549468994141 C 80.35560607910156 72.45548248291016 83.45648956298828 67.85658264160156 85.62208557128906 62.73654174804688 C 87.86350250244141 57.43722534179688 89 51.80620956420898 89 45.99993896484375 C 89 40.19366836547852 87.86350250244141 34.56266784667969 85.62208557128906 29.26335144042969 C 83.45648956298828 24.14329528808594 80.35560607910156 19.54439544677734 76.40560150146484 15.59439849853516 C 72.45558929443359 11.64437866210938 67.85667419433594 8.543510437011719 62.73661804199219 6.377906799316406 C 57.43730545043945 4.136497497558594 51.80628967285156 2.999992370605469 46.00000381469727 2.999992370605469 M 46.00000381469727 -7.62939453125e-06 C 71.40510559082031 -7.62939453125e-06 92 20.59487915039062 92 45.99993896484375 C 92 71.40501403808594 71.40510559082031 91.99988555908203 46.00000381469727 91.99988555908203 C 20.59490203857422 91.99988555908203 7.62939453125e-06 71.40501403808594 7.62939453125e-06 45.99993896484375 C 7.62939453125e-06 20.59487915039062 20.59490203857422 -7.62939453125e-06 46.00000381469727 -7.62939453125e-06 Z" stroke="none" fill="#fcba3d"/>
                                </g>
                              </g>
                            </g>
                          </g>
                        </g>
                      </g>
                    </g>
                  </g>
                </g>
              </g>
            </g>
          </g>
        </g>
      </g>
    </g>
    <g id="transmissor_1064372" transform="translate(926.93 5038.933)">
      <path id="Trazado_1048567" data-name="Trazado 1048567" d="M87.843,123.379l-3.808-3.808a.728.728,0,0,0-.515-.213H74.5a.728.728,0,0,0-.728.728v4.478H87.843v-1.185Z" transform="translate(-64.815 -72.147)" fill="#ffb23f"/>
      <path id="Trazado_1048568" data-name="Trazado 1048568" d="M138.867,119.357H136.76l4.021,4.021v1.185h2.408v-1.185l-3.808-3.808A.729.729,0,0,0,138.867,119.357Z" transform="translate(-120.162 -72.146)" fill="#f69435"/>
      <path id="Trazado_1048569" data-name="Trazado 1048569" d="M32.9,258.78v-1.336H14.8v1.336l-3.534,21.2a2.513,2.513,0,0,0,2.479,2.927h13a2.514,2.514,0,0,0,2.479-2.1Z" transform="translate(-9.87 -193.474)" fill="#b1b1b2"/>
      <path id="Trazado_1048570" data-name="Trazado 1048570" d="M125.993,257.446v1.336l-3.671,22.028a2.513,2.513,0,0,1-2.479,2.1h2.332a2.514,2.514,0,0,0,2.479-2.1l3.671-22.028v-1.336Z" transform="translate(-105.297 -193.476)" fill="#989899"/>
      <g id="Grupo_1209011" data-name="Grupo 1209011" transform="translate(1.102 55.253)">
        <path id="Trazado_1048571" data-name="Trazado 1048571" d="M9.1,229.769l1.021-4.324H50.7v5.22H9.808A.728.728,0,0,1,9.1,229.769Z" transform="translate(-9.08 -220.612)" fill="#666"/>
        <path id="Trazado_1048572" data-name="Trazado 1048572" d="M48.423,317.674h8.466a.728.728,0,0,0,.718-.608l2.438-14.629a.728.728,0,0,0-.718-.848H50.862a.728.728,0,0,0-.718.608l-2.438,14.629A.728.728,0,0,0,48.423,317.674Z" transform="translate(-43.008 -287.514)" fill="#666"/>
        <path id="Trazado_1048573" data-name="Trazado 1048573" d="M448,185.623h6.129a.728.728,0,0,1,.728.728v4.576a.728.728,0,0,1-.728.728H448Z" transform="translate(-394.73 -185.623)" fill="#666"/>
      </g>
      <path id="Trazado_1048574" data-name="Trazado 1048574" d="M49.182,152.489h-33.8a4.022,4.022,0,0,0-3.929,3.164L9.634,161.6a.728.728,0,0,0,.7.941H51.193V154.5A2.011,2.011,0,0,0,49.182,152.489Z" transform="translate(-8.436 -101.257)" fill="#b1b1b2"/>
      <path id="Trazado_1048575" data-name="Trazado 1048575" d="M180.482,188.638H173.9a.728.728,0,0,1-.728-.728v-1.56a.728.728,0,0,1,.728-.728h6.586a.728.728,0,0,1,.728.728v1.56A.728.728,0,0,1,180.482,188.638Z" transform="translate(-152.15 -130.369)" fill="#e5e5e5"/>
      <path id="Trazado_1048576" data-name="Trazado 1048576" d="M221.133,188.638h-1.7v-3.016h1.7a.728.728,0,0,1,.728.728v1.56A.728.728,0,0,1,221.133,188.638Z" transform="translate(-192.802 -130.369)" fill="#cbcbcb"/>
      <path id="Trazado_1048577" data-name="Trazado 1048577" d="M486.2,191.655h-1.7v-6.032h1.7a.728.728,0,0,1,.728.728v4.576A.728.728,0,0,1,486.2,191.655Z" transform="translate(-425.697 -130.37)" fill="#5a5b5b"/>
      <path id="Trazado_1048578" data-name="Trazado 1048578" d="M309.24,84.313a.727.727,0,0,1-.751.729,20.107,20.107,0,0,1,0-40.186.727.727,0,0,1,.751.729Z" transform="translate(-254.041 -6.686)" fill="#ffb23f"/>
      <path id="Trazado_1048579" data-name="Trazado 1048579" d="M436.58,44.855c-.56.021-1.115.065-1.663.131V84.911c.548.066,1.1.11,1.663.131a.727.727,0,0,0,.751-.729V45.584A.727.727,0,0,0,436.58,44.855Z" transform="translate(-382.132 -6.686)" fill="#f69435"/>
      <g id="Grupo_1209012" data-name="Grupo 1209012" transform="translate(0 37.245)">
        <path id="Trazado_1048580" data-name="Trazado 1048580" d="M61.23,54.343H56.109V38.155a.91.91,0,0,0-.91-.91,21.028,21.028,0,0,0-4.155.413c-.029,0-.057.01-.084.016A21.1,21.1,0,0,0,35.74,50.322H23.405L19.65,46.567a.911.911,0,0,0-.644-.267H8.953a.91.91,0,0,0-.91.91v3.111h-1.1a4.958,4.958,0,0,0-4.81,3.843L.04,61.02a.909.909,0,0,0,.675,1.154L.025,65.1a.91.91,0,0,0,.886,1.12H3.857L.5,86.359a3.424,3.424,0,0,0,3.377,3.986h13a3.413,3.413,0,0,0,3.377-2.861L23.8,66.217H35.746a21.1,21.1,0,0,0,15.21,12.632q.044.011.09.018a21.028,21.028,0,0,0,4.152.413.91.91,0,0,0,.91-.91V62.2H61.23a.91.91,0,0,0,.91-.91V55.253A.91.91,0,0,0,61.23,54.343ZM9.863,48.121H18.63l2.2,2.2H9.864v-2.2ZM3.884,54.662c.007-.024.014-.048.019-.073a3.126,3.126,0,0,1,3.039-2.447H35.091a21.067,21.067,0,0,0-.8,8.233H2.14ZM18.459,87.185a1.6,1.6,0,0,1-1.581,1.34h-13A1.6,1.6,0,0,1,2.3,86.658L5.7,66.217h16.25ZM23.028,64.4H2.061l.52-2.2H34.552a20.826,20.826,0,0,0,.543,2.2Zm31.26,13.04a19.2,19.2,0,0,1-2.2-.232v-28.7a.91.91,0,0,0-1.821,0v28.31a19.2,19.2,0,0,1,0-37.107v5.15a.91.91,0,0,0,1.821,0v-5.54a19.2,19.2,0,0,1,2.2-.232v38.35ZM60.32,60.375H56.109V56.164H60.32Z" transform="translate(0 -37.245)" fill="#0c0a0b"/>
        <path id="Trazado_1048581" data-name="Trazado 1048581" d="M174.619,178.124h-8.043a.91.91,0,0,0-.91.91v3.016a.91.91,0,0,0,.91.91h8.043a.91.91,0,0,0,.91-.91v-3.016A.91.91,0,0,0,174.619,178.124Zm-.91,3.016h-6.222v-1.2h6.222Z" transform="translate(-145.559 -161.026)" fill="#0c0a0b"/>
        <path id="Trazado_1048582" data-name="Trazado 1048582" d="M67.178,178.124a.91.91,0,0,0-.91.91v3.016a.91.91,0,1,0,1.821,0v-3.016A.91.91,0,0,0,67.178,178.124Z" transform="translate(-58.225 -161.026)" fill="#0c0a0b"/>
        <path id="Trazado_1048583" data-name="Trazado 1048583" d="M92.255,178.124a.91.91,0,0,0-.91.91v3.016a.91.91,0,1,0,1.821,0v-3.016A.91.91,0,0,0,92.255,178.124Z" transform="translate(-80.259 -161.026)" fill="#0c0a0b"/>
        <path id="Trazado_1048584" data-name="Trazado 1048584" d="M117.333,178.124a.91.91,0,0,0-.91.91v3.016a.91.91,0,1,0,1.821,0v-3.016A.91.91,0,0,0,117.333,178.124Z" transform="translate(-102.293 -161.026)" fill="#0c0a0b"/>
        <path id="Trazado_1048585" data-name="Trazado 1048585" d="M39.329,311.675a.91.91,0,0,0,.695.322h9.942a.91.91,0,0,0,.9-.761l2.681-16.085a.91.91,0,0,0-.9-1.06H42.7a.91.91,0,0,0-.9.761l-2.681,16.085A.911.911,0,0,0,39.329,311.675Zm4.147-15.763h8.1l-2.377,14.264H41.1Z" transform="translate(-34.366 -262.918)" fill="#0c0a0b"/>
      </g>
    </g>
  </g>
</svg>
